<?xml version="1.0" standalone="no"?>
<!DOCTYPE svg PUBLIC "-//W3C//DTD SVG 1.1//EN" "../../../../../www.w3.org/Graphics/SVG/1.1/DTD/svg11.dtd" >
<svg>
<metadata>
Created by FontForge 20090914 at Mon Jun 17 11:53:25 2013
 By www-data
Copyright (c) International Typeface Corporation 1996.  Portions Copyright (c) Microsoft Corporation 1996.  All rights reserved.
</metadata>
<defs>
<font id="TempusSansITC" horiz-adv-x="1024" >
  <font-face 
    font-family="Tempus Sans ITC"
    font-weight="400"
    font-stretch="normal"
    units-per-em="2048"
    panose-1="4 2 4 4 3 13 7 2 2 2"
    ascent="1638"
    descent="-410"
    x-height="913"
    cap-height="1378"
    bbox="-439.998 -698 2214 1974"
    underline-thickness="102"
    underline-position="-103"
    unicode-range="U+0020-U+F003"
  />
<missing-glyph horiz-adv-x="2048" 
d="M256 0v1536h1536v-1536h-1536zM384 128h1280v1280h-1280v-1280z" />
    <glyph glyph-name=".notdef" horiz-adv-x="2048" 
d="M256 0v1536h1536v-1536h-1536zM384 128h1280v1280h-1280v-1280z" />
    <glyph glyph-name="space" unicode=" " horiz-adv-x="522" 
 />
    <glyph glyph-name="exclam" unicode="!" horiz-adv-x="631" 
d="M406 1464c-18.667 -159.333 -31.668 -352 -39.001 -578s-15.666 -386 -24.999 -480h-4c-6.66699 0 -13.667 -5.5 -21 -16.5s-12.666 -16.5 -15.999 -16.5h-2c-1.33301 0 -3.33301 0.666992 -6 2s-4.66699 2 -6 2s-2.83301 -0.666992 -4.5 -2s-2.83398 -2 -3.50098 -2
c-10 11.333 -15 25.666 -15 42.999c0 12 2 24.333 6 37c18 59.333 27 135.666 27 228.999l-17 273c-6 97.333 -12.5 175.5 -19.5 234.5s-10.5 98.833 -10.5 119.5c0 24.667 0.5 44.334 1.5 59.001s3.5 27.667 7.5 39s10.333 21.333 19 30s24 17.834 46 27.501
s38.333 14.5 49 14.5c8.66699 0 19.667 -5 33 -15zM366.999 70c0 -14.667 -13.666 -48.334 -40.999 -101.001h-7c-6.66699 0 -13.834 -3.66699 -21.501 -11s-13.834 -11.666 -18.501 -12.999c-48 18 -72 39.667 -72 65v17c0 56 24 89.333 72 100v2h2
c16.667 0 45.334 -16.333 86.001 -49v-10z" />
    <glyph glyph-name="quotedbl" unicode="&#x22;" horiz-adv-x="774" 
d="M471 1378l-52.498 -94.4951c-16.333 -30.333 -31.333 -59.833 -45 -88.5s-25.834 -56.167 -36.501 -82.5s-20 -51.833 -28 -76.5c-4 -12.667 -10 -23.334 -18 -32.001c-11.333 -12.667 -17 -19.334 -17 -20.001c-2.66699 -7.33301 -6.33398 -19.833 -11.001 -37.5
s-10.5 -31.334 -17.5 -41.001s-19.833 -15.834 -38.5 -18.501c-1.33301 6 -2 16.333 -2 31c0 38.667 13.333 91.5 40 158.5s48.167 127.333 64.5 181s37.833 91.667 64.5 114s59 38.166 97 47.499v-41zM477.002 854.005c-5.33301 10.667 -8 19 -8 25s14 44.667 42 116
s62.333 141.333 103 210c6.66699 12.667 19.667 42 39 88s40.5 76.833 63.5 92.5s48.5 23.5 76.5 23.5c9.33301 0 14 -4 14 -12c0 -14.667 -14.667 -48.667 -44 -102l-91 -166c-31.333 -56 -61 -111.833 -89 -167.5s-46.833 -88.167 -56.5 -97.5s-20.5 -14 -32.5 -14
c-3.33301 0 -9 1.33301 -17 4z" />
    <glyph glyph-name="numbersign" unicode="#" horiz-adv-x="1331" 
d="M1006 856h20.0059c46.667 0 89.167 7.16699 127.5 21.5s62.166 21.5 71.499 21.5c39.333 0 59 -13.667 59 -41c0 -30 -16.333 -52.167 -49 -66.5s-67.667 -21.5 -105 -21.5c-7.33301 0 -23.833 1.33301 -49.5 4s-47.834 4 -66.501 4c-26.667 0 -50 -8.66699 -70 -26
s-47.333 -73.333 -82 -168c24 -26 50.667 -39 80 -39c12 0 29.333 3.16699 52 9.5s34 18.833 34 37.5c46.667 -3.33301 77.5 -8.33301 92.5 -15s22.5 -19.334 22.5 -38.001v-13c-8 -30.667 -24.333 -54.334 -49 -71.001h-9c-7.33301 0 -14 2 -20 6
c-8 -5.33301 -16 -13.333 -24 -24s-14.333 -16.334 -19 -17.001c-1.33301 28.667 -35.333 43 -102 43c-26 0 -63.667 -7.66699 -113 -23c-14.667 -55.333 -41.5 -126.833 -80.5 -214.5s-62.167 -148.5 -69.5 -182.5c-4 -19.333 -14.667 -30.666 -32 -33.999
s-31 -8.33301 -41 -15v-21c-10.667 6.66699 -27.334 13.834 -50.001 21.501s-34 21.834 -34 42.501c0 14.667 15.333 37 46 67s48.667 51 54 63l98 265l-14 23c-59.333 2.66699 -97.666 4 -114.999 4c-35.333 0 -85.666 -3.33301 -150.999 -10
c-12 -44 -43.5 -112.833 -94.5 -206.5s-81.833 -169.167 -92.5 -226.5c-2 -4.66699 -9.33301 -10 -22 -16s-19.667 -15 -21 -27c-26 11.333 -41.667 17 -47 17c-9.33301 0 -23 -5.66699 -41 -17c-1.33301 5.33301 -2 13.666 -2 24.999c0 33.333 10.333 67.333 31 102h-2
c0.666992 0 9 3.66699 25 11c59.333 90.667 101 167.5 125 230.5s37.333 95.833 40 98.5c-33.333 7.33301 -63.333 11 -90 11c-24.667 0 -42.5 -2.33301 -53.5 -7s-22.833 -13 -35.5 -25s-22.334 -18 -29.001 -18c-8 0 -20.333 5 -37 15s-25 21 -25 33c0 30 13.667 51 41 63
c8 20.667 21 31 39 31l20 -2c8.66699 0 18.5 2.33301 29.5 7s18.5 7 22.5 7c10 0 18 -6.66699 24 -20h76c17.333 0 32.833 5 46.5 15s30.5 33 50.5 69s39 82.333 57 139c-18 5.33301 -39.333 8 -64 8c-12.667 0 -34.167 -1.33301 -64.5 -4s-54.5 -4 -72.5 -4
c-39.333 0 -72.666 8.66699 -99.999 26c21.333 40 52.666 62 93.999 66l18 2c11.333 0 27.833 -2 49.5 -6s37.834 -6 48.501 -6l33 4l45 -4c25.333 0 44.166 9 56.499 27s29.833 53.333 52.5 106s47.667 120 75 202s49.666 132.333 66.999 151s37 28 59 28
c14 0 33 -2.66699 57 -8v-27c-8 -2.66699 -19.667 -23 -35 -61l-145 -343v-16c0 -16.667 5.33301 -29 16 -37s17.667 -12 21 -12h22l70 -2c20 0 38 1.66699 54 5c16.667 4 31.667 10 45 18c14 8 26.667 18.333 38 31s21.666 28.667 30.999 48
c9.33301 18 18.333 39.667 27 65c6 16.667 21 55.334 45 116.001c17.333 41.333 30.666 80 39.999 116c4.66699 20.667 9 43.667 13 69c2 12.667 3.66699 21 5 25s9.16602 8.16699 23.499 12.5s31.833 6.5 52.5 6.5c4.66699 5.33301 9 10 13 14l9.5 -10
c5 -5.33301 11.167 -8.66602 18.5 -9.99902l23 6c1.33301 -4 2 -9.66699 2 -17c0 -16 -3.33301 -31.667 -10 -47c-22 -20 -52.167 -79.333 -90.5 -178s-72.5 -178.334 -102.5 -239.001zM827.006 758c-19.333 10.667 -42.335 15.998 -69.002 15.998l-66 -2l-63 2
c-32 0 -49.667 -7.66699 -53 -23c-2.66699 -12 -7.66699 -22 -15 -30c-13.333 -8.66699 -25.166 -20.667 -35.499 -36s-21.333 -38.166 -33 -68.499s-17.5 -46.166 -17.5 -47.499c0 -12 4.66699 -21.333 14 -28h54c36.667 0 68 1.5 94 4.5s47.833 8 65.5 15
s33.334 18.667 47.001 35s23 28.5 28 36.5s12 27 21 57s18.5 53 28.5 69z" />
    <glyph glyph-name="dollar" unicode="$" horiz-adv-x="836" 
d="M713 1395c5.33301 -24 7.99707 -46.001 7.99707 -66.001c0 -38 -15.667 -57 -47 -57c-6 0 -15.667 1.33301 -29 4c-20 30 -49.333 45 -88 45c-17.333 0 -32.166 -5.83301 -44.499 -17.5s-22.666 -48.834 -30.999 -111.501s-12.5 -139 -12.5 -229
c0 -95.333 1.33301 -147.5 4 -156.5s21.334 -25.5 56.001 -49.5c121.333 -83.333 182 -180.666 182 -291.999c0 -76 -27.833 -156.833 -83.5 -242.5s-100.167 -131.834 -133.5 -138.501c-41.333 -10.667 -67.166 -30.667 -77.499 -60s-15.5 -85 -15.5 -167
c0 -174 -17.667 -271 -53 -291c-22.667 4.66699 -38.5 10.667 -47.5 18s-13.5 19 -13.5 35c0 20 8 74 24 162c20.667 55.333 31 114.666 31 177.999c0 24 -0.666992 41.667 -2 53c-90.667 -54.667 -160.334 -82 -209.001 -82c-20.667 0 -31 22.667 -31 68
c0 16 5.66699 33.667 17 53c24.667 8 48.334 12 71.001 12c7.33301 0 13.333 -0.666992 18 -2s9.66699 -2 15 -2s27.5 4.5 66.5 13.5s61.333 16.667 67 23s14.167 72.333 25.5 198s17 242.167 17 349.5v33c-120 91.333 -190.5 158.333 -211.5 201s-31.5 87 -31.5 133
c0 131.333 74.667 246 224 344c21.333 14 35.333 24.833 42 32.5s9 20.334 7 38.001s-3 32.834 -3 45.501c0 195.333 28 293 84 293c10 0 22.333 -4 37 -12c-0.666992 -34.667 -7.33398 -85.167 -20.001 -151.5s-19 -114.166 -19 -143.499c0 -20 2 -41 6 -63
c21.333 -2.66699 36.333 -4 45 -4c26 0 47.667 2.33301 65 7s26.333 7 27 7zM405.997 847.999c9.33301 197.333 14 340.669 14 430.002c0 8 -4.66699 12 -14 12c-60.667 -52.667 -102.5 -96.334 -125.5 -131.001s-34.5 -71.334 -34.5 -110.001c0 -72 45.667 -141 137 -207z
M433.997 113.002c52 22 94 62.332 126 120.999s48 121.334 48 188.001c0 41.333 -12 83 -36 125s-57.667 76 -101 102c-12.667 -199.333 -29 -376 -49 -530z" />
    <glyph glyph-name="percent" unicode="%" horiz-adv-x="1255" 
d="M473 1395c14 8 23.6611 11.9941 28.9941 11.9941l23 -4c28.667 -2.66699 44.667 -5.33398 48 -8.00098c12.667 -23.333 28 -40 46 -50s46 -16.333 84 -19l126 -7c52 0 85.167 1.83301 99.5 5.5s28.833 14.834 43.5 33.501c24.667 30 60.334 45 107.001 45
c22 0 39.833 -10.667 53.5 -32s20.5 -42.666 20.5 -63.999c0 -16 -3.33301 -27.167 -10 -33.5s-18.167 -13.166 -34.5 -20.499s-28.833 -13.333 -37.5 -18v-21h-4c-6.66699 0 -13.167 -3.33301 -19.5 -10s-11.5 -10 -15.5 -10c-1.33301 0 -4.66602 1.33301 -9.99902 4
c-400 -651.333 -600 -990.666 -600 -1018c-6 -22 -24.167 -53.167 -54.5 -93.5s-51.166 -69.166 -62.499 -86.499c6.66699 -8.66699 10 -16.334 10 -23.001c0 -2.66699 -9.83301 -23.5 -29.5 -62.5s-29.5 -63.167 -29.5 -72.5c0 2 -2 6.16699 -6 12.5l-9 14
c-2 3 -11 8 -27 15s-24 12.5 -24 16.5l3 6c0 5.33301 -3 8 -9 8h-22c6.66699 36.667 16.834 64.334 30.501 83.001s34.834 38.667 63.501 60c16.667 13.333 33.667 30.333 51 51c15.333 19.333 31.333 43 48 71c14.667 24.667 31.667 55 51 91l55 108
c14.667 18.667 34.334 45.334 59.001 80.001l107 183l138 247c60 111.333 119 227 177 347l-14 14c-176 -5.33301 -272.333 -8 -289 -8l-10 -117c-3.33301 -37.333 -6.16602 -63.5 -8.49902 -78.5s-9 -32.667 -20 -53s-21.667 -38.5 -32 -54.5s-32.833 -36 -67.5 -60
s-65 -42.5 -91 -55.5s-49.667 -22.667 -71 -29s-40 -9.5 -56 -9.5c-50 0 -86.5 15.167 -109.5 45.5s-34.5 79.5 -34.5 147.5c0 28.667 2.33301 56 7 82c4 22.667 10.333 46.334 19 71.001l20 60c4.66699 14 14.667 31.667 30 53c14 21.333 28.667 40.333 44 57
c16 17.333 32.667 32.333 50 45l43 32c9.33301 8 18.666 13.333 27.999 16s22 4 38 4zM327.994 880.994c4.66699 -1.33301 13.3301 -1.99902 25.9971 -1.99902c54 0 99 23 135 69s54 103.333 54 172c0 42 -8.33301 80.333 -25 115h-31c-21.333 19.333 -45 33.666 -71 42.999
l-15 -14c-46.667 0 -78.667 -2.83301 -96 -8.5s-35.666 -34 -54.999 -85s-29 -98.5 -29 -142.5c0 -30 5.83301 -58.333 17.5 -85s31.834 -40 60.501 -40c8.66699 0 18.334 -7.33301 29.001 -22zM818.99 497.995c30 38 50 56.9971 60 56.9971
c6.66699 2.66699 22.5 9.83398 47.5 21.501s49.833 17.5 74.5 17.5c53.333 0 96.833 -26 130.5 -78s50.5 -121 50.5 -207c0 -70.667 -16 -131.167 -48 -181.5s-69 -86.833 -111 -109.5c-24.667 -13.333 -42.667 -31.666 -54 -54.999c-10 0 -18.333 -1.33301 -25 -4
s-10.667 -4 -12 -4s-3.16602 1.66699 -5.49902 5l-6.5 9c-24.667 -4 -43.334 -6 -56.001 -6c-11.333 0 -24.333 2 -39 6c-8.66699 5.33301 -24.5 13.666 -47.5 24.999s-42.5 23.833 -58.5 37.5s-28.833 36.334 -38.5 68.001s-14.5 62.834 -14.5 93.501
c0 96 44.333 197.667 133 305h20zM972.99 46.9922c20 0 44.499 23.333 73.499 70s43.5 102.667 43.5 168c0 61.333 -13.5 113.5 -40.5 156.5s-57.5 64.5 -91.5 64.5c-41.333 0 -83.666 -23.167 -126.999 -69.5s-65 -105.166 -65 -176.499
c0 -28.667 5.16699 -56.334 15.5 -83.001s21.5 -47.667 33.5 -63s27.167 -27.333 45.5 -36s37.833 -15 58.5 -19z" />
    <glyph glyph-name="ampersand" unicode="&#x26;" horiz-adv-x="1513" 
d="M1452 799c-12 -31.333 -47.3408 -44.3398 -106.008 -39.0068c-18 1.33301 -31.667 2 -41 2c-7.33301 0 -11 -4 -11 -12c-1.33301 -1.33301 -3.33301 -2 -6 -2c-2 0 -4.66699 1.33301 -8 4s-6 4 -8 4l-4 -2c-6.66699 -3.33301 -12.334 -17 -17.001 -41
c-2.66699 -13.333 -5 -24 -7 -32c-4 -14.667 -8.33301 -28.667 -13 -42c-6.66699 -16 -14.667 -32.333 -24 -49c-10 -18.667 -22.333 -37.667 -37 -57c-9.33301 -12.667 -14.666 -25 -15.999 -37c-1.33301 -9.33301 -2.33301 -17.666 -3 -24.999
c0 -8 -9.66699 -29.333 -29 -64l-46 -77c-11.333 -19.333 -23.5 -37.666 -36.5 -54.999s-19.5 -33.333 -19.5 -48c0 -27.333 22.833 -61.166 68.5 -101.499s107.5 -77.5 185.5 -111.5c26 -18 39 -37.667 39 -59c0 -8.66699 -8.5 -29 -25.5 -61s-28.167 -51 -33.5 -57
s-11 -9 -17 -9c-15.333 0 -39.333 12.333 -72 37c-10 38 -55.167 84 -135.5 138s-130.5 81 -150.5 81c-9.33301 0 -19.666 -3.33301 -30.999 -10c-68 -38 -134.667 -67.333 -200 -88s-118.333 -31 -159 -31c-19.333 0 -46 3.66699 -80 11s-59 11.666 -75 12.999
s-38.333 11.833 -67 31.5s-52.667 40.5 -72 62.5s-36 46 -50 72s-24.667 53.333 -32 82s-11 57.334 -11 86.001c0 18.667 0.833008 36.334 2.5 53.001s4.33398 32.834 8.00098 48.501s8.83398 31.167 15.501 46.5l19 45v37c11.333 26.667 25.333 48.334 42 65.001
s32.334 34.334 47.001 53.001s47.334 54.334 98.001 107.001h22c8.66699 12 13 23.667 13 35c0 9.33301 -1.33301 16.666 -4 21.999l14 9c-19.333 65.333 -29 119 -29 161c0 31.333 3.16699 60.333 9.5 87s15.833 51 28.5 73s28.334 42 47.001 60l56 52
c18 17.333 36.333 29.666 55 36.999s38 11 58 11h6c49.333 24.667 89 37 119 37c6.66699 0 28.5 -2 65.5 -6s63.667 -20 80 -48s24.5 -60 24.5 -96c0 -138.667 -120.667 -264.334 -362 -377.001c-7.33301 -8 -11 -18.667 -11 -32c0 -11.333 1.33301 -19.666 4 -24.999
c34 -69.333 79 -141.666 135 -216.999s107.667 -134.833 155 -178.5s92 -75.834 134 -96.501c12 16 25.833 31 41.5 45s34.834 51.667 57.501 113s38.5 114.833 47.5 160.5s13.5 80.834 13.5 105.501v23c-7.33301 31.333 -24.333 47 -51 47l-102 2
c-26 0 -54.667 -1.66699 -86 -5l-35 -5c-64.667 0 -97 8.66699 -97 26c0 13.333 13.333 26 40 38s61.334 18 104.001 18c21.333 0 49.5 -2.16699 84.5 -6.5s59.167 -6.5 72.5 -6.5c42 0 71.833 4.16699 89.5 12.5s27.5 12.5 29.5 12.5h2c12 7.33301 19 17 21 29h8
c8.66699 0 18.334 3.66699 29.001 11s18 11 22 11c13.333 0 25.333 -10.833 36 -32.5s19.667 -34.667 27 -39s17 -5.33301 29 -3s21 3.5 27 3.5h4c4 -4.66699 7.33301 -7 10 -7c2 0 4.5 2.83301 7.5 8.5s6.83301 9.83398 11.5 12.501c15.333 -6.66699 24.666 -10 27.999 -10
c14 -4.66699 23 -18.334 27 -41.001zM534.992 873.993c28 0 78.333 29 151 87s109 120.667 109 188c0 30.667 -6.66699 54 -20 70s-26.5 29.833 -39.5 41.5s-30.167 17.5 -51.5 17.5c-29.333 0 -54 -2.66699 -74 -8c-40.667 -27.333 -72.667 -45 -96 -53
c-18 -10 -33.833 -34.5 -47.5 -73.5s-20.5 -73.5 -20.5 -103.5c0 -20 3 -46.833 9 -80.5s12.667 -55.5 20 -65.5s23 -15.667 47 -17zM550.992 52.9932c12.667 -0.666992 22.8311 -3.16699 30.498 -7.5s11.834 -6.5 12.501 -6.5c24.667 0 67.5 11.667 128.5 35
s95.833 38.5 104.5 45.5s13 15.5 13 25.5c0 10.667 -4.83301 23.5 -14.5 38.5s-36.334 44.167 -80.001 87.5l-100.5 102c-14 28.667 -42 67.5 -84 116.5s-69.333 88.5 -82 118.5c-21.333 40.667 -33.666 62.167 -36.999 64.5s-11 9.33301 -23 21s-22 17.5 -30 17.5
c-34.667 0 -73 -38.833 -115 -116.5s-63 -153.5 -63 -227.5c0 -36 5.5 -71.167 16.5 -105.5s27 -66.5 48 -96.5s43.833 -50.667 68.5 -62l83 -39c30.667 -14 56.334 -21 77.001 -21c19.333 0 35 3.33301 47 10z" />
    <glyph glyph-name="quotesingle" unicode="'" horiz-adv-x="512" 
d="M213 854c-5.33301 10.667 -8 18.3301 -8 22.9971c0 9.33301 16.167 50.833 48.5 124.5s57.833 128.834 76.5 165.501s36.167 74.334 52.5 113.001s34.5 69.834 54.5 93.501s50.333 35.5 91 35.5c11.333 0 17 -4 17 -12c0 -1.33301 -1.33301 -9 -4 -23
c-168 -309.333 -252 -468.333 -252 -477c-19.333 -31.333 -39.333 -47 -60 -47c-2.66699 0 -8 1.33301 -16 4z" />
    <glyph glyph-name="parenleft" unicode="(" horiz-adv-x="881" 
d="M369 1227c92.667 83.333 176.335 146.498 251.002 189.498s125.334 64.5 152.001 64.5c31.333 0 47 -9 47 -27c0 -5.33301 -0.666992 -9.33301 -2 -12c-48 -28 -96.333 -47.333 -145 -58c-74.667 -29.333 -146.334 -83.5 -215.001 -162.5
s-120.334 -169.5 -155.001 -271.5s-52 -186 -52 -252c0 -315.333 99.667 -538.333 299 -669h29c25.333 -20 38 -40 38 -60c0 -27.333 -12.5 -47.5 -37.5 -60.5s-48.5 -19.5 -70.5 -19.5c-13.333 0 -26.333 3 -39 9c-2.66699 3.33301 -6.33398 10 -11.001 20
s-10 17.667 -16 23c-26 6.66699 -52.5 26 -79.5 58s-59 74.333 -96 127s-59.333 95 -67 127s-15.5 58.333 -23.5 79c-20.667 61.333 -31 162.333 -31 303c0 36 5.33301 82.667 16 140l30 129c2 10.667 4.83301 26.834 8.5 48.501s24.167 59.834 61.5 114.501
s73.333 99.667 108 135v25z" />
    <glyph glyph-name="parenright" unicode=")" horiz-adv-x="881" 
d="M254 1493l2.00098 0.00195312c7.33301 0 14.666 4.16699 21.999 12.5s13.666 12.5 18.999 12.5c16 0 67.333 -45.833 154 -137.5s145.167 -198.334 175.5 -320.001s45.5 -204.834 45.5 -249.501c0 -68 -24.167 -191.333 -72.5 -370s-134.833 -342.667 -259.5 -492
c-4 -8 -6 -18.333 -6 -31v-12c-41.333 -8 -68 -25 -80 -51c-5.33301 -1.33301 -13 -2 -23 -2c-31.333 0 -47 15 -47 45c0 6.66699 3.83301 14 11.5 22s14.834 21.167 21.501 39.5s12 31.166 16 38.499c3.33301 -8 8.33301 -12 15 -12c5.33301 0 16 11.333 32 34
s40.667 44.667 74 66c34 42.667 75 133.834 123 273.501s72 241.834 72 306.501v6c5.33301 45.333 8 79.333 8 102c0 56.667 -9.66699 120 -29 190s-45 136.5 -77 199.5s-64.833 111 -98.5 144s-65.5 52.167 -95.5 57.5s-45.833 9.16602 -47.5 11.499s-2.5 11.833 -2.5 28.5
c0 2.66699 1.33301 11 4 25c28.667 28.667 43 47.667 43 57v6z" />
    <glyph glyph-name="asterisk" unicode="*" horiz-adv-x="686" 
d="M545 1333c6.66699 -11.333 10 -20.666 10 -27.999c0 -20.667 -13.667 -43.5 -41 -68.5s-60 -41.167 -98 -48.5c-18 -6 -27 -13.667 -27 -23c0 -6 15.167 -13.333 45.5 -22s64.5 -13 102.5 -13h18c11.333 0 20.333 -9.33301 27 -28l2 -6
c0 -11.333 -7.16699 -22.333 -21.5 -33s-29.166 -16 -44.499 -16c-28.667 0 -78.334 29.333 -149.001 88c-7.33301 -6.66699 -11 -14.334 -11 -23.001c0 -13.333 6.16699 -32.5 18.5 -57.5s18.5 -42.833 18.5 -53.5l-4 -16l2 -33c0 -24 -8.66699 -40.333 -26 -49h-21
c-26 18 -39 41.333 -39 70c0 13.333 1.66699 32.166 5 56.499s5 41.5 5 51.5c0 8.66699 -1.33301 18.334 -4 29.001c-16 -11.333 -39.833 -40.166 -71.5 -86.499s-64.5 -69.5 -98.5 -69.5c-2.66699 0 -7.33398 2.83301 -14.001 8.5s-10 13.834 -10 24.501
c0 15.333 6.83301 29.666 20.5 42.999s40.334 32.833 80.001 58.5s59.5 44.5 59.5 56.5c0 10 -29.5 32.333 -88.5 67s-88.5 62.667 -88.5 84c0 4.66699 4.83301 13.667 14.5 27s22.167 20 37.5 20c22 0 45.5 -21.5 70.5 -64.5s45.833 -64.5 62.5 -64.5
c9.33301 0 16 4.5 20 13.5s6 15.5 6 19.5l-2 64c0 62.667 20.667 94 62 94h12c24.667 0 37 -9.66699 37 -29c0 -8.66699 -8.5 -27.834 -25.5 -57.501s-25.5 -55.5 -25.5 -77.5c0 -10 0.666992 -17.333 2 -22c28 10 59.167 31.5 93.5 64.5s58.5 49.5 72.5 49.5h6z" />
    <glyph glyph-name="plus" unicode="+" 
d="M874 756c15.333 -17.333 23 -33.6641 23 -48.9971c0 -16 -6.33301 -28.5 -19 -37.5s-19.334 -18.5 -20.001 -28.5c-7.33301 0 -18 -4.83301 -32 -14.5s-22.333 -14.5 -25 -14.5c-6 0 -25.167 4.16699 -57.5 12.5s-70.5 12.5 -114.5 12.5h-43l-11 2
c-8.66699 0 -14.834 -5.33301 -18.501 -16s-5.5 -36.667 -5.5 -78c0 -32.667 4.5 -68.334 13.5 -107.001s13.5 -62.334 13.5 -71.001c0 -2 -5.16699 -10.333 -15.5 -25s-15.5 -26.334 -15.5 -35.001c-9.33301 0 -18.5 -6.16699 -27.5 -18.5s-21.167 -18.5 -36.5 -18.5
c-14.667 0 -31.667 7 -51 21l2 14l-2 49c0 17.333 4.66699 32.333 14 45c-4 32 -6 55.333 -6 70c0 11.333 1.66699 22.666 5 33.999l6 15l4 109l-217 -4c-42.667 -19.333 -68.667 -29 -78 -29c-5.33301 0 -12.166 4.66699 -20.499 14s-12.5 17.666 -12.5 24.999l2 6
c8 7.33301 20.333 21.166 37 41.499s29.834 33.5 39.501 39.5s24.834 8 45.501 6s36 -3 46 -3h14l8 14c8.66699 -6.66699 24 -10 46 -10l47 2l14 -2c14 0 23.667 4.83301 29 14.5s8 30.167 8 61.5c0 21.333 -3.33301 36.333 -10 45v33c4 15.333 7.33301 32.333 10 51
c-9.33301 22.667 -14 40.334 -14 53.001c0 30 17 45 51 45c13.333 0 26.333 -2 39 -6c16 8 26.667 12 32 12c2 0 5.66699 -1.33301 11 -4c1.33301 -4 2 -8.66699 2 -14c0 -22.667 -3.83301 -48.667 -11.5 -78s-11.5 -56.666 -11.5 -81.999l2 -72v-30
c0 -11.333 2.83301 -18.666 8.5 -21.999s17.667 -5.5 36 -6.5s30.166 -1.83301 35.499 -2.5l6 14c32.667 -9.33301 56 -14 70 -14c57.333 0 86 6 86 18l-2 7c3.33301 0 10.5 1.83301 21.5 5.5s20.167 6.5 27.5 8.5v-14l14 -9c5.33301 4 8 9 8 15z" />
    <glyph glyph-name="comma" unicode="," horiz-adv-x="512" 
d="M111 -266c-6 8 -9 15.332 -9 21.999v6c15.333 74 38.166 158.667 68.499 254s52 147.833 65 157.5s26.5 14.5 40.5 14.5c18 0 33.167 -5.5 45.5 -16.5s18.5 -23.833 18.5 -38.5c0 -5.33301 -8.5 -28.166 -25.5 -68.499s-39.333 -81 -67 -122s-44.5 -77.167 -50.5 -108.5
c-6 -14 -14.333 -29 -25 -45s-18.667 -29.167 -24 -39.5s-17.666 -15.5 -36.999 -15.5z" />
    <glyph glyph-name="hyphen" unicode="-" horiz-adv-x="975" 
d="M850 522c14.667 -16.667 22.002 -32.998 22.002 -48.998c0 -15.333 -6.33301 -27.5 -19 -36.5s-19 -18.5 -19 -28.5c-8.66699 0 -19.834 -4.83301 -33.501 -14.5s-21.834 -14.5 -24.501 -14.5c-4 0 -10.667 1.33301 -20 4c-45.333 12 -103.333 18 -174 18
c-28 0 -66.5 -2 -115.5 -6s-84.5 -6 -106.5 -6l-94 2c-23.333 0 -41 -0.666992 -53 -2c-44 -19.333 -70 -29 -78 -29c-5.33301 0 -12.166 4.66699 -20.499 14s-12.5 17.666 -12.5 24.999l2 7c8 7.33301 20.5 21.166 37.5 41.499s30 33.333 39 39s23.833 7.5 44.5 5.5
s36.334 -3 47.001 -3h15l8 15c18 -8 35 -12 51 -12c5.33301 0 13.166 0.666992 23.499 2s18.166 2 23.499 2l51 -2l74 2c14.667 0 48 -1.33301 100 -4l7 14c32.667 -9.33301 55.667 -14 69 -14c57.333 0 86 6 86 18l-2 6h2c6 0 21.667 4.66699 47 14v-14
c0 -5.33301 5 -8 15 -8z" />
    <glyph glyph-name="period" unicode="." horiz-adv-x="512" 
d="M262 221c15.333 -2 25.832 -12.498 31.499 -31.498s14.167 -36.833 25.5 -53.5s17 -29.334 17 -38.001c0 -26 -7.66699 -49.667 -23 -71h-4c-4 0 -7.33301 2.66699 -10 8c-24 -8 -43 -22.333 -57 -43c-13.333 10 -25.666 16.667 -36.999 20
c-5.33301 19.333 -8 42.666 -8 69.999c0 10 -3.83301 20.5 -11.5 31.5s-11.5 19.5 -11.5 25.5v4c2 2.66699 6 9 12 19s9.66699 15.333 11 16z" />
    <glyph glyph-name="slash" unicode="../../../../default.htm" horiz-adv-x="985" 
d="M942 1432c0 -16 -8.16602 -37.3291 -24.499 -63.9961s-27.833 -43.667 -34.5 -51c-2 -2 -4.66699 -9.33301 -8 -22l-10 -52l-112 -201c-11.333 -22 -18 -34.667 -20 -38l-39 -91l-164 -301l-140 -247c-48 -86 -81.667 -150 -101 -192
c-24.667 -53.333 -37 -93.333 -37 -120v-4h-6c-9.33301 0 -19.333 -13 -30 -39c-16.667 -42.667 -32.834 -72 -48.501 -88s-34.5 -24 -56.5 -24c-46.667 0 -70 11.333 -70 34c0 6 0.666992 10.333 2 13c20 13.333 30.833 29.5 32.5 48.5s10.334 35.833 26.001 50.5
s28.5 29.167 38.5 43.5s28.833 51.5 56.5 111.5s46.167 97.333 55.5 112c7.33301 4.66699 14.166 11.167 20.499 19.5s12.333 18.166 18 29.499s10.834 24.333 15.501 39c4 12 10.5 25 19.5 39l35.5 56l49 79v29c42 72.667 83.667 138.334 125 197.001v24
c16.667 16.667 27.667 32.167 33 46.5s15 33.666 29 57.999s21 42.166 21 53.499c0 7.33301 -2 14 -6 20c5.33301 4 16.166 19.167 32.499 45.5s24.5 41.666 24.5 45.999s7 22.166 21 53.499c13.333 29.333 24.5 56.5 33.5 81.5s16.167 54.167 21.5 87.5
c0 1.33301 9.33301 15.333 28 42l39.5 55.5c7.66699 10.333 24.5 24.5 50.5 42.5c1.33301 0.666992 5 1 11 1c7.33301 0 30 -4.66699 68 -14v-10z" />
    <glyph glyph-name="zero" unicode="0" horiz-adv-x="1360" 
d="M684 2c-79.333 -12 -135.331 -18 -167.998 -18c-10.667 0 -27.5 2.33301 -50.5 7s-45.833 8.33398 -68.5 11.001c-20 2.66699 -33.333 6 -40 10c-12 6.66699 -23.667 15.334 -35 26.001c-26.667 24.667 -41 37.667 -43 39c-25.333 16 -48.333 35.667 -69 59
c-20.667 24.667 -39 52.667 -55 84c-16 32 -29.667 67.667 -41 107c-11.333 40 -19.666 83 -24.999 129c-6 47.333 -9 97.333 -9 150c0 54 4 106 12 156c8 48.667 19.667 96 35 142c13.333 38.667 24.666 68.334 33.999 89.001l74 152c13.333 28.667 37.666 59 72.999 91
c10.667 9.33301 37.667 30 81 62c23.333 17.333 51.666 29.666 84.999 36.999l70 19c86 16 150.333 24 193 24c14.667 0 29.334 -1 44.001 -3l18 -3l45 2c48.667 0 95.834 -10.333 141.501 -31s87.334 -52.334 125.001 -95.001s66.834 -90.167 87.501 -142.5l46 -119
c10 -27 18.167 -57 24.5 -90s9.5 -67.5 9.5 -103.5c0 -26 -1.83301 -54.333 -5.5 -85s-8.83398 -64 -15.501 -100s-15 -76 -25 -120c-4.66699 -20.667 -17 -49.667 -37 -87s-36 -64.333 -48 -81l-49 -57c-31.333 -40 -57.833 -71.833 -79.5 -95.5s-40.5 -40.5 -56.5 -50.5
s-35.833 -23.667 -59.5 -41s-41.334 -27.333 -53.001 -30s-31.334 -10.334 -59.001 -23.001s-44.167 -19 -49.5 -19c-2 0 -6 7 -12 21c-18.667 -3.33301 -32.334 -5 -41.001 -5zM602.002 1294c-13.333 -2.66699 -31.998 -5.66504 -55.998 -8.99805
c-31.333 -4.66699 -53.333 -9.66699 -66 -15c-11.333 -4 -33.333 -18 -66 -42c-26 -18.667 -45.667 -37.334 -59 -56.001c-16.667 -23.333 -31 -46 -43 -68c-14 -25.333 -24.333 -50 -31 -74c-9.33301 -37.333 -19 -70.333 -29 -99c-14.667 -44 -26 -89.667 -34 -137
c-7.33301 -47.333 -11 -96.333 -11 -147c0 -194.667 41.333 -337.5 124 -428.5s171 -136.5 265 -136.5c20 0 45 6.5 75 19.5s51.333 19.5 64 19.5c1.33301 0 9.16602 -1.33301 23.499 -4s22.166 -4 23.499 -4c31.333 0 79.5 23 144.5 69s117 120.667 156 224
s58.5 211.666 58.5 324.999c0 160.667 -40.333 294.667 -121 402s-177.667 161 -291 161h-127z" />
    <glyph glyph-name="one" unicode="1" horiz-adv-x="770" 
d="M602 1436c0 -11.333 -7.16211 -21.8311 -21.4951 -31.498s-24.5 -18.5 -30.5 -26.5s-14 -34.333 -24 -79s-19.333 -107.5 -28 -188.5s-13 -174.167 -13 -279.5l4 -253l-2 -62l5 -92c0 -17.333 -1.83301 -39.333 -5.5 -66s-5.5 -45 -5.5 -55
c0 -44.667 13 -114.334 39 -209.001c-5.33301 -10.667 -10.666 -17.334 -15.999 -20.001c21.333 -14.667 30.666 -27.334 27.999 -38.001s-4 -18 -4 -22v-6c-28.667 -5.33301 -52.334 -8 -71.001 -8l-78 4c-8 0 -21 -1.33301 -39 -4
c-0.666992 4 -2.83398 9.83301 -6.50098 17.5s-5.5 14.167 -5.5 19.5c0 2.66699 2 12.334 6 29.001c31.333 119.333 47 249.666 47 390.999l-8 448c0 44.667 1 93.667 3 147l3 68c0 4 -3.16699 15 -9.5 33s-15.5 27 -27.5 27c-3.33301 0 -12.5 -3.83301 -27.5 -11.5
s-29.167 -20.5 -42.5 -38.5v-16c-7.33301 0 -16.666 -3.33301 -27.999 -10c-2 -10 -13.667 -24.333 -35 -43s-36.333 -46 -45 -82l-27 8c-7.33301 0 -19.333 -4.33301 -36 -13s-29.334 -13 -38.001 -13l-10 2c-4 -4 -6.83301 -7.83301 -8.5 -11.5
s-2.83398 -5.5 -3.50098 -5.5c-1.33301 0 -5.83301 7.66699 -13.5 23s-11.5 27.666 -11.5 36.999c0 6.66699 1.33301 12 4 16c32.667 16 55.334 35.667 68.001 59c1.33301 6.66699 3.33301 14.834 6 24.501s4 15.834 4 18.501l-2 6c21.333 8.66699 35.666 13 42.999 13
c3.33301 0 11.666 -1.33301 24.999 -4c1.33301 -1.33301 2.66602 -2 3.99902 -2c2 0 6.66699 3 14 9s25.5 17.167 54.5 33.5s49.167 30.166 60.5 41.499c96 118.667 148 178 156 178c4.66699 0 8 -4.33301 10 -13c28.667 36.667 73 59.334 133 68.001l6 -16v-2z" />
    <glyph glyph-name="two" unicode="2" horiz-adv-x="1149" 
d="M1044 174c2 -6.66699 2.99219 -15.665 2.99219 -26.998c0 -15.333 -6.5 -38.5 -19.5 -69.5s-19.5 -50.833 -19.5 -59.5v-10c0 -2.66699 -0.666992 -4 -2 -4c-3.33301 0 -10.333 3 -21 9s-21.667 10 -33 12c-6.66699 5.33301 -12 10.666 -16 15.999
c-4 -8.66699 -12 -11.667 -24 -9s-23.667 6.5 -35 11.5s-38.166 8.83301 -80.499 11.5s-86.5 4 -132.5 4c-72.667 0 -149.5 -4.33301 -230.5 -13s-149.833 -18.834 -206.5 -30.501s-92 -21.5 -106 -29.5c-5.33301 -1.33301 -13 -2 -23 -2
c-21.333 0 -38.166 10.5 -50.499 31.5s-18.5 34.833 -18.5 41.5c0 9.33301 3.66699 18.833 11 28.5s25 23.834 53 42.501l57 38c6 10.667 24.667 17.667 56 21s54.666 6.66602 69.999 9.99902c-2.66699 33.333 -4 51.666 -4 54.999c0 5.33301 0.666992 8.66602 2 9.99902h7
c4.66699 0 7.16699 -5 7.5 -15s3.16602 -17.333 8.49902 -22c154.667 105.333 285.834 226.833 393.501 364.5s161.5 264.167 161.5 379.5v4l4 67c0 20.667 -3.16699 41.334 -9.5 62.001s-15.666 40.667 -27.999 60s-27.166 37.666 -44.499 54.999
s-37.166 32.833 -59.499 46.5s-42.166 23.667 -59.499 30s-78.666 9.5 -183.999 9.5c-11.333 0 -23.833 -3.83301 -37.5 -11.5s-23.834 -11.5 -30.501 -11.5h-8c-68.667 -34.667 -103.334 -63.334 -104.001 -86.001c-10 -7.33301 -16.333 -12.666 -19 -15.999
c-3.33301 2.66699 -11.333 4 -24 4c-12 0 -21 -9.66699 -27 -29c-2.66699 -1.33301 -6 -2 -10 -2c-13.333 0 -25.166 8 -35.499 24s-15.5 36 -15.5 60c0 30.667 10.167 51.5 30.5 62.5s55.333 20.667 105 29s100.334 21.5 152.001 39.5s110.167 27 175.5 27
c23.333 0 40 -1.83301 50 -5.5s19.667 -5.5 29 -5.5h23c60.667 0 117.834 -28.5 171.501 -85.5s80.5 -130.833 80.5 -221.5c0 -128.667 -51.5 -265.667 -154.5 -411s-260.5 -304.666 -472.5 -477.999c1.33301 -2.66699 2 -6 2 -10c0 -3.33301 -0.666992 -7.66602 -2 -12.999
s-2 -9 -2 -11c0 -16 8.33301 -22 25 -18l428 18l49 -5c24.667 0 41.5 3.16699 50.5 9.5s16.833 9.5 23.5 9.5l20 -2c2.66699 0 6 3.33301 10 10c20.667 8 36.334 12 47.001 12s25 -4 43 -12z" />
    <glyph glyph-name="three" unicode="3" horiz-adv-x="993" 
d="M934 1325c0 -18 -36.335 -50.6689 -109.002 -98.002c-8 -4 -14.667 -14.667 -20 -32s-13.333 -30 -24 -38c-23.333 -16 -44.666 -35 -63.999 -57c-88.667 -98.667 -186 -185 -292 -259c-22.667 -16 -34 -25.333 -34 -28c0 -3.33301 4.33301 -7.16602 13 -11.499
s15.334 -7.83301 20.001 -10.5c21.333 2.66699 37.666 4 48.999 4c36 0 93.5 -15.167 172.5 -45.5s138 -74.333 177 -132s58.5 -130.5 58.5 -218.5c0 -77.333 -40.5 -162.5 -121.5 -255.5s-199.833 -139.5 -356.5 -139.5l-112 6c-16 0 -31.667 -4.66699 -47 -14
c-7.33301 -1.33301 -20.333 -2 -39 -2c-36.667 0 -77.667 6 -123 18c-15.333 16.667 -23 43.334 -23 80.001c0 6 2.16699 16.333 6.5 31s11.833 22 22.5 22c2 0 6.66699 -1.33301 14 -4l-2 -2c0 -4 6 -5 18 -3s21.667 3 29 3c4 0 10 -1.33301 18 -4s14.333 -4 19 -4
c22 0 37 -2 45 -6c66 -32.667 136.333 -49 211 -49c80.667 0 140 8 178 24s70.167 51.667 96.5 107s39.5 116 39.5 182c0 94.667 -31.333 167.167 -94 217.5s-153.667 75.5 -273 75.5c-32.667 0 -51 -0.666992 -55 -2l-78 -25c-17.333 -16.667 -34.333 -29 -51 -37
c0 14 -3.33301 22.333 -10 25l-7 -16c-22.667 14.667 -34 31.667 -34 51c0 16.667 7.33301 36.334 22 59.001s32.334 35.667 53.001 39c11.333 26.667 39.333 45 84 55c120 72 214.833 144.167 284.5 216.5s104.5 126.5 104.5 162.5c0 42.667 -42.333 64 -127 64
c-96 0 -188.5 -11 -277.5 -33s-136.167 -33 -141.5 -33c-12 0 -22.5 7.5 -31.5 22.5s-13.5 34.167 -13.5 57.5c0 47.333 21.667 71.333 65 72c-0.666992 -7.33301 15.833 -11.333 49.5 -12s65.334 -2.66699 95.001 -6s63.5 -5 101.5 -5c93.333 0 184.666 5 273.999 15
c6 22.667 17 34 33 34c6.66699 0 12.667 -6.66699 18 -20c34 23.333 62.667 35 86 35c18 0 39.667 -5.33301 65 -16s38 -27.334 38 -50.001v-10z" />
    <glyph glyph-name="four" unicode="4" horiz-adv-x="1167" 
d="M1090 416c10.667 -12.667 15.9941 -26.9961 15.9941 -42.9961c0 -10 -9.5 -30.333 -28.5 -61s-33.5 -46 -43.5 -46c-6.66699 0 -12.667 2.66699 -18 8c-8.66699 -12 -18.334 -18 -29.001 -18l-14 2l-10 -2c-7.33301 0 -16.166 3.83301 -26.499 11.5
s-18.166 11.5 -23.499 11.5l-45 -3c-9.33301 0 -23 2.16699 -41 6.5s-28.667 6.5 -32 6.5l-7 -2h-8c-15.333 0 -26 -5.5 -32 -16.5s-9 -39.167 -9 -84.5c0 -80.667 13 -127 39 -139v-8c0 -32.667 -26 -49 -78 -49h-14c-2.66699 -1.33301 -7.33398 -2 -14.001 -2
c-5.33301 0 -13.166 1.16699 -23.499 3.5s-18.166 3.83301 -23.499 4.5v4c0 4.66699 4 31.667 12 81s13.333 108.333 16 177c-32.667 20.667 -66.667 31 -102 31c-15.333 0 -37.666 -1.66699 -66.999 -5s-51.333 -5 -66 -5h-10c-10 1.33301 -23.667 2 -41 2l-58 -7h-22
c-40 0 -67.333 -5.33301 -82 -16c-20.667 -4 -35.667 -6 -45 -6c-7.33301 0 -20.666 1 -39.999 3s-35.333 3 -48 3h-23c-2.66699 18 -4 35.667 -4 53c0 16 6.66699 37 20 63s32.666 53 57.999 81c129.333 179.333 231.5 327.166 306.5 443.499
s165.167 278.166 270.5 485.499c2.66699 5.33301 8.5 7 17.5 5s18.167 -3.66699 27.5 -5c8.66699 5.33301 13.334 14.833 14.001 28.5s3 22.834 7 27.501l-2 -8c0 -4.66699 4.5 -10 13.5 -16l19.5 -13c6 8 14.667 12 26 12c24.667 -22 37 -39 37 -51
c0 -2.66699 -1.33301 -6.66699 -4 -12c-46 -38 -102 -103.333 -168 -196l-223 -313c-82 -116 -147.167 -214.5 -195.5 -295.5s-72.5 -132.5 -72.5 -154.5c0 -5.33301 2.66699 -10.5 8 -15.5s11.833 -6.33301 19.5 -4s13.5 3.5 17.5 3.5c4.66699 0 12 -4 22 -12l21 24
c7.33301 -2 14.333 -6.5 21 -13.5s11 -10.5 13 -10.5l73 8c22.667 2 52.834 3.16699 90.501 3.5s68.167 1.16602 91.5 2.49902s47 4.66602 71 9.99902c22 31.333 33 98.333 33 201c0 40.667 -3.16699 84.667 -9.5 132s-9.5 77 -9.5 89c0 38.667 2.66699 63.5 8 74.5
s16.333 24.5 33 40.5c-9.33301 7.33301 -14 16.666 -14 27.999c35.333 -20 57.333 -30 66 -30c4 0 6.66699 0.666992 8 2c14 10 28.333 16 43 18l10 -26c-30 -176 -45 -312 -45 -408c0 -37.333 3.33301 -77.666 10 -120.999c14 -2.66699 35.333 -4 64 -4l102 4
c40 0 63.333 7.66699 70 23c7.33301 -0.666992 17.833 -2.33398 31.5 -5.00098s22.834 -4 27.501 -4c5.33301 0 11 4.33301 17 13z" />
    <glyph glyph-name="five" unicode="5" horiz-adv-x="1026" 
d="M913 1358l-31.002 -96.002c-8.66699 -27.333 -24 -41 -46 -41h-9c-1.33301 6.66699 -9.33301 12.334 -24 17.001s-26.167 9.5 -34.5 14.5s-16.166 7.5 -23.499 7.5c-5.33301 0 -14.5 -1.66699 -27.5 -5s-23.5 -5.33301 -31.5 -6c-16 12.667 -38.667 19 -68 19l-28 -6
c-24 -4.66699 -47.333 -7 -70 -7l-129 5c-25.333 0 -55.333 -3 -90 -9c-30 -60 -45 -126 -45 -198c0 -2.66699 1.66699 -17.167 5 -43.5s5 -59.166 5 -98.499v-2c0 -5.33301 5.5 -11.333 16.5 -18s22.5 -10 34.5 -10l97 2c150 0 263.833 -32.5 341.5 -97.5
s116.5 -159.5 116.5 -283.5c0 -146.667 -44 -268 -132 -364s-222.667 -144 -404 -144c-47.333 0 -87.5 3.66699 -120.5 11s-50.833 11 -53.5 11c-2 0 -7 -1.33301 -15 -4c-34 26 -51 49.333 -51 70c0 10.667 6.83301 29 20.5 55s43.834 43 90.501 51
c5.33301 -8 13 -15.833 23 -23.5s15.333 -13.5 16 -17.5c5.33301 -1.33301 15.5 -6.66602 30.5 -15.999s24.5 -14 28.5 -14l8 2c9.33301 0 18.833 -4.16699 28.5 -12.5s17.5 -12.5 23.5 -12.5h6c21.333 -5.33301 50.666 -8 87.999 -8c112 0 193.5 34.833 244.5 104.5
s76.5 150.167 76.5 241.5c0 112 -31.5 199.333 -94.5 262s-150.833 94 -263.5 94c-51.333 0 -108.166 -10.833 -170.499 -32.5s-105.166 -32.5 -128.499 -32.5c0 20 5.83301 47.5 17.5 82.5s18.834 60.167 21.501 75.5c11.333 0 20.666 4.66699 27.999 14
c-8 -4 -13.333 -6 -16 -6c-5.33301 0 -8 3.33301 -8 10c0 5.33301 2.66699 19 8 41c19.333 82 29 158.333 29 229l-6 52l2 30c0 10.667 -1 24.5 -3 41.5s-3 28.5 -3 34.5c0 18.667 6 36.334 18 53.001s24.333 25 37 25c5.33301 0 11.5 -3.83301 18.5 -11.5
s12.5 -12.834 16.5 -15.501s30.667 -7.33398 80 -14.001s108.666 -10 177.999 -10c39.333 0 96 2.66699 170 8s112.667 12 116 20h13l41 2c18 0 28.667 -8.66699 32 -26z" />
    <glyph glyph-name="six" unicode="6" horiz-adv-x="1014" 
d="M625 854c4.66699 -4.66699 15.3301 -14.3379 31.9971 -29.0049c78 -14 138.5 -51 181.5 -111s64.5 -137 64.5 -231c0 -31.333 -5 -63.666 -15 -96.999c-9.33301 -33.333 -23.666 -66.333 -42.999 -99c-19.333 -33.333 -43 -65 -71 -95c-28.667 -32 -61 -61 -97 -87
c-14.667 -11.333 -25.667 -18.333 -33 -21l-33 -14c-23.333 -16.667 -49.333 -31 -78 -43c-30.667 -12.667 -63.334 -22 -98.001 -28c-27.333 -4.66699 -46 -7 -56 -7l-66 8l-6 -2c-23.333 0 -55.833 11.5 -97.5 34.5s-78.5 64 -110.5 123s-48 124.5 -48 196.5
c0 45.333 11 115.166 33 209.499s52 171.5 90 231.5c-6.66699 8.66699 -10 17.334 -10 26.001c82.667 142.667 181.334 290.334 296.001 443.001c48 64.667 72 102.667 72 114c0 4.66699 -0.666992 7.33398 -2 8.00098c14.667 27.333 32.667 41 54 41h14c8 0 18 1.5 30 4.5
s20.333 4.5 25 4.5l49 -25h3c0 -3.33301 1.33301 -9.83301 4 -19.5s4 -17.5 4 -23.5c0 -7.33301 -9.5 -18.5 -28.5 -33.5s-29.5 -34.5 -31.5 -58.5l-22 -8v-17l-17 2c-38 0 -76.5 -27.5 -115.5 -82.5s-58.5 -93.5 -58.5 -115.5
c-1.33301 -3.33301 -6.16602 -7.16602 -14.499 -11.499s-14.833 -8.83301 -19.5 -13.5c-14 -41.333 -36 -80.333 -66 -117c6 -0.666992 10.5 -5.66699 13.5 -15s6.83301 -15.666 11.5 -18.999c30.667 -5.33301 75.834 -9.5 135.501 -12.5s101.167 -6.5 124.5 -10.5z
M466.996 87.9961c59.333 0 105.496 5.83887 138.496 17.5059s64.5 42.834 94.5 93.501s53 98.167 69 142.5s24 80.166 24 107.499s-5.66699 57.166 -17 89.499s-21.333 56.166 -30 71.499c-18 31.333 -28.667 50.666 -32 57.999c-9.33301 19.333 -25.666 36.5 -48.999 51.5
s-55.333 29.5 -96 43.5c-54 18.667 -91.333 28 -112 28s-38.667 -5 -54 -15c-37.333 -12.667 -72.666 -22.334 -105.999 -29.001s-63.833 -43.334 -91.5 -110.001s-41.5 -140.334 -41.5 -221.001l5 -60c1.33301 -18 5 -38.833 11 -62.5s14.333 -43.667 25 -60
s20.334 -29.833 29.001 -40.5l35 -35c12 -12 29 -24.667 51 -38s43.333 -22 64 -26s48.334 -6 83.001 -6z" />
    <glyph glyph-name="seven" unicode="7" horiz-adv-x="1036" 
d="M66 1341c15.333 24.667 42.335 37.0029 81.002 37.0029c14 0 33.333 -1.33301 58 -4c15.333 -9.33301 30.333 -14 45 -14l45 2c8.66699 0 23.5 -2.33301 44.5 -7s38.833 -7 53.5 -7l123 4l100 -2c103.333 0 174.5 8.83301 213.5 26.5s69.833 26.5 92.5 26.5
c5.33301 0 13.166 -0.666992 23.499 -2s18.166 -2 23.499 -2l12 2c13.333 0 20 -8.33301 20 -25c0 -7.33301 -4.66699 -18.333 -14 -33s-14 -25.334 -14 -32.001c0 -4.66699 0.666992 -8.33398 2 -11.001c-5.33301 -7.33301 -16.333 -12 -33 -14
c-22 -28.667 -49.667 -74 -83 -136l-302 -580c-22 -40 -58 -122.667 -108 -248l-64 -154c-10.667 -24.667 -18.334 -43 -23.001 -55c-5.33301 -14.667 -8 -25.667 -8 -33c0 -6 0.666992 -9.33301 2 -10c-5.33301 -18 -15.166 -38.667 -29.499 -62
s-21.5 -39.666 -21.5 -48.999v-4c-12.667 -27.333 -25 -41 -37 -41c-4.66699 0 -12.334 3 -23.001 9s-27.167 16.667 -49.5 32s-33.5 34.333 -33.5 57c0 27.333 13 59.666 39 96.999c20 20 45 59.333 75 118s84 156.167 162 292.5s167 308.5 267 516.5
c13.333 39.333 28.5 79.166 45.5 119.499s25.5 63.5 25.5 69.5c0 14.667 -4.66699 22 -14 22c-1.33301 0 -4.66602 -1.33301 -9.99902 -4c-68 26 -138.333 39 -211 39c-34.667 0 -72.167 -3.33301 -112.5 -10s-65.833 -10 -76.5 -10l-41 2c-24 0 -56 -7.66699 -96 -23
l-57 -22h-13c-29.333 0 -50.333 6.83301 -63 20.5s-19 37.5 -19 71.5z" />
    <glyph glyph-name="eight" unicode="8" horiz-adv-x="1090" 
d="M715 711c75.333 -18 118.831 -34.666 130.498 -49.999s28.5 -31 50.5 -47s41 -36.5 57 -61.5s24 -65.167 24 -120.5c0 -122.667 -44.333 -226.667 -133 -312s-199.334 -128 -332.001 -128c-2 0 -8.66699 1.33301 -20 4s-17.666 4 -18.999 4c-4 0 -8 -2 -12 -6
s-7.33301 -6 -10 -6c-109.333 0 -197.5 25.833 -264.5 77.5s-100.5 117.167 -100.5 196.5c0 86 15.667 152.333 47 199v20c65.333 95.333 136.333 157.666 213 186.999c-36.667 5.33301 -70.834 16.666 -102.501 33.999s-61.167 40.666 -88.5 69.999
c-40 42 -62 74.333 -66 97c-4.66699 30 -7 55.667 -7 77c0 127.333 45.333 232.166 136 314.499s199.667 123.5 327 123.5l41 -8c2.66699 0 6.33398 1.83301 11.001 5.5s9 6.16699 13 7.5l27 2c30.667 0 65.834 -6.5 105.501 -19.5l62.5 -20.5
c24 -6.66699 51.167 -24 81.5 -52s52.666 -56.833 66.999 -86.5s21.5 -60.5 21.5 -92.5c0 -19.333 -1.16699 -38.166 -3.5 -56.499s-5.66602 -36.166 -9.99902 -53.499s-9.5 -33.666 -15.5 -48.999l-20 -46v-20c-69.333 -102.667 -139.666 -164 -210.999 -184z
M673.998 774.001l8 -1.99707c22.667 0 56 25.167 100 75.5s66 124.833 66 223.5c0 78 -14.333 130.667 -43 158s-53.667 44.666 -75 51.999s-35.5 13.666 -42.5 18.999s-24 11.833 -51 19.5s-53.5 11.5 -79.5 11.5c-75.333 0 -127 -10 -155 -30c-4 -3.33301 -7 -5 -9 -5
c-0.666992 0 -1.83398 0.666992 -3.50098 2s-3.16699 2 -4.5 2c-56.667 -42 -98.167 -92.667 -124.5 -152s-39.5 -100 -39.5 -122c0 -104.667 13.333 -172.167 40 -202.5s58.5 -56.333 95.5 -78s82.167 -32.5 135.5 -32.5c56.667 0 98.5 7.5 125.5 22.5s42.5 22.5 46.5 22.5
h2c2.66699 1.33301 5.33398 6.66602 8.00098 15.999zM673.998 76.0039c51.333 28.667 93.833 74.834 127.5 138.501s50.5 124.5 50.5 182.5c0 44.667 -11.167 87.667 -33.5 129s-51.833 72.5 -88.5 93.5s-67 31.5 -91 31.5l-37 -4l-47 4c-30.667 0 -54.667 -4 -72 -12
c-2 2.66699 -4.66699 4 -8 4c-4.66699 0 -15 -3.5 -31 -10.5s-29.833 -10.833 -41.5 -11.5s-17.5 -6.33398 -17.5 -17.001c-38 0 -74.5 -30.5 -109.5 -91.5s-52.5 -121.833 -52.5 -182.5c0 -64.667 8 -114.5 24 -149.5s44.167 -67 84.5 -96s83.5 -43.5 129.5 -43.5l26 2h15
c31.333 0 60.5 2.33301 87.5 7s42.833 7 47.5 7c9.33301 14 19 21 29 21c4 0 6.66699 -0.666992 8 -2z" />
    <glyph glyph-name="nine" unicode="9" horiz-adv-x="1040" 
d="M631 559c-14 2.66699 -24.332 3.99512 -30.999 3.99512c-18.667 0 -45.667 -5.5 -81 -16.5s-62.333 -16.5 -81 -16.5c-10.667 0 -42.5 5.5 -95.5 16.5s-97.167 31.333 -132.5 61s-64.5 70 -87.5 121s-34.5 106.5 -34.5 166.5c0 35.333 3.33301 66.666 10 93.999l24 78
c8 34 16.667 57 26 69c39.333 48.667 68.666 83.334 87.999 104.001c28 30.667 52.667 52.667 74 66l69 34c22.667 14.667 47.667 26 75 34c28.667 8.66699 60.667 13.334 96 14.001l93 15c61.333 0 130 -29.667 206 -89s114 -164.333 114 -315
c0 -33.333 -4 -70.666 -12 -111.999c-8.66699 -51.333 -24 -103.333 -46 -156c-26 -64.667 -53 -125.334 -81 -182.001c-27.333 -54.667 -55.333 -105 -84 -151c-28 -45.333 -56 -86.333 -84 -123c-28 -35.333 -56 -66.333 -84 -93l-53 -66
c-9.33301 -10.667 -23 -23 -41 -37c-22 -16.667 -34 -32 -36 -46c-57.333 -79.333 -96 -125 -116 -137h-9c-10 0 -23.333 5.5 -40 16.5s-30.334 17.5 -41.001 19.5c-34.667 12 -52 28.667 -52 50c0 8 4.83301 17.333 14.5 28s38.167 31.667 85.5 63
c92.667 61.333 188 146.333 286 255s169.5 214.167 214.5 316.5s67.5 210.5 67.5 324.5c0 80.667 -12.833 147.334 -38.5 200.001s-65.167 91.5 -118.5 116.5s-104 37.5 -152 37.5c-24 0 -45 -1.66699 -63 -5c-19.333 -3.33301 -36.666 -8.66602 -51.999 -15.999l-57 -24
c-20.667 -8.66699 -40 -21 -58 -37s-34.333 -34.667 -49 -56c-14.667 -22 -27 -46.333 -37 -73c-10.667 -27.333 -18.667 -56.666 -24 -87.999c-5.33301 -32.667 -8 -66.667 -8 -102c0 -22.667 0.666992 -40 2 -52c10.667 -4 16 -10 16 -18v-14
c0 -17.333 6.16699 -37.666 18.5 -60.999s26 -44.333 41 -63s31.167 -34.5 48.5 -47.5s30.333 -19.5 39 -19.5h48c5.33301 0 8.33301 -4.33301 9 -13s3.66699 -13 9 -13l37 6c10 0 25.333 -1 46 -3s36.667 -3 48 -3h12c7.33301 8 15.333 15 24 21s21.334 9 38.001 9l16 4
c14 2.66699 24.667 5.5 32 8.5s11.666 4.5 12.999 4.5c3.33301 0 7 -2.33301 11 -7s6 -10 6 -16c0 -14.667 -11 -29 -33 -43c0 0.666992 -4.66699 2 -14 4c-18.667 -6 -29 -21.667 -31 -47z" />
    <glyph glyph-name="colon" unicode=":" horiz-adv-x="512" 
d="M258 727c15.333 -1.33301 25.833 -11.3311 31.5 -29.998s14.167 -36.334 25.5 -53.001s17 -31.334 17 -44.001c0 -20 -7.66699 -41.667 -23 -65h-4c-4 0 -7.33301 2.66699 -10 8c-26.667 -11.333 -45.667 -26.333 -57 -45c-16.667 10.667 -29 18 -37 22
c-5.33301 22 -8 45.333 -8 70c0 9.33301 -3.83301 19.333 -11.5 30s-11.5 19 -11.5 25v6c9.33301 11.333 17 23 23 35zM309 182.002c1.33301 -45.333 6.83301 -77.333 16.5 -96s14.5 -29 14.5 -31l-23 -39l-65 -41c-15.333 1.33301 -25.833 11.5 -31.5 30.5
s-14.167 36.5 -25.5 52.5s-17 30.667 -17 44c0 24.667 7.66699 46.667 23 66c8 0 12.667 -2.66699 14 -8c26.667 10 45.667 25 57 45c12 -10 24.333 -17.667 37 -23z" />
    <glyph glyph-name="semicolon" unicode=";" horiz-adv-x="512" 
d="M254 727c14.667 -1.33301 25.001 -11.501 31.001 -30.501s14.667 -36.5 26 -52.5s17 -30 17 -42c0 -21.333 -7.66699 -43.666 -23 -66.999h-4c-4.66699 0 -8 2.66699 -10 8c-26.667 -11.333 -46 -26.333 -58 -45c-8 6.66699 -20 14 -36 22c-6 22 -9 45.333 -9 70
c0 9.33301 -3.66699 19.333 -11 30s-11 19 -11 25v6c9.33301 11.333 16.666 23 21.999 35zM111.001 -266.001c-6 8 -9 15.332 -9 21.999v6c15.333 74 38.166 158.667 68.499 254s52 147.833 65 157.5s26.5 14.5 40.5 14.5c18 0 33.167 -5.5 45.5 -16.5
s18.5 -23.833 18.5 -38.5c0 -5.33301 -8.5 -28.166 -25.5 -68.499s-39.333 -81 -67 -122s-44.5 -77.167 -50.5 -108.5c-6 -14 -14.333 -29 -25 -45s-18.667 -29.167 -24 -39.5s-17.666 -15.5 -36.999 -15.5z" />
    <glyph glyph-name="less" unicode="&#x3c;" horiz-adv-x="614" 
d="M528 397c-2 -37.333 -14 -71.334 -36 -102.001l-15 10c-20 -6.66699 -35 -14 -45 -22h-6c-8 0 -15 6.66699 -21 20s-10.667 23 -14 29c-226.667 206 -340 328.667 -340 368c0 6 2 11 6 15c81.333 58.667 159.666 128 234.999 208s126.5 130.167 153.5 150.5
s49.833 30.5 68.5 30.5c5.33301 0 10 -6.33301 14 -19c-7.33301 -21.333 -19.666 -42.666 -36.999 -63.999s-57.5 -54.5 -120.5 -99.5s-109.5 -83.667 -139.5 -116s-45 -51.5 -45 -57.5v-3h2c5.33301 -36 20.5 -68.667 45.5 -98s58 -62 99 -98s70.5 -63.167 88.5 -81.5
s31.333 -27.5 40 -27.5c3.33301 0 8 1.5 14 4.5s10 4.5 12 4.5h5c11.333 -36 20.666 -54 27.999 -54c2.66699 0 5.33398 0.666992 8.00098 2z" />
    <glyph glyph-name="equal" unicode="=" 
d="M872 940c16.667 -16 24.999 -28.999 24.999 -38.999l-2 -6c-8 -7.33301 -22.5 -23.333 -43.5 -48s-36 -37.167 -45 -37.5s-21.5 0.166992 -37.5 1.5s-30 2 -42 2h-14l-8 -14c-22 9.33301 -43.167 13 -63.5 11s-40.166 -3 -59.499 -3l-101 -2
c-20.667 0 -54.667 1.33301 -102 4l-4 -12c-26.667 9.33301 -50.667 14 -72 14c-56 0 -84 -6 -84 -18c0 -3.33301 0.666992 -5.66602 2 -6.99902c-3.33301 0 -10.5 -1.83301 -21.5 -5.5s-20.167 -6.5 -27.5 -8.5v14l-14 7c-7.33301 -4.66699 -11 -9 -11 -13v-2
c-14.667 21.333 -22 39 -22 53c0 13.333 6.33301 24.666 19 33.999s19.334 18.666 20.001 27.999c8 0 19.333 4.83301 34 14.5s23 14.5 25 14.5c4 0 10.333 -1 19 -3c62 -14.667 120.667 -22 176 -22c21.333 0 56.666 2 105.999 6s88.333 6 117 6h94
c23.333 0 40.333 0.666992 51 2c46.667 20.667 72.667 31 78 31zM873.999 625.001c14 -18 21.0039 -34.667 21.0039 -50c0 -14.667 -6 -26.834 -18 -36.501s-18.333 -19.167 -19 -28.5c-8 0 -18.333 -4.16699 -31 -12.5s-22 -13.833 -28 -16.5
c-90.667 16.667 -155.667 25 -195 25c-24.667 0 -61.5 -2.33301 -110.5 -7s-85.833 -7 -110.5 -7l-94 2c-23.333 0 -41 -0.666992 -53 -2c-44 -19.333 -70 -29 -78 -29c-4.66699 0 -11.334 4.83301 -20.001 14.5s-13 17.834 -13 24.501l2 6c40 47.333 63.667 73.5 71 78.5
s17.666 7.5 30.999 7.5c8 0 19 -1 33 -3s24.333 -3 31 -3c16 0 24 6 24 18c18.667 -8 36 -12 52 -12c5.33301 0 13.166 0.666992 23.499 2s18.166 2 23.499 2l51 -2l74 2c16 0 50 -1.33301 102 -4l4 12c28.667 -8 52 -12 70 -12c57.333 0 86 6 86 18l-2 6h2
c4 0 11.333 2 22 6s19 7 25 9v-15c0 -5.33301 4 -8 12 -8s12 5 12 15z" />
    <glyph glyph-name="greater" unicode="&#x3e;" horiz-adv-x="614" 
d="M123 1094c3.33301 -6 8.00195 -9.00195 14.002 -9.00195c5.33301 0 13.5 3.5 24.5 10.5s19.167 10.5 24.5 10.5c9.33301 0 16.833 -6.5 22.5 -19.5s10.5 -22.833 14.5 -29.5c23.333 -19.333 47.666 -40.833 72.999 -64.5l79.5 -77.5l86 -90.5l70.5 -79
c17.333 -20.333 26.166 -32.333 26.499 -36s0.5 -8.16699 0.5 -13.5c0 -9.33301 -0.666992 -16.666 -2 -21.999c-78 -55.333 -153.5 -121.5 -226.5 -198.5s-118.833 -123.5 -137.5 -139.5s-34.167 -28.167 -46.5 -36.5s-28.5 -12.5 -48.5 -12.5c-8 0 -12 6 -12 18
c0 8.66699 6.5 22.334 19.5 41.001s26 34.167 39 46.5s26.333 23.5 40 33.5l80.5 57c40 28 77.167 59.5 111.5 94.5s51.5 56.167 51.5 63.5v2h-2c-2.66699 44 -37.667 96.667 -105 158l-161 147h-8c-9.33301 0 -19 -2.66699 -29 -8l-12 38c-3.33301 10 -8.33301 15 -15 15
c-4 0 -7.33301 -0.666992 -10 -2c2 38 14.333 72.333 37 103z" />
    <glyph glyph-name="question" unicode="?" horiz-adv-x="688" 
d="M330 1399c38 38 64.667 57.0029 80 57.0029c8 0 21.333 -8.66699 40 -26l74 -70c31.333 -28.667 52.833 -60.5 64.5 -95.5s17.5 -61.833 17.5 -80.5c0 -54 -14.833 -108.833 -44.5 -164.5s-70.5 -116.834 -122.5 -183.501s-92.5 -125.5 -121.5 -176.5
s-43.5 -92.5 -43.5 -124.5c0 -38 12.833 -72.167 38.5 -102.5s41.5 -50.166 47.5 -59.499v-4c0 -7.33301 -3.66699 -16.833 -11 -28.5s-11.666 -21.5 -12.999 -29.5c-22 -2 -35 -8 -39 -18c-2.66699 -1.33301 -5.33398 -2 -8.00098 -2c-3.33301 0 -6 4 -8 12
c-10 -12 -20.333 -18 -31 -18c-12.667 0 -22.667 5.16699 -30 15.5s-15.166 38.166 -23.499 83.499s-12.5 75 -12.5 89c0 42 11.667 88.667 35 140s67 120 131 206s104 150 120 192s24 81 24 117c0 17.333 -1.33301 33.166 -4 47.499s-14.334 38.166 -35.001 71.499
c-34 28 -75.667 67.667 -125 119v33zM281 154.003c50 -35.333 74.998 -63.334 74.998 -84.001c0 -17.333 -9.66699 -35.666 -29 -54.999s-37 -29 -53 -29c-7.33301 0 -24.166 9.5 -50.499 28.5s-39.5 36.833 -39.5 53.5v6c26.667 21.333 40.334 34.333 41.001 39
c12 23.333 30.667 37 56 41z" />
    <glyph glyph-name="at" unicode="@" horiz-adv-x="1817" 
d="M762 1321c6 6 11.4971 11.1611 16.4971 15.4941s14.167 8.16602 27.5 11.499l103 27c34.667 9.33301 64 15 88 17c39.333 2.66699 66.666 5 81.999 7l76 12c18 0 38.5 -2.66699 61.5 -8s38.167 -8 45.5 -8h12c27.333 0 60 -4 98 -12
c35.333 -6.66699 66.666 -15 93.999 -25l59 -23c20 -5.33301 34 -10.333 42 -15c10.667 -5.33301 30.334 -28.333 59.001 -69c22.667 -32 41.334 -64.667 56.001 -98c15.333 -33.333 27 -67.333 35 -102c8 -35.333 12 -71 12 -107c0 -92.667 -25.5 -198.5 -76.5 -317.5
s-126.167 -210.167 -225.5 -273.5s-190.666 -95 -273.999 -95c-88.667 0 -142.667 24 -162 72l-24 61v23l2 94l-15 12c-128.667 -169.333 -248 -254 -358 -254h-25c-39.333 14.667 -63.166 32.667 -71.499 54s-12.5 41.666 -12.5 60.999v10
c0 88.667 22.667 174.834 68 258.501s102.666 150.334 171.999 200.001s129.166 84.334 179.499 104.001s81.166 29.5 92.499 29.5l31 -2c4.66699 0 15.667 5.33301 33 16l14 -4c4.66699 7.33301 12.334 11 23.001 11h8l18 18c-0.666992 38.667 27.333 62 84 70
c5.33301 -9.33301 14.333 -17 27 -23v-8c0 -33.333 -9 -62.666 -27 -87.999c-13.333 -11.333 -20 -27 -20 -47v-6c-10 -20.667 -21.167 -53.834 -33.5 -99.501s-23.666 -80 -33.999 -103s-20.833 -61.667 -31.5 -116s-16 -95.833 -16 -124.5
c0 -22.667 0.666992 -38.334 2 -47.001c-1.33301 -2 -2 -6.66699 -2 -14c0 -16 7.16699 -32.333 21.5 -49s39.5 -27.334 75.5 -32.001s55.667 -7 59 -7c49.333 0 108.666 22.333 177.999 67c28 30 45 45 51 45h2c93.333 108.667 140 272.667 140 492
c0 80.667 -26 159 -78 235s-132 123.667 -240 143s-188.667 29 -242 29c-1.33301 0 -8.16602 -3.5 -20.499 -10.5s-23.833 -16.5 -34.5 -28.5c-12 -4 -25 -6 -39 -6h-37c-25.333 0 -44 -5 -56 -15s-19 -15 -21 -15c-2 2.66699 -5 5.33398 -9 8.00098c-6 0 -12 -2 -18 -6v-15
h-4c-2.66699 0 -5.5 2.33301 -8.5 7s-7.83301 7.33398 -14.5 8.00098c-6 -3.33301 -19.667 -8 -41 -14s-38.333 -12.167 -51 -18.5s-25 -13.333 -37 -21s-29.667 -13.167 -53 -16.5c-6.66699 -5.33301 -28 -25.166 -64 -59.499s-62.667 -58 -80 -71
s-27.333 -28.833 -30 -47.5c-61.333 -49.333 -113.5 -125.5 -156.5 -228.5s-64.5 -205.167 -64.5 -306.5c0 -45.333 7.33301 -87.166 22 -125.499s32.667 -61.833 54 -70.5l-5 -21c18.667 -26.667 39.667 -50.334 63 -71.001s56.666 -38 99.999 -52l113 -37
c32.667 -10 72.667 -18.5 120 -25.5s97 -10.5 149 -10.5h58l114 22.5c32.667 6.33301 53.334 11.333 62.001 15s16.667 5.5 24 5.5c15.333 0 23 -4.33301 23 -13c0 -4 -4.33301 -12 -13 -24c-159.333 -61.333 -278.666 -92 -357.999 -92c-47.333 0 -103.333 4 -168 12
s-107 12 -127 12c-8.66699 0 -16.667 7.66699 -24 23c-18 8 -41.833 16.5 -71.5 25.5s-45.667 16.833 -48 23.5s-4.83301 11.834 -7.5 15.501s-4 5.83398 -4 6.50098c-48.667 8.66699 -92.667 40.667 -132 96s-59 130 -59 224c0 204.667 73.667 397 221 577
c6 7.33301 12.333 18.833 19 34.5s18.5 28.334 35.5 38.001s26.833 17.834 29.5 24.501c76.667 78 161.334 137 254.001 177c38 16 59.333 30 64 42c10 4 18 6 24 6l13 -2zM1018 712.994c7.33301 5.33301 11.835 12.001 13.502 20.001s4.5 18.167 8.5 30.5
s9.16699 31 15.5 56s9.5 39.833 9.5 44.5c0 21.333 -1.33301 33.166 -4 35.499s-7.33398 3.5 -14.001 3.5c-20 0 -36.667 5 -50 15c-19.333 -10 -42.333 -17.5 -69 -22.5s-36 -11.5 -28 -19.5c1.33301 -1.33301 2.33301 -2.66602 3 -3.99902
c-34.667 -1.33301 -67.834 -12.5 -99.501 -33.5s-72.5 -77.333 -122.5 -169s-75 -157.834 -75 -198.501c0 -10 1 -22 3 -36s3 -23 3 -27l2 -23c14 -24.667 28.333 -37 43 -37c17.333 0 40.166 8 68.499 24s47 25.333 56 28s40.167 31.167 93.5 85.5s83.333 87.833 90 100.5
s24.334 55 53.001 127z" />
    <glyph glyph-name="A" unicode="A" horiz-adv-x="1542" 
d="M909 1386c53.333 -184 221.334 -579.673 504.001 -1187.01c38 -56.667 57 -104.667 57 -144c0 -9.33301 -3.16699 -17.666 -9.5 -24.999s-29.666 -17 -69.999 -29s-66.833 -20.667 -79.5 -26c-10 12 -15 23.667 -15 35c0 10 1.33301 21.333 4 34l5 15
c0 22 -10.833 67.333 -32.5 136s-58.834 156 -111.501 262c-5.33301 2.66699 -10.833 10.167 -16.5 22.5s-19.834 18.5 -42.501 18.5c-12.667 0 -25 -6.33301 -37 -19c-2 5.33301 -16 10.333 -42 15l-30 8h-30c-68 0 -115.167 -3.83301 -141.5 -11.5
s-40.166 -11.5 -41.499 -11.5c-9.33301 0 -16.666 5 -21.999 15c-41.333 -11.333 -71.833 -15.666 -91.5 -12.999s-39.167 4 -58.5 4c-44 0 -84.833 -5.16699 -122.5 -15.5s-62 -15.666 -73 -15.999s-21.5 -8.83301 -31.5 -25.5l-14 10
c-68 -140.667 -118.667 -251.334 -152 -332.001c-4 -50 -14.5 -92.5 -31.5 -127.5s-32.5 -52.5 -46.5 -52.5h-2c-22.667 9.33301 -69 20.333 -139 33c-10.667 2 -16 8 -16 18c0 22 11.667 42.5 35 61.5s36.666 33.5 39.999 43.5c22 41.333 42 70 60 86
c24 28.667 54.167 75.834 90.5 141.501s66.166 109.834 89.499 132.501c0.666992 29.333 32.5 92.333 95.5 189s117.5 187.334 163.5 272.001s71.667 130.334 77 137.001c92.667 132.667 139 223 139 271v4c15.333 0 23 3.33301 23 10v10c0 24.667 16.333 51.334 49 80.001
l14 -6c17.333 22 31 33 41 33c12 0 18 -9 18 -27c0 -10.667 -2 -20.334 -6 -29.001zM958.001 564.994c18.667 5.33301 38.0039 8 58.0039 8c46 8.66699 69 21.667 69 39c0 1.33301 -38.667 100 -116 296s-128 294 -152 294c-16.667 0 -49.167 -46.333 -97.5 -139
s-102.5 -187.834 -162.5 -285.501s-90 -157.5 -90 -179.5c0 -15.333 10 -25.666 30 -30.999s31.667 -8 35 -8l19 2c11.333 0 26.666 -1.66699 45.999 -5s32.666 -5 39.999 -5c16 0 42.167 2.66699 78.5 8s59.166 8 68.499 8s20.666 -1.33301 33.999 -4s22 -4 26 -4
c9.33301 0 16 4.66699 20 14c16.667 -5.33301 31.667 -8 45 -8l31 2c7.33301 0 13.333 -0.666992 18 -2z" />
    <glyph glyph-name="B" unicode="B" horiz-adv-x="1094" 
d="M659 823c118.667 -41.333 203.665 -90.168 254.998 -146.501s77 -133.166 77 -230.499c0 -138 -67.667 -256 -203 -354h-22c-12 -12.667 -24.167 -23 -36.5 -31s-19.833 -12 -22.5 -12c-3.33301 0 -6.33301 2.66699 -9 8c0 -3.33301 -7.83301 -9 -23.5 -17
s-46.667 -15.667 -93 -23s-70.166 -11 -71.499 -11c-11.333 0 -19 0.666992 -23 2l-22 -22l-29 10c-8.66699 -6.66699 -18 -10 -28 -10s-17 1.33301 -21 4c-16.667 -2 -46 -3.16699 -88 -3.5s-73.333 -1.83301 -94 -4.5c4 8 6 20.667 6 38l-2 35l13 110
c4.66699 36.667 7.83398 73.667 9.50098 111s2.83398 74.333 3.50098 111s1 78.334 1 125.001v70l10 397c0 124.667 -5.5 215.667 -16.5 273s-16.5 92.666 -16.5 105.999c0 39.333 26 59 78 59l20 21c17.333 -11.333 36.666 -20.333 57.999 -27
c122 -6.66699 216.833 -18 284.5 -34s118.667 -46.167 153 -90.5s51.5 -101.833 51.5 -172.5v-12c-20.667 -100.667 -87 -193.667 -199 -279zM513.998 849.998c5.33301 1.33301 13 1.99902 23 1.99902l28 -2c16.667 0 47.834 24.5 93.501 73.5s68.5 101.5 68.5 157.5
c0 20.667 -2 40.334 -6 59.001s-10 36.834 -18 54.501s-17.833 34.667 -29.5 51s-24.334 30.166 -38.001 41.499s-25.5 18.333 -35.5 21l-99 28c-31.333 9.33301 -52.333 14 -63 14c-37.333 0 -61.333 -15.5 -72 -46.5s-16 -85.167 -16 -162.5l10 -215
c0 -44.667 1.83301 -74.667 5.5 -90s13.5 -23 29.5 -23l13 2l24 -4c15.333 0 26.333 6 33 18l22 -2l21 2zM515.998 56.9971c6.66699 -1.33301 16.332 -2.00098 28.999 -2.00098c40 0 89 17.333 147 52s103.667 82.167 137 142.5s50 123.166 50 188.499
c0 78.667 -33.333 147.5 -100 206.5s-157.667 91.833 -273 98.5c-5.33301 -3.33301 -15 -10.666 -29 -21.999c-17.333 19.333 -37 29 -59 29c-42.667 0 -64 -34.333 -64 -103l2 -80c0 -16.667 -2 -38.167 -6 -64.5s-6 -44.166 -6 -53.499c0 -11.333 1.33301 -29.333 4 -54
s4 -43.667 4 -57c0 -17.333 -1.33301 -42 -4 -74s-4 -55.667 -4 -71c0 -10 1.66699 -23.667 5 -41l5 -25l-4 -25c0 -31.333 20.667 -47 62 -47c12.667 0 27.834 -3 45.501 -9s30.5 -9 38.5 -9z" />
    <glyph glyph-name="C" unicode="C" horiz-adv-x="1274" 
d="M1192 -61c0 -16.667 -11.667 -25.002 -35 -25.002l-104 15c-139.333 14.667 -232.666 26.334 -279.999 35.001c-74.667 14 -135.334 28 -182.001 42c-64.667 20 -124.334 45.667 -179.001 77c-53.333 30 -100 63.667 -140 101c-37.333 36.667 -70.333 78.334 -99 125.001
c-27.333 45.333 -48 93 -62 143c-14 50.667 -21 104.667 -21 162c0 67.333 20.167 151.833 60.5 253.5s67.333 165.167 81 190.5s48 66 103 122s129.5 106.667 223.5 152c33.333 16 50 28 50 36c17.333 7.33301 41.333 11.166 72 11.499s58.5 5.33301 83.5 15
s65.5 14.5 121.5 14.5c25.333 0 48.166 -2.16699 68.499 -6.5s47 -8.66602 80 -12.999s58.333 -8 76 -11s32.834 -7.33301 45.501 -13s19 -12.167 19 -19.5c0 -9.33301 -7 -34.666 -21 -75.999s-32.333 -62 -55 -62c-12 0 -25 4.33301 -39 13
c-29.333 32.667 -70.166 55.5 -122.499 68.5s-87.5 19.5 -105.5 19.5c-14.667 0 -35.667 -1.33301 -63 -4l-59 -4c-8 -0.666992 -15 -1.66699 -21 -3c-15.333 -1.33301 -26.333 -4 -33 -8c-12 -6.66699 -23 -12.334 -33 -17.001s-19.333 -8 -28 -10s-17 -3 -25 -3h-10
l-14 -15c-19.333 0 -36.333 -7.33301 -51 -22h-21c-174.667 -179.333 -262 -366.333 -262 -561c0 -113.333 34.667 -218.166 104 -314.499s163.5 -168.833 282.5 -217.5s240.833 -73 365.5 -73c22.667 0 59 4.33301 109 13s75 18 75 28c30 -0.666992 45 -52.334 45 -155.001
v-4z" />
    <glyph glyph-name="D" unicode="D" horiz-adv-x="1346" 
d="M915 1350c107.333 -46 190.501 -115.831 249.501 -209.498s88.5 -198.834 88.5 -315.501c0 -44 -5.66699 -88.333 -17 -133c-12 -44.667 -29.333 -89 -52 -133s-50.667 -87 -84 -129s-71 -81.667 -113 -119c-43.333 -38.667 -90.333 -74.334 -141 -107.001
c-52.667 -34 -108.334 -64.333 -167.001 -91l-70 -46l-88 -28c-46 -15.333 -69.333 -23 -70 -23c-4.66699 0 -11 1.33301 -19 4c-4 -6.66699 -10.667 -13 -20 -19s-15 -9 -17 -9h-28c-6 -12.667 -17.167 -22.667 -33.5 -30s-28.5 -11 -36.5 -11c-6 0 -15.833 1 -29.5 3
s-24.167 3 -31.5 3h-7c-14.667 0 -22 15.667 -22 47c0 4 2 15.667 6 35c23.333 118.667 35 245 35 379l-4 305l2 301c0 77.333 -2.16699 132.333 -6.5 165s-6.5 78 -6.5 136c0 22 1 35 3 39c10.667 4 16 10.667 16 20h35l6 17c36.667 -20.667 75.667 -31 117 -31
c13.333 0 25 1 35 3l28 5c4 0 13.5 -1.33301 28.5 -4s25.167 -4 30.5 -4l24 4c22 2.66699 44.333 4 67 4c69.333 0 127.833 -3.5 175.5 -10.5s71.5 -12.833 71.5 -17.5c8 -2.66699 13.667 -4 17 -4c4 0 13.333 1.33301 28 4zM381.001 195.002
c-2.66699 -16 -4 -27.667 -4 -35c0 -49.333 13 -74 39 -74c42.667 0 91.167 9.33301 145.5 28s108.833 46 163.5 82c29.333 19.333 54.833 33.666 76.5 42.999s61.834 42.666 120.501 99.999c38 37.333 71 76.833 99 118.5s51 85.834 69 132.501
c26.667 68.667 40 117.667 40 147c0 101.333 -11.5 187.833 -34.5 259.5s-62.333 132.5 -118 182.5s-118.834 83.5 -189.501 100.5s-177.667 25.5 -321 25.5l-8 -21h-8c-10 0 -19 2 -27 6c-44 -43.333 -66 -233.666 -66 -570.999l9 -496l-2 -8
c0 -9.33301 5.33301 -16 16 -20z" />
    <glyph glyph-name="E" unicode="E" horiz-adv-x="1112" 
d="M408 1368c6.66699 0 21.501 -1.3291 44.501 -3.99609s44.167 -4 63.5 -4l229 4l89 -4c14 0 39 2.33301 75 7s65.333 7 88 7c36 0 54 -9.33301 54 -28c0 -1.33301 -2.5 -15 -7.5 -41s-12.667 -42.167 -23 -48.5s-25.5 -9.5 -45.5 -9.5c-5.33301 0 -25.333 1.33301 -60 4
c-50 30 -159 45 -327 45c-29.333 0 -65 -0.833008 -107 -2.5s-66.333 -4 -73 -7s-13.667 -7.16699 -21 -12.5c-8 -31.333 -16.5 -88.333 -25.5 -171s-13.5 -129.334 -13.5 -140.001c0 -30.667 4.66699 -59.167 14 -85.5s14.833 -48.5 16.5 -66.5s17.5 -27 47.5 -27h16
c7.33301 0 11.666 -0.666992 12.999 -2c0 -0.666992 4.66699 -3.83398 14 -9.50098s20.333 -8.5 33 -8.5s32.334 1.33301 59.001 4s46.667 4 60 4c3.33301 0 9.33301 -0.666992 18 -2s15.334 -2 20.001 -2c19.333 0 34.666 4.66699 45.999 14l54 -5
c11.333 6 49 11.333 113 16c1.33301 -4 2 -10.333 2 -19c0 -6 -0.666992 -14.833 -2 -26.5s-2 -20.5 -2 -26.5c0 -10 0.666992 -17 2 -21c-9.33301 -30 -35 -45 -77 -45c-11.333 0 -30.333 4.83301 -57 14.5s-54.334 14.5 -83.001 14.5l-59 -2
c-14.667 0 -40.334 1.66699 -77.001 5s-66.334 5 -89.001 5h-29c-18 -11.333 -30.333 -21.166 -37 -29.499s-13.667 -33.333 -21 -75s-11 -85.834 -11 -132.501c0 -33.333 2.66699 -84.166 8 -152.499s9.16602 -120.5 11.499 -156.5s4.5 -54.833 6.5 -56.5
s6.5 -3.83398 13.5 -6.50098s12.167 -5.66699 15.5 -9l59 -2c33.333 0 79.666 2.33301 138.999 7l87 7l28 -3c8.66699 -0.666992 20.334 -1 35.001 -1c56.667 0 140.667 11.667 252 35c20 10.667 33.667 16 41 16c8 0 12 -6.66699 12 -20l-10 -39l2 -35
c0 -24 -5.66699 -38.833 -17 -44.5s-34.333 -8.5 -69 -8.5c-25.333 0 -65.666 2 -120.999 6c-58.667 10.667 -116.667 16 -174 16l-250 -4h-34c-11.333 6.66699 -18.333 10 -21 10c-4.66699 0 -8.5 -2 -11.5 -6s-7.5 -5 -13.5 -3s-10.667 3 -14 3c-9.33301 0 -18 -4 -26 -12
c-17.333 -2 -31 -8.33301 -41 -19h-7c-11.333 0 -20.666 5 -27.999 15c6.66699 8.66699 10 16.667 10 24l-2 17c0 8.66699 2 16 6 22c-2.66699 1.33301 -4 4 -4 8c0 3.33301 1 13 3 29c13.333 112 20 227.333 20 346l-2 201l4 141v49l2 265c0 64.667 -2 120.667 -6 168
c-11.333 39.333 -17 63.666 -17 72.999c0 6.66699 3.33301 12.167 10 16.5s35.334 13.166 86.001 26.499l4 13l17 -9l14 4c18 0 37.333 -6 58 -18z" />
    <glyph glyph-name="F" unicode="F" horiz-adv-x="1075" 
d="M422 1356l332.001 7.99707l90 -4c14.667 0 40 3.66699 76 11s64.667 11 86 11c46 0 69 -21 69 -63c0 -8.66699 -1.83301 -16.667 -5.5 -24s-9 -14 -16 -20s-13.833 -9.33301 -20.5 -10l-31 -2c-14 -0.666992 -26.333 -1 -37 -1c-2.66699 0 -10.334 1 -23.001 3
c-104 20.667 -218 31 -342 31c-27.333 0 -62.833 -0.833008 -106.5 -2.5s-68.667 -4 -75 -7s-13.5 -7.16699 -21.5 -12.5c-20 -85.333 -30 -152.333 -30 -201v-12c-8.66699 -51.333 -13 -93.666 -13 -126.999c0 -24 2 -44 6 -60l12 -44
c2.66699 -13.333 8.33398 -24.666 17.001 -33.999s19.667 -14 33 -14l24 2c10 0 16.667 -3 20 -9s22.666 -9 57.999 -9c22.667 0 44.5 1.16699 65.5 3.5s37 2.66602 48 0.999023s19.167 -2.5 24.5 -2.5c19.333 0 35 4.66699 47 14l52 -5c12 6 49.667 11.333 113 16
c11.333 -12.667 17 -27.667 17 -45c0 -18 -6.83301 -35.167 -20.5 -51.5s-58.834 -24.5 -135.501 -24.5c-32 0 -84.667 3.33301 -158 10s-131.333 10 -174 10c-24 -14 -36 -26.333 -36 -37c0 -2.66699 0.666992 -4.66699 2 -6c-18 -62.667 -27 -133.667 -27 -213l8 -170
c0 -25.333 -3.33301 -39.666 -10 -42.999c8 -17.333 15.5 -44.166 22.5 -80.499s10.5 -64.166 10.5 -83.499c0 -20.667 -5.33301 -36.334 -16 -47.001s-19.667 -16 -27 -16c-6 0 -12.333 4 -19 12c-6 -8 -17.667 -15.333 -35 -22c-3.33301 1.33301 -13.333 4 -30 8
c-27.333 6 -41 23 -41 51c0 6.66699 1.66699 16.667 5 30l5 17l-2 33c0 4 2.33301 11.667 7 23s7.33398 21.333 8.00098 30c6.66699 68 10 146 10 234l-2 155l8 457c0 87.333 -2.83301 147.833 -8.5 181.5s-8.5 57.167 -8.5 70.5c0 27.333 5 55.333 15 84
c27.333 8 55.333 14 84 18l6 13l14 -9l14 4c14 0 34.667 -10 62 -30z" />
    <glyph glyph-name="G" unicode="G" horiz-adv-x="1430" 
d="M1294 1341c22 -13.333 32.999 -44.001 32.999 -92.001c0 -53.333 -16.333 -80 -49 -80c-7.33301 0 -16.333 2.33301 -27 7c-10 12 -25.833 26.333 -47.5 43s-41.834 28.334 -60.501 35.001l-64 24h-18c-21.333 0 -54.333 4.5 -99 13.5s-78 13.5 -100 13.5
c-32.667 0 -78.834 -5.16699 -138.501 -15.5s-114.5 -24.5 -164.5 -42.5c-12.667 -12.667 -30.334 -26 -53.001 -40l-32 -18c-10.667 -6.66699 -21.334 -16 -32.001 -28h-22c-52 -28.667 -102.5 -96.5 -151.5 -203.5s-73.5 -204.167 -73.5 -291.5
c0 -106.667 31.833 -204 95.5 -292s153.167 -156.667 268.5 -206c6.66699 0 17 -6 31 -18c32.667 -27.333 130.334 -53.333 293.001 -78l22 20c14 -6.66699 26.333 -10 37 -10c4.66699 0 11.667 3.33301 21 10c13.333 0 22.666 -4.66699 27.999 -14
c22.667 8 41.334 12 56.001 12c4.66699 0 17.334 -1.33301 38.001 -4c2 6 7 12.667 15 20c8 43.333 12 81.666 12 114.999v15l2 139c0 44 -4.66699 97.333 -14 160c-11.333 19.333 -17 34.333 -17 45c0 27.333 9 41 27 41l94 -3c12.667 0 21.667 3 27 9c16 0 24 -7 24 -21
c0 -1.33301 -1 -6.66602 -3 -15.999c-19.333 -81.333 -29 -177 -29 -287c0 -44 8.66699 -116.333 26 -217c-12 -13.333 -18.667 -21 -20 -23c-4.66699 -12.667 -10.667 -31.167 -18 -55.5s-20.666 -37.166 -39.999 -38.499c-8.66699 8 -23 15.667 -43 23
c-5.33301 -1.33301 -11.333 -2 -18 -2c-4.66699 0 -18.667 -1 -42 -3s-36.666 -4 -39.999 -6s-10.666 -8.66699 -21.999 -20h-7c-5.33301 0 -19 -1 -41 -3s-42.333 -3 -61 -3c-32.667 0 -58 2 -76 6l-43 10c-1.33301 0 -5 -1.66699 -11 -5s-11.667 -5 -17 -5h-5
c-10 9.33301 -19.333 17 -28 23c-82.667 0 -177.667 32.333 -285 97s-190.833 138.167 -250.5 220.5s-89.5 190.833 -89.5 325.5c0 83.333 16.5 171.333 49.5 264s58.167 139 75.5 139h2v4c0 4.66699 1 10 3 16s3 10.333 3 13v4c12.667 1.33301 25 8 37 20v23
c95.333 107.333 204.5 181.333 327.5 222s230.833 61 323.5 61c6.66699 0 44.5 -3.83301 113.5 -11.5s129.5 -16.334 181.5 -26.001s80 -14.5 84 -14.5h2z" />
    <glyph glyph-name="H" unicode="H" horiz-adv-x="1577" 
d="M1202 1276c-1.33301 3.33301 -2.00098 9.99805 -2.00098 19.998c0 21.333 19.333 41.333 58 60s60.334 28 65.001 28h8c11.333 0 21 -5.5 29 -16.5s12 -24.5 12 -40.5c0 -10 -2 -20.333 -6 -31c-15.333 -5.33301 -23 -25 -23 -59l5 -186
c0 -266 -4.16699 -479.167 -12.5 -639.5s-12.5 -242.833 -12.5 -247.5c0 -30.667 11 -56 33 -76c-3.33301 -19.333 -6 -35.833 -8 -49.5s-5 -21.167 -9 -22.5c-20.667 -3.33301 -43.834 -11.666 -69.501 -24.999s-42.5 -20 -50.5 -20c-5.33301 0 -14.333 5.66699 -27 17
l-12 71c28.667 56 43 129.333 43 220v34l2 318c0 5.33301 -4.33301 14 -13 26s-18.5 19.167 -29.5 21.5s-24.167 3.5 -39.5 3.5l-51 -6h-107c-114.667 0 -186.167 -1 -214.5 -3s-49 -5.5 -62 -10.5s-20.5 -7.5 -22.5 -7.5c-10.667 0 -18.667 5 -24 15
c-26.667 -10 -50.667 -15 -72 -15l-80 4c-104 0 -156 -17.667 -156 -53v-24l-2 -80l2 -88l-4 -154c0 -38.667 4.83301 -81.667 14.5 -129s14.5 -78.666 14.5 -93.999l-2 -39l-35 -23c-23.333 11.333 -49.333 17 -78 17c-15.333 0 -26.333 -0.666992 -33 -2
c-7.33301 8 -13.333 12 -18 12c-1.33301 0 -2.66602 -0.666992 -3.99902 -2c-2.66699 10.667 -4 21 -4 31c0 2 0.666992 10.667 2 26c16 129.333 25.667 278 29 446l10 498l6 170c0 65.333 -10.333 135.666 -31 210.999l-14 15c8 0 12 4 12 12v14
c0 11.333 4 17.666 12 18.999c22 26 44.667 39 68 39c22 0 54 -9.66699 96 -29c-30 -352.667 -45 -546 -45 -580c0 -4 0.666992 -14.167 2 -30.5s2 -25.166 2 -26.499l-2 -10c0 -17.333 9.33301 -33.333 28 -48s38 -22 58 -22h13c10 0 25.167 -1.66699 45.5 -5
s35.166 -5 44.499 -5c5.33301 0 31 3 77 9s79.667 9 101 9c59.333 0 111.333 -1.33301 156 -4s67.667 -4 69 -4c8.66699 0 15 5 19 15c27.333 -7.33301 53 -11 77 -11h97c6.66699 7.33301 13.334 11 20.001 11c24.667 3.33301 42.167 12.833 52.5 28.5
s15.5 27.834 15.5 36.501v57l2 197v47c0 102.667 -8.33301 156 -25 160z" />
    <glyph glyph-name="I" unicode="I" horiz-adv-x="614" 
d="M301 -2c-64 6 -95.998 19.666 -95.998 40.999c0 6.66699 2.33301 14 7 22s8.66699 17.5 12 28.5s7.66602 48.167 12.999 111.5s10.166 159.666 14.499 288.999s6.5 267 6.5 413l-14 328v2c0 5.33301 -2.83301 13 -8.5 23s-8.5 17.333 -8.5 22c0 2 5.66699 15 17 39
s31.333 40.167 60 48.5s44.667 12.5 48 12.5c6.66699 0 11.167 -3.83301 13.5 -11.5s5.5 -12.5 9.5 -14.5c13.333 -11.333 20 -30.666 20 -57.999c0 -2 -1 -9.66699 -3 -23c-16.667 -111.333 -25 -234.666 -25 -369.999l2 -76l-9 -413c0 -124 8.33301 -214.167 25 -270.5
s25 -95.833 25 -118.5c0 -10 -9.5 -19 -28.5 -27s-34.833 -12 -47.5 -12h-6c-12.667 0 -21.667 4.66699 -27 14z" />
    <glyph glyph-name="J" unicode="J" horiz-adv-x="793" 
d="M598 1376c1.33301 -5.33301 2 -12.665 2 -21.998c0 -6.66699 -2 -22.5 -6 -47.5s-6 -47.5 -6 -67.5c0 -20.667 3.33301 -68.667 10 -144s10 -144 10 -206c0 -136.667 -18.333 -268.834 -55 -396.501s-82 -225 -136 -292s-142.333 -149.5 -265 -247.5
c-23.333 -12.667 -35 -23.667 -35 -33v-2c-21.333 -14.667 -37 -22 -47 -22c-8 0 -14.167 3 -18.5 9s-9.16602 29.333 -14.499 70c-24.667 10 -37 30.667 -37 62c0 11.333 8.5 21.166 25.5 29.499s57.5 18.833 121.5 31.5c53.333 26.667 80.333 40 81 40
c26.667 12 57.5 40.167 92.5 84.5s62.833 91.5 83.5 141.5s37.167 105.5 49.5 166.5s21 127.667 26 200s7.5 153.833 7.5 244.5c0 87.333 -8 182.333 -24 285c-12.667 40.667 -19 65 -19 73c0 6 0.666992 9.33301 2 10c0 18 9 29.667 27 35l65 19
c25.333 8 40.666 12 45.999 12c2 -2 3.16699 -7 3.5 -15s3.83301 -14 10.5 -18z" />
    <glyph glyph-name="K" unicode="K" horiz-adv-x="1346" 
d="M248 1288c-4 4.66699 -6 7.99902 -6 9.99902c0 10.667 8.5 23.5 25.5 38.5s39.167 27.167 66.5 36.5l37 13h6c10 0 18.667 -5.66699 26 -17s11 -26 11 -44c0 -4 -1.33301 -13 -4 -27c-15.333 -14 -23 -32.333 -23 -55v-41c0 -288.667 -3.66699 -518.667 -11 -690
s-11 -259.333 -11 -264c0 -15.333 1.66699 -41.166 5 -77.499s5 -65.833 5 -88.5c0 -28 -4.83301 -51 -14.5 -69s-21.167 -27 -34.5 -27c-3.33301 0 -9 1.33301 -17 4s-14.667 4 -20 4c-3.33301 0 -8.33301 -1 -15 -3s-14 -3 -22 -3c-31.333 0 -47 17.667 -47 53
c0 4 1.33301 14.333 4 31c19.333 20 34.333 70.5 45 151.5s16 265.833 16 554.5c0 210 -7.33301 380 -22 510zM1311 173.999c23.333 -8.66699 35.0039 -24.3379 35.0039 -47.0049c0 -38.667 -10.167 -70.5 -30.5 -95.5s-45.833 -37.5 -76.5 -37.5
s-58.334 18.167 -83.001 54.5s-85.834 89.333 -183.501 159s-186.334 135.667 -266.001 198s-152.167 106.166 -217.5 131.499c-50 28.667 -75 54.334 -75 77.001c0 12 5.33301 25.667 16 41c35.333 26.667 62.666 53.334 81.999 80.001c16 6 31.667 10.333 47 13l45.5 36
c19 14.667 29.5 23.667 31.5 27c13.333 22.667 48.5 71.5 105.5 146.5l141.5 190.5l139 200c27.333 6.66699 50 10 68 10c15.333 0 26 -0.666992 32 -2c5.33301 -11.333 8 -23.666 8 -36.999v-8c0 -13.333 -4.66699 -27.666 -14 -42.999
c-40.667 -27.333 -89 -70.333 -145 -129c1.33301 -12 -21 -45 -67 -99l-84 -103l-66 -94l-44 -40c-12 -10.667 -21.333 -19.334 -28 -26.001s-10.667 -11 -12 -13c-6.66699 -14.667 -15.834 -31 -27.501 -49s-17.5 -31 -17.5 -39c0 -27.333 10 -51.166 30 -71.499
s51.5 -45.833 94.5 -76.5l110 -80c30.333 -22.667 51.5 -38 63.5 -46s28.833 -22 50.5 -42s37.834 -34.333 48.501 -43c23.333 -10 40 -19.667 50 -29s19.833 -16.666 29.5 -21.999s17.834 -12.666 24.501 -21.999c6 -2.66699 14 -5.66699 24 -9s16.333 -6 19 -8v-2
c0 -11.333 18.667 -23.333 56 -36s59.666 -19 66.999 -19c4.66699 0 11 1.33301 19 4z" />
    <glyph glyph-name="L" unicode="L" horiz-adv-x="1012" 
d="M995 106c11.333 -14 16.999 -31.667 16.999 -53c0 -26.667 -4.16699 -46.334 -12.5 -59.001s-17.166 -19 -26.499 -19c-8.66699 0 -24.5 2.16699 -47.5 6.5s-34.5 10.5 -34.5 18.5l-8 -14h-6c-6 0 -12.167 4.16699 -18.5 12.5s-10.5 13.5 -12.5 15.5
c-47.333 -8 -100 -12 -158 -12h-190c-27.333 0 -66.333 -1.33301 -117 -4c-18.667 -15.333 -29.667 -23 -33 -23h-2c-18 11.333 -43.333 17 -76 17l-32 -2c-4.66699 -2.66699 -9.66699 -7.66699 -15 -15c-12 12.667 -18 26.334 -18 41.001c0 12 2.66699 27 8 45
c10.667 18.667 16 51.667 16 99v26c11.333 76.667 17 182 17 316l-2 368c0 16.667 1.33301 39.5 4 68.5s4 49.833 4 62.5l4 115c0 35.333 -5 73 -15 113s-16 65.333 -18 76l-14 14v6c0 45.333 24 68 72 68c36.667 0 67 -8.83301 91 -26.5s36 -39.834 36 -66.501
c-26 -36 -39 -90.333 -39 -163l2 -93c0 -20 -2.5 -49 -7.5 -87s-7.5 -66.333 -7.5 -85c0 -11.333 1.5 -31.166 4.5 -59.499s4.5 -50.833 4.5 -67.5l-5 -133v-180l-10 -207c0 -48 7.66699 -89.667 23 -125c14.667 -1.33301 31.667 -2 51 -2
c2.66699 -6 36.167 -11.5 100.5 -16.5s110.833 -7.5 139.5 -7.5c76.667 0 134.667 8.66699 174 26c2.66699 -2.66699 4.66699 -4 6 -4c3.33301 0 11.5 2.5 24.5 7.5s25.167 7.5 36.5 7.5l25 -5h65z" />
    <glyph glyph-name="M" unicode="M" horiz-adv-x="1833" 
d="M1507 1436c11.333 -14.667 17.0039 -26.3301 17.0039 -34.9971v-39c0 -66 6.16699 -164.667 18.5 -296s27.833 -263.333 46.5 -396s37.167 -253.834 55.5 -363.501s28.666 -173.334 30.999 -191.001s8.5 -33.5 18.5 -47.5c10.667 -22 16 -36.333 16 -43
c0 -12.667 -11.667 -19 -35 -19h-8l-22 -29c-14.667 -4 -33 -7.33301 -55 -10s-35.333 -6 -40 -10c-2 0 -4.33301 4 -7 12c-2 7.33301 -4 19 -6 35c-2 15.333 -3.66699 34.666 -5 57.999l-7 188c-1.33301 75.333 -3.66602 124.666 -6.99902 147.999
c-12 76.667 -23.333 156.667 -34 240l-22 195c-13.333 114.667 -24.166 194.5 -32.499 239.5s-20.5 71.833 -36.5 80.5c-252.667 -492.667 -379 -750.667 -379 -774c0 -3.33301 1.33301 -11.666 4 -24.999c-6 -8.66699 -11.667 -18.667 -17 -30c6 -7.33301 9 -15 9 -23
c-40 -39.333 -64 -75.333 -72 -108c-10 -10 -19 -15 -27 -15c-4.66699 0 -18.834 10 -42.501 30s-38.834 47.667 -45.501 83c-4.66699 2.66699 -9 6.33398 -13 11.001s-7.66699 10.334 -11 17.001c-2.66699 6 -5.33398 13.333 -8.00098 22l-6 28
c-2 10 -3.66699 21.333 -5 34l-50 107l-96 220c-71.333 169.333 -126.333 291.333 -165 366c-5.33301 -4.66699 -10.333 -9.83398 -15 -15.501s-9.66699 -24.834 -15 -57.501c-15.333 -85.333 -35 -184.666 -59 -297.999l-49 -240
c-17.333 -88 -28.666 -172.667 -33.999 -254c-0.666992 -8.66699 -3.83398 -22.167 -9.50098 -40.5s-8.5 -32.833 -8.5 -43.5c0 -2 1 -9 3 -21s3 -24.667 3 -38c0 -49.333 -8.33301 -81.333 -25 -96c-12.667 -0.666992 -25.834 -6 -39.501 -16s-22.834 -15 -27.501 -15h-3
c-10.667 0 -23 6.5 -37 19.5s-24 21.5 -30 25.5c49.333 55.333 104.666 276.666 165.999 663.999c8.66699 56 26.834 140.167 54.501 252.5s41.5 194.5 41.5 246.5l-2 88c0 47.333 7 84.166 21 110.499s33 39.5 57 39.5c33.333 0 55 -32 65 -96
c17.333 -8 26.333 -19.167 27 -33.5s4.16699 -38.5 10.5 -72.5s29.5 -92 69.5 -174l59 -116v-36c12 -36 42 -105.5 90 -208.5s81.333 -168.167 100 -195.5s34.667 -41 48 -41c40.667 0 89 72.333 145 217c10.667 27.333 36.667 82.5 78 165.5s72.166 153.333 92.499 211
s43.833 106.834 70.5 147.501c10.667 16.667 25 53.167 43 109.5s37.333 96.333 58 120s43.334 35.5 68.001 35.5c4 0 11.333 -1.33301 22 -4z" />
    <glyph glyph-name="N" unicode="N" horiz-adv-x="1675" 
d="M1491 1360l-17.9951 -64.001c-16 -52.667 -27.167 -111.5 -33.5 -176.5s-10.166 -141 -11.499 -228s-4.5 -162 -9.5 -225s-7.5 -114.5 -7.5 -154.5l2 -109l-2 -75c0 -38 4.83301 -82 14.5 -132s14.5 -83.333 14.5 -100c0 -38.667 -6.16699 -70.5 -18.5 -95.5
s-26.833 -37.5 -43.5 -37.5c-26.667 0 -68.334 37 -125.001 111v20c-148 152 -271 289.167 -369 411.5l-319 387c-114.667 135.667 -173.334 203.5 -176.001 203.5c-6.66699 0 -13.334 -5.83301 -20.001 -17.5s-14.5 -57.834 -23.5 -138.501s-13.5 -177.667 -13.5 -291
c0 -124.667 6 -266 18 -424l15 -28v-23c0 -22 -3 -35.667 -9 -41v-2c0 -4.66699 3.5 -16.667 10.5 -36s10.5 -38 10.5 -56v-12c-16.667 -24.667 -44.667 -37 -84 -37c-8.66699 0 -14.334 5.33301 -17.001 16c-12 -1.33301 -31.667 -7.33301 -59 -18c-8 12.667 -12 33 -12 61
c0 26 4.66699 70.333 14 133c6.66699 0 11 3 13 9s3.83301 22.833 5.5 50.5s3.83398 51.5 6.50098 71.5c-10 12 -15 21.667 -15 29l2 6c12.667 8 19 22.333 19 43l4 119l-2 160c0 70 2.66699 119.167 8 147.5s8 47.166 8 56.499c0 10.667 -1 27.5 -3 50.5s-3 35.833 -3 38.5
c0 46.667 2 84.334 6 113.001s6 63.334 6 104.001l-8 34c2.66699 7.33301 4 23.333 4 48c0 30.667 -0.666992 55 -2 73c4.66699 6.66699 10.667 13.5 18 20.5l16 15.5c3.33301 3.33301 5.83301 5.16602 7.5 5.49902s10.5 2.83301 26.5 7.5
c13.333 -1.33301 36.333 -27 69 -77c57.333 -88 117 -162 179 -222c-1.33301 0 -2 -1.33301 -2 -4c0 -7.33301 36.167 -50.5 108.5 -129.5s156.833 -178.167 253.5 -297.5l90 -112l94 -111.5c31.333 -36.333 68.166 -77 110.499 -122s67.166 -68.833 74.499 -71.5
s12.666 -4 15.999 -4c5.33301 0 8 4.33301 8 13l-2 69l4 129l-2 174c0 68 1.33301 158.333 4 271l5 147c0 38 -4.33301 62 -13 72c-1.33301 4 -2 8.66699 -2 14c0 6.66699 1 15.167 3 25.5s3 17.5 3 21.5c0 6 -0.666992 10.333 -2 13c1.33301 8.66699 2 21.667 2 39
c0 14.667 -2 27.334 -6 38.001s-6 24.334 -6 41.001c0 21.333 8 38.333 24 51s37.333 19 64 19l21 -2h30c8.66699 0 17.667 -2.66699 27 -8z" />
    <glyph glyph-name="O" unicode="O" horiz-adv-x="1589" 
d="M1219 1325c46.667 3.33301 104.666 -48.1611 173.999 -154.494s104 -222.833 104 -349.5c0 -64.667 -6 -126 -18 -184s-30 -111 -54 -159c-51.333 -106 -87.666 -174.667 -108.999 -206c-47.333 -70 -100.833 -126 -160.5 -168s-120.667 -72.833 -183 -92.5
s-132.5 -29.5 -210.5 -29.5c-185.333 0 -285 16.333 -299 49c-13.333 5.33301 -33.333 12.5 -60 21.5s-41 14.833 -43 17.5l-26 32c-23.333 6 -35.666 9 -36.999 9c-70 44 -121.333 104 -154 180s-49 183.667 -49 323c0 107.333 36.333 232.333 109 375
c4.66699 9.33301 8.83398 21.166 12.501 35.499s11.667 26.166 24 35.499s19.166 17.666 20.499 24.999c56.667 62.667 90.167 101.167 100.5 115.5s34.5 29.166 72.5 44.499s63 33.666 75 54.999c4 6.66699 9.83301 9.16699 17.5 7.5s13.5 -2.5 17.5 -2.5l8 2
c4.66699 6 9.5 11.5 14.5 16.5s8.66699 7.16699 11 6.5s27.833 7.33301 76.5 24s76.834 24.167 84.501 22.5s36.5 1.16602 86.5 8.49902l65 12c15.333 0 33.666 -2.5 54.999 -7.5s35.666 -8.16699 42.999 -9.5c122 -12.667 199.333 -31 232 -55zM1249 330.006
c80.667 146.667 120.999 280.995 120.999 402.995c0 83.333 -9.66699 158 -29 224s-47.333 122.167 -84 168.5s-79.667 83.5 -129 111.5s-112.166 46.667 -188.499 56s-121.833 14 -136.5 14c-2 0 -8 -3.5 -18 -10.5s-19 -15.833 -27 -26.5c-8.66699 -4 -19.667 -6 -33 -6
l-33 2c-24.667 0 -43 -10.333 -55 -31c-1.33301 -1.33301 -3.33301 -2 -6 -2c-3.33301 0 -6 3.33301 -8 10l-15 -8v-14c-2 0 -4.33301 2.33301 -7 7s-5.66699 7 -9 7h-4c-63.333 -22 -100.333 -40.333 -111 -55c-16 -6 -28.333 -9.66699 -37 -11
c-8 -8 -20.167 -22.667 -36.5 -44s-29.666 -38.166 -39.999 -50.499s-20.333 -22.666 -30 -30.999s-14.5 -23.166 -14.5 -44.499c-34.667 -31.333 -62.334 -84.333 -83.001 -159s-31 -152 -31 -232c0 -73.333 11 -139.666 33 -198.999s49 -96.666 81 -111.999v-21
c20.667 -24 42.667 -46.333 66 -67s57.333 -38.834 102 -54.501s82.5 -28 113.5 -37s65.667 -16.5 104 -22.5s76.5 -9 114.5 -9c22.667 0 40.667 0.666992 54 2l71 17c21.333 4.66699 38.333 8 51 10c4.66699 1.33301 22.334 11.333 53.001 30l72 41
c6.66699 3.33301 11.667 7 15 11c4 5.33301 6 11.333 6 18v8c3.33301 6.66699 16.166 16.334 38.499 29.001l53.5 30c13.333 7.33301 20 16.333 20 27c0 8.66699 -1.33301 15.667 -4 21z" />
    <glyph glyph-name="P" unicode="P" horiz-adv-x="1130" 
d="M233 438c0 2 7.66406 19.999 22.9971 53.999c4 36.667 6 83.667 6 141l-2 119l4 215c0 108 -3 185.667 -9 233s-9 72 -9 74c0 6 1 13.5 3 22.5s3 15.167 3 18.5l-2 20c0 23.333 15.167 39.166 45.5 47.499s92.833 12.5 187.5 12.5c89.333 0 167.166 -6.5 233.499 -19.5
s123.5 -33.167 171.5 -60.5s82.333 -56.666 103 -87.999s35.5 -60.5 44.5 -87.5s13.5 -73.167 13.5 -138.5c0 -45.333 -6.83301 -84.666 -20.5 -117.999s-38.167 -77.833 -73.5 -133.5s-75.833 -103 -121.5 -142s-94.667 -70.333 -147 -94s-112.166 -40.5 -179.499 -50.5
c-50 -7.33301 -83.833 -18.333 -101.5 -33s-26.5 -48 -26.5 -100c0 -22 2.33301 -46.5 7 -73.5s7 -55.833 7 -86.5l-2 -45c0 -13.333 1.33301 -28.333 4 -45l4 -25v-14c0 -10.667 -2 -17.5 -6 -20.5s-15.167 -6.16699 -33.5 -9.5s-36.166 -8.33301 -53.499 -15
s-27.333 -10 -30 -10c-3.33301 0 -10.666 2.33301 -21.999 7s-22.333 8.16699 -33 10.5s-16 5.83301 -16 10.5c0 4 6.16699 12.833 18.5 26.5s18.5 28.167 18.5 43.5v6c3.33301 26.667 8.16602 53 14.499 79s9.5 61 9.5 105c0 26 -1.16699 53.5 -3.5 82.5
s-4.66602 45.667 -6.99902 50s-6.66602 10 -12.999 17s-9.5 11.167 -9.5 12.5v2zM386.997 521.999c54 8.66699 104.83 20.167 152.497 34.5s90.834 30.5 129.501 48.5s67 35.667 85 53s38.167 38.333 60.5 63s39.5 45 51.5 61c6 16 15.333 38.5 28 67.5
s20.5 56.167 23.5 81.5s4.5 55 4.5 89c0 74 -17.667 127.833 -53 161.5s-76.166 65.667 -122.499 96s-116.166 45.5 -209.499 45.5h-70c-32.667 0 -55.5 -7.5 -68.5 -22.5s-19.5 -41.5 -19.5 -79.5l8 -156l-2 -172v-227c0 -60 0.666992 -108 2 -144z" />
    <glyph glyph-name="Q" unicode="Q" horiz-adv-x="1589" 
d="M1534 117c9.33301 -16.667 14.001 -30.3271 14.001 -40.9941c0 -30 -9.66699 -55.333 -29 -76s-43 -31 -71 -31c-19.333 0 -40 5.66699 -62 17c-51.333 12 -103.666 18 -156.999 18h-12c-34 0 -89 -3.66699 -165 -11s-135.333 -11 -178 -11l-43 6l-71 -4
c-186 0 -285 15.667 -297 47c-13.333 5.33301 -33.333 12.5 -60 21.5s-41 14.833 -43 17.5l-26 32c-52.667 6.66699 -105.834 50.167 -159.501 130.5s-80.5 207.5 -80.5 381.5c0 107.333 36.333 232.333 109 375c4.66699 9.33301 8.83398 21.166 12.501 35.499
s11.667 26.166 24 35.499s19.166 17.666 20.499 24.999c56.667 62.667 90.167 101.167 100.5 115.5s34.5 29.166 72.5 44.499s63 33.666 75 54.999c4 6.66699 9.83301 9.16699 17.5 7.5s13.5 -2.5 17.5 -2.5l8 2c4.66699 6 9.5 11.5 14.5 16.5s8.66699 7.16699 11 6.5
s27.833 7.33301 76.5 24s76.834 24.167 84.501 22.5s36.5 1.16602 86.5 8.49902l65 12c15.333 0 33.666 -2.5 54.999 -7.5s35.666 -8.16699 42.999 -9.5c122 -12.667 199.333 -31 232 -55c46.667 3.33301 104.667 -48.167 174 -154.5s104 -222.833 104 -349.5
c0 -118 -20.833 -224.5 -62.5 -319.5s-77.167 -164.5 -106.5 -208.5s-59.333 -83 -90 -117s-46 -54.333 -46 -61c0 -16.667 17.667 -25 53 -25c26.667 0 45 4 55 12c6.66699 -1.33301 16.334 -2 29.001 -2l47 2c3.33301 0 12.166 -1.33301 26.499 -4s28.833 -4 43.5 -4
c36.667 0 66 7.66699 88 23zM1249 330.007c80.667 146.667 120.999 280.995 120.999 402.995c0 83.333 -9.66699 158 -29 224s-47.333 122.167 -84 168.5s-79.667 83.5 -129 111.5s-112.166 46.667 -188.499 56s-121.833 14 -136.5 14c-2 0 -8 -3.5 -18 -10.5
s-19 -15.833 -27 -26.5c-8.66699 -4 -19.667 -6 -33 -6l-33 2c-24.667 0 -43 -10.333 -55 -31c-1.33301 -1.33301 -3.33301 -2 -6 -2c-3.33301 0 -6 3.33301 -8 10l-15 -8v-14c-2 0 -4.33301 2.33301 -7 7s-5.66699 7 -9 7h-4c-63.333 -22 -100.333 -40.333 -111 -55
c-16 -6 -28.333 -9.66699 -37 -11c-8 -8 -20.167 -22.667 -36.5 -44s-29.666 -38.166 -39.999 -50.499s-20.333 -22.666 -30 -30.999s-14.5 -23.166 -14.5 -44.499c-34.667 -31.333 -62.334 -84.333 -83.001 -159s-31 -152 -31 -232c0 -73.333 11 -139.666 33 -198.999
s49 -96.666 81 -111.999v-21c20.667 -24 42.667 -46.333 66 -67s57.333 -38.834 102 -54.501s82.5 -28 113.5 -37s65.667 -16.5 104 -22.5s76.5 -9 114.5 -9c22.667 0 40.667 0.666992 54 2l71 17c21.333 4.66699 38.333 8 51 10c4.66699 1.33301 22.334 11.333 53.001 30
l72 41c6.66699 3.33301 11.667 7 15 11c4 5.33301 6 11.333 6 18v8c3.33301 6.66699 16.166 16.334 38.499 29.001l53.5 30c13.333 7.33301 20 16.333 20 27c0 8.66699 -1.33301 15.667 -4 21z" />
    <glyph glyph-name="R" unicode="R" horiz-adv-x="1251" 
d="M1239 147c6.66699 -8 10.001 -18.6611 10.001 -31.9941c0 -24 -10.833 -47.5 -32.5 -70.5s-40.834 -34.5 -57.501 -34.5c-12 0 -29.667 12.667 -53 38l-57 56c-42 41.333 -114.5 92.333 -217.5 153s-240.167 150.334 -411.5 269.001l-12 54v8c0 10 5.33301 16.5 16 19.5
s26.334 8.16699 47.001 15.5c126.667 41.333 215.334 90.166 266.001 146.499s76 132.166 76 227.499c0 114 -33.167 195.5 -99.5 244.5s-142.5 73.5 -228.5 73.5h-43c-20.667 0 -39.5 -6 -56.5 -18s-25.5 -42.333 -25.5 -91c0 -23.333 0.833008 -42.5 2.5 -57.5
s2.5 -36.167 2.5 -63.5l-11 -249c0 -39.333 0.333008 -70.333 1 -93l3 -73l-4 -45c-2.66699 -35.333 -4 -73 -4 -113c0 -36.667 5.66699 -203.334 17 -500.001c-4 -4.66699 -9.16699 -12 -15.5 -22s-11.5 -15 -15.5 -15c-3.33301 0 -8 2.33301 -14 7
c-42.667 -12.667 -65.334 -19 -68.001 -19c-10.667 0 -21.167 7 -31.5 21s-15.5 35 -15.5 63v10c31.333 49.333 47 148.333 47 297l-6 367l6 264l-2 158c0 23.333 -2.66699 54.166 -8 92.499s-8 65.5 -8 81.5c0 14.667 2.5 25.667 7.5 33s13.333 12 25 14
s33.5 4.83301 65.5 8.5s66 5.5 102 5.5c67.333 0 128.666 -6.16699 183.999 -18.5s108.5 -32.833 159.5 -61.5s86.5 -59.167 106.5 -91.5s35 -64.833 45 -97.5s15 -64.334 15 -95.001c0 -174.667 -114 -307.334 -342 -398.001c-16 -12 -24 -22.667 -24 -32
c0 -16 13.5 -34.5 40.5 -55.5s77.5 -55.167 151.5 -102.5c19.333 -9.33301 42.333 -24.333 69 -45s44.667 -34.334 54 -41.001c28 -10.667 53 -24.5 75 -41.5s39.833 -27.167 53.5 -30.5s22.167 -6 25.5 -8c0 -6 4.66699 -12.667 14 -20
c24.667 -12.667 54.667 -31.667 90 -57s60 -38 74 -38c5.33301 0 9.33301 0.666992 12 2z" />
    <glyph glyph-name="S" unicode="S" horiz-adv-x="850" 
d="M684 1225c-7.33301 4.66699 -21.0068 16.333 -41.0068 35s-43.333 28 -70 28c-106.667 0 -190.667 -24 -252 -72s-92 -111.333 -92 -190c0 -85.333 91 -175.333 273 -270c12 0 25.833 -1.33301 41.5 -4s42 -21.834 79 -57.501s65.167 -67.667 84.5 -96s34 -57 44 -86
s15 -57.833 15 -86.5c0 -126.667 -29.667 -224.667 -89 -294s-165 -131.666 -317 -186.999c-8 2.66699 -15.333 4 -22 4c-10.667 0 -27.5 -5.83301 -50.5 -17.5s-69.833 -17.5 -140.5 -17.5c-25.333 0 -43.166 10.5 -53.499 31.5s-15.5 52.167 -15.5 93.5
c0 11.333 4.66699 23 14 35h8c17.333 0 35.333 -10.333 54 -31c40.667 -9.33301 65.667 -14 75 -14c7.33301 0 38.833 3.5 94.5 10.5s108.334 22.833 158.001 47.5s83.5 48.334 101.5 71.001s35.667 49.834 53 81.501s26 67.834 26 108.501
c0 60.667 -18.5 118.834 -55.5 174.501s-77.5 87.5 -121.5 95.5v3c0 11.333 -15 25.666 -45 42.999c-117.333 53.333 -199.5 106.166 -246.5 158.499s-70.5 114.166 -70.5 185.499c0 28.667 3.83301 56.667 11.5 84s18.834 53.5 33.501 78.5s32.834 48 54.501 69
s50.834 42.167 87.501 63.5s62.334 32 77.001 32h31c2 1.33301 9.33301 9 22 23c17.333 1.33301 37 6.66602 59 15.999s36 15 42 17c6.66699 -4 11.334 -9.66699 14.001 -17c18.667 4 37.667 6 57 6h21c30.667 0 54.334 -4 71.001 -12s25 -25 25 -51
c0 -21.333 -4.83301 -41.5 -14.5 -60.5s-19.834 -29.5 -30.501 -31.5z" />
    <glyph glyph-name="T" unicode="T" horiz-adv-x="1100" 
d="M1202 1346c-4 -33.333 -11.334 -60.001 -22.001 -80.001c-14 -2.66699 -21.667 -4 -23 -4c-23.333 0 -51 1.33301 -83 4s-53.333 4 -64 4c-8.66699 0 -15 -0.666992 -19 -2c-10 13.333 -55 20 -135 20l-168 -8h-6c-6 0 -12 -2 -18 -6
c-15.333 -56 -26.333 -133.333 -33 -232s-10 -177 -10 -235l6 -113l-14 -69c-4 -22.667 -6.5 -45.167 -7.5 -67.5s-1.5 -47.833 -1.5 -76.5l12 -215c0 -25.333 -3.33301 -39.666 -10 -42.999c6 -0.666992 12 -19.667 18 -57s11.667 -65.5 17 -84.5s8 -30.5 8 -34.5
c0 -9.33301 -17.667 -20.333 -53 -33c1.33301 -2 2 -5.33301 2 -10c0 -5.33301 -2 -8 -6 -8s-8 4 -12 12c-13.333 -10.667 -25 -18 -35 -22c-4 12 -13 18 -27 18c-6.66699 0 -16.334 -0.666992 -29.001 -2s-22 -2 -28 -2h-8c14 7.33301 19 32 15 74c-2 22 -3 39 -3 51
c0 0.666992 1 3.66699 3 9c22.667 59.333 34 183.333 34 372l6 457c0 146 -6.33301 237.333 -19 274c2 4 3 8.66699 3 14c0 7.33301 -1.33301 13.166 -4 17.499s-10 7.16602 -22 8.49902l-60 5c-27.333 2.66699 -46.666 4 -57.999 4c-53.333 0 -84.666 -8.66699 -93.999 -26
c-11.333 6.66699 -22.333 10 -33 10c-9.33301 0 -20.5 -2.83301 -33.5 -8.5s-31.167 -8.5 -54.5 -8.5c-26.667 0 -49 7.66699 -67 23c-2 4 -3 9.33301 -3 16c0 8.66699 3.16699 21.834 9.5 39.501s9.5 31.834 9.5 42.501v4c9.33301 5.33301 21 8 35 8
c8.66699 0 35.167 -3.33301 79.5 -10s92.833 -10 145.5 -10h150c36 0 69.333 4 100 12l6 13c8 -2.66699 12.667 -5.66699 14 -9l17 4c7.33301 0 16.5 -5 27.5 -15s19.5 -17 25.5 -21c6.66699 0 21.667 1.66699 45 5s45.333 5 66 5l163 4l29 -4h8
c11.333 0 31.5 1.66699 60.5 5s52.5 5 70.5 5c44 0 70 -8 78 -24z" />
    <glyph glyph-name="U" unicode="U" horiz-adv-x="1497" 
d="M1393 1370l8.00098 -0.000976562c12 0 22.667 -6.5 32 -19.5s16.333 -19.5 21 -19.5h6c11.333 0 17 -6 17 -18c0 -8.66699 -5.66699 -23.667 -17 -45c-4 -1.33301 -7.33301 -12.333 -10 -33c-3.33301 -25.333 -23.333 -107.333 -60 -246
c-30 -114 -56.667 -207.333 -80 -280c-28.667 -86.667 -57 -158.667 -85 -216l-60 -108c-2.66699 -9.33301 -4.66699 -19 -6 -29c-3.33301 -18 -31 -59.333 -83 -124c-42 -53.333 -88 -100.666 -138 -141.999c-89.333 -75.333 -144.666 -113 -165.999 -113
c-10 0 -20.833 2.33301 -32.5 7s-19.167 7.33398 -22.5 8.00098c-22.667 -14 -38.334 -21 -47.001 -21c-4.66699 0 -8.33398 0.666992 -11.001 2c-32.667 -4 -56.334 -6 -71.001 -6c-52.667 0 -108 21.167 -166 63.5s-98 108.833 -120 199.5s-38 210 -48 358
s-18 255.5 -24 322.5s-13.167 131.167 -21.5 192.5s-14 93.5 -17 96.5s-8.16699 4.5 -15.5 4.5c-8 44 -12 68.667 -12 74c0 9.33301 2.33301 18.666 7 27.999s9 16.333 13 21s14.333 9 31 13s31.5 8.5 44.5 13.5s21.833 9.66699 26.5 14s7.66699 6.5 9 6.5
c2 0 7.16699 -4.5 15.5 -13.5s18.333 -17.667 30 -26s17.5 -23.833 17.5 -46.5c0 -9.33301 -2 -20.5 -6 -33.5s-6 -33.167 -6 -60.5l2 -68l-2 -71c0 -163.333 4.66699 -296.5 14 -399.5s18.166 -176.333 26.499 -220s20.833 -96.5 37.5 -158.5s40.834 -107.5 72.501 -136.5
s50.834 -45.333 57.501 -49s22 -5.5 46 -5.5c3.33301 -22 30 -33 80 -33c44 0 91.333 13 142 39s89.334 56.167 116.001 90.5s51 72.333 73 114s43.667 79 65 112s47 81.5 77 145.5s57.667 147 83 249l7 26c7.33301 17.333 12 41.5 14 72.5s9 50.833 21 59.5
c31.333 126.667 47 209 47 247c0 22 -1.66699 40.333 -5 55s-5 30.667 -5 48c0 28 10.167 43 30.5 45s36.166 6.66699 47.499 14z" />
    <glyph glyph-name="V" unicode="V" horiz-adv-x="1346" 
d="M1407 1360c-156 -246 -316.996 -554.665 -482.996 -925.998l-150 -334v-14c0 -24 -8.16699 -48.5 -24.5 -73.5s-34.833 -38.167 -55.5 -39.5c-12.667 -12 -41.334 -18 -86.001 -18c-19.333 0 -31.333 8.33301 -36 25l-45 158c-76 258.667 -136.667 457.5 -182 596.5
s-86.333 245.667 -123 320s-57.334 115.5 -62.001 123.5v22c-38.667 54.667 -58 83.334 -58 86.001c0 6 8 12.667 24 20s28 13.666 36 18.999l39 25c15.333 2 27.666 6.66699 36.999 14l28 -14c8.66699 -52.667 24.667 -116.334 48 -191.001l70 -205
c23.333 -66 42 -121.333 56 -166c21.333 -64.667 40 -126.334 56 -185.001c21.333 -78 40.666 -137.333 57.999 -178l44 -108c13.333 -32 26.666 -58 39.999 -78c16 -26 34.667 -47.667 56 -65c18.667 10.667 36 25.834 52 45.501s32.333 48.834 49 87.501l291 647
c49.333 109.333 84.5 190.666 105.5 243.999s31.5 89 31.5 107c0 5.33301 -0.666992 8.66602 -2 9.99902c0.666992 43.333 20.334 65 59.001 65h10c8 0 20.333 4.5 37 13.5s29.667 13.5 39 13.5c27.333 0 41 -15.667 41 -47z" />
    <glyph glyph-name="W" unicode="W" horiz-adv-x="2042" 
d="M2028 1284l-35.0039 -57.001h-2c-6.66699 0 -15.667 -13 -27 -39s-24.833 -64.667 -40.5 -116s-33.5 -115.666 -53.5 -192.999l-83 -355c-36 -159.333 -54 -245.333 -54 -258l6 -71c0 -20 -11.5 -59.167 -34.5 -117.5s-45.167 -87.5 -66.5 -87.5
c-8 0 -15.333 3.33301 -22 10c1.33301 8 2 17 2 27c0 8 -17 37.5 -51 88.5s-68 109.333 -102 175s-72.667 134.167 -116 205.5s-88 151.833 -134 241.5s-96.667 202.834 -152 339.501c-6 12.667 -13.667 19 -23 19c-7.33301 0 -14.666 -2.33301 -21.999 -7
s-14.333 -11.667 -21 -21c-8 -10.667 -15 -21.334 -21 -32.001c-9.33301 -14.667 -23.333 -41.667 -42 -81l-300 -649c-40.667 -90 -73.667 -151 -99 -183c-5.33301 -48.667 -17.166 -86.167 -35.499 -112.5s-40.166 -39.5 -65.499 -39.5c-26.667 0 -42.667 8.66699 -48 26
s-9 64.666 -11 141.999c-47.333 364.667 -116 714.667 -206 1050c-14.667 55.333 -22 86.333 -22 93c0 26 11.333 46.5 34 61.5s42.334 22.5 59.001 22.5c38 0 57 -24.667 57 -74v-39c0 -119.333 26.333 -293.5 79 -522.5s78.834 -359.5 78.501 -391.5
s16.834 -60.333 51.501 -85c28.667 20.667 43 37 43 49v2c0 10.667 24.667 67 74 169l189 387c76 156.667 124.833 253.834 146.5 291.501s32.5 57.5 32.5 59.5l-3 26c10.667 20.667 16 34 16 40c8 4 12 9.33301 12 16v21c35.333 30 55.666 45 60.999 45
c4.66699 0 11.667 -3.33301 21 -10c-2.66699 -13.333 -4 -23 -4 -29c0 -1.33301 1.33301 -6 4 -14c2 -1.33301 4.66699 -3.66602 8 -6.99902l10 -11c6.66699 -7.33301 13 -20 19 -38c20 -66.667 43 -133.334 69 -200.001c26 -66 54.667 -131.667 86 -197
c32 -65.333 66 -129.666 102 -192.999c36.667 -64 75.334 -126.333 116.001 -187c42 -60.667 85.333 -119.667 130 -177c33.333 2 84.666 202 153.999 600c0.666992 32.667 7.33398 82 20.001 148s22.667 126.167 30 180.5s14.666 86.166 21.999 95.499
c29.333 6.66699 56 10 80 10c23.333 0 49.666 -3.33301 78.999 -10c-2.66699 -4 -4 -9.33301 -4 -16c0 -8.66699 3 -15.667 9 -21z" />
    <glyph glyph-name="X" unicode="X" horiz-adv-x="1276" 
d="M1108 1368c-34 -40 -65.0049 -78.3301 -93.0049 -114.997c-26 -34 -49 -65.667 -69 -95c-18 -27.333 -33 -52 -45 -74l-26 -53c-26 -33.333 -47.333 -62 -64 -86c-19.333 -27.333 -35 -51.333 -47 -72c-13.333 -21.333 -23 -40.333 -29 -57
c-6.66699 -16.667 -10 -31.334 -10 -44.001c0 -22.667 36.667 -83.667 110 -183l127 -178c24 -35.333 39 -55.333 45 -60c10.667 -9.33301 20.334 -18.833 29.001 -28.5s16.334 -19.167 23.001 -28.5s14.667 -21.333 24 -36c32.667 -49.333 66.5 -86.166 101.5 -110.499
s52.5 -48.166 52.5 -71.499c0 -10.667 -8 -21.834 -24 -33.501s-27.667 -21.834 -35 -30.501v-20l-4 -2c-1.33301 0 -3.5 1.33301 -6.5 4s-5.83301 4 -8.5 4h-2c-11.333 -9.33301 -23.666 -14 -36.999 -14c-14.667 0 -33.667 7.33301 -57 22c1.33301 1.33301 2 3.33301 2 6
c0 29.333 -51.333 116.666 -154 261.999c-28 30 -59.333 70.333 -94 121s-57.5 81.167 -68.5 91.5s-24 29.166 -39 56.499s-29.167 49.5 -42.5 66.5s-28 25.5 -44 25.5c-10.667 0 -21.5 -4 -32.5 -12s-23.167 -20 -36.5 -36l-89 -121l-88.5 -120.5
c-23.667 -33.667 -46.167 -71.5 -67.5 -113.5l-47 -97c-13.333 -27.333 -20 -46.333 -20 -57v-6c-22 -48 -36.333 -72 -43 -72h-6c-12 0 -24 -2.33301 -36 -7s-19.333 -7 -22 -7c-22.667 0 -52.667 17.667 -90 53c6 8.66699 13.667 17.667 23 27s14 15.333 14 18
c0 2 -3.33301 4 -10 6c55.333 17.333 97 61.666 125 132.999c12.667 22.667 31.5 48.334 56.5 77.001s42.833 50 53.5 64l52 70c24.667 32.667 56.334 77.667 95.001 135l111 168l-155 208c-76 102.667 -136.833 176.334 -182.5 221.001s-87.5 71.667 -125.5 81
c-8 8.66699 -12 15.667 -12 21c0 4 11 24 33 60s46.667 57 74 63l8 14c28 -8.66699 47 -30 57 -64c0 -21.333 25.833 -61 77.5 -119s112.834 -134.5 183.501 -229.5s116 -142.5 136 -142.5c6 0 12.667 4.66699 20 14l73 107c42 61.333 75.833 121.666 101.5 180.999
s40.167 113 43.5 161c11.333 7.33301 22.833 19.166 34.5 35.499s21.167 27 28.5 32s20.5 9.66699 39.5 14s40.167 6.5 63.5 6.5c7.33301 0 15.333 -5.16699 24 -15.5s15.667 -16.166 21 -17.499z" />
    <glyph glyph-name="Y" unicode="Y" horiz-adv-x="1167" 
d="M1145 1354c1.33301 -6.66699 2.00488 -14.998 2.00488 -24.998c0 -22 -10.333 -35.667 -31 -41c-32 -36 -75.333 -100.833 -130 -194.5s-117.5 -192.5 -188.5 -296.5s-112.833 -168.5 -125.5 -193.5s-19 -45.167 -19 -60.5v-27l-2 -186
c0 -74.667 3.83301 -136.667 11.5 -186s11.5 -76.333 11.5 -81c0 -40.667 -26.667 -61 -80 -61c-21.333 0 -44 2.66699 -68 8c-2.66699 8 -4 12.333 -4 13c0 3.33301 1.33301 10.166 4 20.499s4 19.166 4 26.499c0 8.66699 0.833008 18 2.5 28s4.5 23 8.5 39s6 32.333 6 49
l1 61l1 70c0 71.333 -3.33301 128.333 -10 171s-19.834 81.334 -39.501 116.001s-58 93.167 -115 175.5l-154.5 228c-46 69.667 -78.167 117.167 -96.5 142.5s-32.833 40.666 -43.5 45.999c-6.66699 14.667 -20.334 26.334 -41.001 35.001c-5.33301 12.667 -8 23.667 -8 33
c0 24.667 9.66699 40.334 29 47.001c17.333 25.333 35.5 40.5 54.5 45.5s32.167 8.83301 39.5 11.5c11.333 -45.333 24.666 -75.833 39.999 -91.5s36.666 -48.334 63.999 -98.001s52.666 -82.834 75.999 -99.501c4 -18.667 8.66699 -28 14 -28h7v-4
c0 -15.333 12.333 -38.333 37 -69s48.667 -67.5 72 -110.5s51.5 -84 84.5 -123s55.167 -58.5 66.5 -58.5c1.33301 0 2 0.666992 2 2c6.66699 0 47.667 49.833 123 149.5s142.666 242.5 201.999 428.5c13.333 40 27.5 67.167 42.5 81.5s43.167 23.833 84.5 28.5l6 2
c4.66699 0 13.334 -3.5 26.001 -10.5s24 -11.5 34 -13.5z" />
    <glyph glyph-name="Z" unicode="Z" horiz-adv-x="1284" 
d="M1204 109c11.333 -11.333 16.9961 -25.666 16.9961 -42.999c0 -10 -6.33301 -41.667 -19 -95c-25.333 -5.33301 -54.666 -8 -87.999 -8c-19.333 0 -33 0.666992 -41 2l-26 4h-9c-6.66699 0 -16 4.33301 -28 13c-84 14.667 -204.333 22 -361 22
c-65.333 0 -185.333 -2.66699 -360 -8c-80 -24.667 -128.667 -37 -146 -37c-24 0 -51.333 4.66699 -82 14c2 40.667 13.167 73.5 33.5 98.5s30.5 40.167 30.5 45.5c0 4 -0.666992 6.66699 -2 8c20.667 10.667 33 18 37 22c0 5.33301 2 15 6 29
c44.667 37.333 72.5 60 83.5 68s16.5 19.667 16.5 35v6l2 -2c3.33301 0 8 2.33301 14 7s12.667 11.5 20 20.5s15.333 20.333 24 34s17.667 29.334 27 47.001s18 37.167 26 58.5c2.66699 6 11.5 16.167 26.5 30.5l28.5 27.5c96.667 160 218 339.333 364 538
c28 36.667 44 60 48 70s6.66699 19.667 8 29c6.66699 13.333 17.834 30.5 33.501 51.5s23.5 37.167 23.5 48.5c0 6 -0.666992 11 -2 15c-108 -1.33301 -188.333 -5.5 -241 -12.5s-80 -10.5 -82 -10.5c-10 0 -22.667 1.66699 -38 5s-25.333 5 -30 5
c-7.33301 0 -15.333 -2.66699 -24 -8c-34 9.33301 -73 14 -117 14l-43 -2c-3.33301 -5.33301 -9.66602 -8 -18.999 -8c-11.333 0 -22.666 3.33301 -33.999 10c-6 14 -9 23 -9 27c0 27.333 9.66699 47.666 29 60.999s31.666 22.333 36.999 27
c137.333 -6.66699 220 -10 248 -10l133 10c46.667 4 74.667 6.66699 84 8l14 -14h23c68 0 132.667 16.333 194 49l13 -12c14 21.333 31.833 30 53.5 26s39.834 -6 54.501 -6h4c20.667 0 31 -10 31 -30c0 -14.667 -26.667 -48 -80 -100
c-45.333 -45.333 -90.5 -97.5 -135.5 -156.5s-108.5 -147.833 -190.5 -266.5l-221 -322l-157.5 -237l-91.5 -147c-20.667 -34.667 -31 -53.334 -31 -56.001c0 -10.667 26.333 -16 79 -16l162 8l76 -6c40 0 124.333 3.83301 253 11.5s224 11.5 286 11.5
c28 0 49.667 -1.33301 65 -4z" />
    <glyph glyph-name="bracketleft" unicode="[" horiz-adv-x="860" 
d="M600 1470c9.33301 -14.667 14.002 -26.001 14.002 -34.001c0 -5.33301 -2.66699 -11.666 -8 -18.999c-10.667 -2.66699 -17.334 -4 -20.001 -4c-7.33301 0 -17.666 1.66699 -30.999 5s-23.666 5 -30.999 5c-5.33301 0 -16 -2.66699 -32 -8v-14l-15 -8
c-14.667 -462.667 -22 -800 -22 -1012l-2 -223c0 -115.333 10.667 -182.333 32 -201c-0.666992 -8 -4.16699 -15.333 -10.5 -22s-9.5 -11 -9.5 -13c0 -13.333 15 -20 45 -20l47 2h14c14 -6 21 -13.667 21 -23c0 -6 -2.66699 -12.667 -8 -20c-13.333 -5.33301 -23 -8 -29 -8
c-10 0 -22 1 -36 3s-24 3 -30 3c-6.66699 0 -18 -1.33301 -34 -4c-4 -8 -6 -15.667 -6 -23c-1.33301 0 -3 -0.666992 -5 -2c-5.33301 0 -11.333 6.66699 -18 20c-22.667 -14.667 -42.334 -22 -59.001 -22l-9 -2c-16.667 0 -30.334 13.667 -41.001 41
c27.333 197.333 41 494.333 41 891l-6 682c18.667 30 37.334 45 56.001 45c1.33301 0 12.666 -1.33301 33.999 -4c11.333 -5.33301 23.666 -8 36.999 -8c9.33301 0 22.5 0.666992 39.5 2s29.833 2 38.5 2c20 0 34.333 -2.33301 43 -7z" />
    <glyph glyph-name="backslash" unicode="\" horiz-adv-x="684" 
d="M653 -55c0 -20 -11.168 -33.167 -33.501 -39.5s-37.833 -9.5 -46.5 -9.5c-22.667 0 -40.667 10.5 -54 31.5s-24.666 57.5 -33.999 109.5c-6 8 -14 12 -24 12c2.66699 8.66699 4 15.667 4 21c0 32.667 -7 75.167 -21 127.5s-56.5 168.333 -127.5 348
s-117.167 302.667 -138.5 369s-35.5 108 -42.5 125s-10.5 29.5 -10.5 37.5v4c-4.66699 12.667 -17.167 38 -37.5 76s-30.5 62.667 -30.5 74l2 41c0 20 -2 35 -6 45c-27.333 40.667 -41 76.667 -41 108c0 6 1.33301 11.667 4 17c40.667 9.33301 64.667 14 72 14
c3.33301 0 5.66602 -0.166992 6.99902 -0.5s3.16602 -1.83301 5.49902 -4.5s5.83301 -5.66699 10.5 -9l19 -13c2.66699 -1.33301 12.334 -18 29.001 -50l21 -43c7.33301 -14 11.333 -22.333 12 -25c2 -8 3 -19 3 -33l-2 -45c0 -2 2.33301 -9.83301 7 -23.5
s9.5 -29.334 14.5 -47.001s8.83301 -36.667 11.5 -57s8.66699 -41 18 -62s17.333 -35.167 24 -42.5c-1.33301 -16 -4.66602 -31.667 -9.99902 -47c19.333 -46 30.166 -75.667 32.499 -89s10.5 -27.333 24.5 -42l-6 -24c3.33301 0 34 -65.667 92 -197
c-2.66699 -16 -4 -25.667 -4 -29c0 -1.33301 9.33301 -23.833 28 -67.5s30.667 -69.667 36 -78s7.83301 -16.666 7.5 -24.999s2.66699 -22.5 9 -42.5s15.833 -36.333 28.5 -49c9.33301 -20 21.333 -55.167 36 -105.5s27.334 -88.833 38.001 -115.5
c26 -32 42.5 -63.167 49.5 -93.5s14.833 -47.5 23.5 -51.5z" />
    <glyph glyph-name="bracketright" unicode="]" horiz-adv-x="860" 
d="M541 1477c-19.333 -646.667 -29.001 -1015.34 -29.001 -1106c0 -153.333 2.66699 -267.666 8 -342.999l8 -112c0 -17.333 -4.5 -31.833 -13.5 -43.5s-29.5 -28.5 -61.5 -50.5c0 14.667 -7.66699 22 -23 22c-1.33301 0 -11.166 2.16699 -29.499 6.5s-36.5 6.5 -54.5 6.5
s-45.667 -2.5 -83 -7.5s-65.666 -7.5 -84.999 -7.5c-30 0 -45 3.66699 -45 11c0 2.66699 3.33301 7.83398 10 15.501s23 13.334 49 17.001s44 5.5 54 5.5l106 -4c8 0 17.167 3.5 27.5 10.5s14 37.5 11 91.5s-0.5 195.333 7.5 424s12 375.667 12 441l-2 199c0 58 2 118 6 180
s6 98.667 6 110c0 50.667 -20.667 76 -62 76c-12.667 0 -31.667 -2.66699 -57 -8s-44.333 -8 -57 -8c-41.333 0 -62 7.33301 -62 22c0 34.667 37 52 111 52c29.333 0 58.666 -3 87.999 -9l8 15c5.33301 -5.33301 11.666 -8 18.999 -8c8.66699 0 16.167 4.16699 22.5 12.5
s16.333 15.833 30 22.5s26.834 10 39.501 10c8 0 14 -0.666992 18 -2z" />
    <glyph glyph-name="asciicircum" unicode="^" horiz-adv-x="2048" 
d="M1624 901h-158l-442 438l-442 -438h-160l520 557h162z" />
    <glyph glyph-name="underscore" unicode="_" 
d="M1024 -375h-1024v103h1024v-103z" />
    <glyph glyph-name="grave" unicode="`" 
d="M637 1243c79.333 -46.667 119.003 -81.999 119.003 -105.999c0 -6 -5 -10.333 -15 -13c-17.333 13.333 -65.333 30.666 -144 51.999l-210 59c-8.66699 -2.66699 -19.334 -6.83398 -32.001 -12.501s-21 -8.5 -25 -8.5h-2l2 7c0 4.66699 -7 9.33398 -21 14.001
c-3.33301 -5.33301 -7.33301 -8 -12 -8c-2.66699 0 -7.16699 1.33301 -13.5 4s-11.5 4 -15.5 4h-6c2.66699 6 -20.333 15.667 -69 29l-5 32c0 21.333 9.16699 41 27.5 59s34.5 27 48.5 27c7.33301 0 19.666 -5.33301 36.999 -16c31.333 0 79 -19.667 143 -59
c87.333 -42.667 144.666 -64 171.999 -64h21z" />
    <glyph glyph-name="a" unicode="a" horiz-adv-x="893" 
d="M750 541c0 -5.33301 -4.50293 -12.6699 -13.5029 -22.0029s-15.167 -17.666 -18.5 -24.999s-6 -26.833 -8 -58.5s-3 -78.5 -3 -140.5l4 -135c0 -7.33301 -3 -13.666 -9 -18.999c-1.33301 -7.33301 -2 -19.666 -2 -36.999c0 -24.667 4 -56 12 -94l11 -53l-2 -49l2 -43
c-48 -48 -83.667 -72 -107 -72c-3.33301 0 -9.66602 2.33301 -18.999 7s-18 7 -26 7h-6c-5.33301 18.667 -8 35.334 -8 50.001c0 32.667 7.66699 64 23 94c7.33301 9.33301 12.833 16.666 16.5 21.999s5.5 25.333 5.5 60c0 38 -4 57 -12 57
c-1.33301 0 -5.5 -1.33301 -12.5 -4s-14.5 -4 -22.5 -4h-8c-8 -5.33301 -13 -12.333 -15 -21c-8 0.666992 -51.667 -14.333 -131 -45c-38.667 -13.333 -76 -20 -112 -20c-39.333 0 -74.666 5.16699 -105.999 15.5s-57.666 25.666 -78.999 45.999s-35.166 35.5 -41.499 45.5
s-9.5 31.667 -9.5 65l2 25v8c0 66.667 51.833 136.667 155.5 210s200.5 117.666 290.5 132.999c24 4 42.667 8.16699 56 12.5s24.5 11.5 33.5 21.5s13.5 33 13.5 69c0 118.667 -62.667 199.334 -188 242.001c-4 1.33301 -9.5 4 -16.5 8s-13.167 6 -18.5 6
c-64.667 0 -118.667 -2.66699 -162 -8c-24 -27.333 -50.667 -41 -80 -41c-22 0 -33 7.66699 -33 23c0 0.666992 4.83301 14.834 14.5 42.501s32.834 41.5 69.501 41.5c42 22.667 118.667 34 230 34c89.333 0 158.666 -34.667 207.999 -104s74 -168.333 74 -297v-14
c5.33301 -8.66699 14.666 -15 27.999 -19s20 -10 20 -18v-2zM552.997 185.996c42 56.667 63.002 107.332 63.002 151.999c0 27.333 -6.83301 57 -20.5 89s-40.834 48 -81.501 48c-78.667 0 -142.667 -19.667 -192 -59h-25c-102.667 -56.667 -154 -116.667 -154 -180
c0 -44.667 21.167 -82.167 63.5 -112.5s91.5 -45.5 147.5 -45.5c14.667 0 42.667 6.33301 84 19s79.666 36.334 114.999 71.001v18z" />
    <glyph glyph-name="b" unicode="b" horiz-adv-x="1087" 
d="M354 911c4.66699 9.33301 22.1689 16.8301 52.502 22.4971s55.166 8.5 74.499 8.5l154 -12c51.333 -4 98.666 -14.833 141.999 -32.5s87.666 -43.5 132.999 -77.5c32 -24.667 57.667 -62 77 -112s29 -99.667 29 -149c0 -154.667 -76.667 -281.667 -230 -381
c-5.33301 -2 -10.666 -7.66699 -15.999 -17c-4 -7.33301 -7.66699 -12 -11 -14c-14.667 -9.33301 -27 -16.666 -37 -21.999s-24 -11.166 -42 -17.499s-38.167 -12.166 -60.5 -17.499s-47.5 -10.666 -75.5 -15.999c-4.66699 -1.33301 -11.5 -4.83301 -20.5 -10.5
s-14.833 -8.5 -17.5 -8.5s-4.66699 0.666992 -6 2c-8 0 -48.333 -15 -121 -45l-12 13c-22 -4.66699 -38 -15.667 -48 -33c0 -10.667 -7.16699 -20.5 -21.5 -29.5s-31.5 -13.5 -51.5 -13.5c-14 0 -24 3.33301 -30 10s-17.333 10 -34 10c-2.66699 0 -10.667 -1.33301 -24 -4v4
c0 8.66699 -2.5 18.5 -7.5 29.5s-7.5 18.167 -7.5 21.5c0 6.66699 9.66699 17.834 29 33.501s29 27.167 29 34.5v2c17.333 189.333 26 377.666 26 564.999c0 352.667 -10 604.667 -30 756c-14 20 -21 33 -21 39l2 23c0 5.33301 -1 17.666 -3 36.999s-3 37 -3 53
c0 23.333 8.5 36.333 25.5 39s31 5.66699 42 9s17.167 5 18.5 5c4 0 10 -1.5 18 -4.5s14.667 -4.66699 20 -5s22.666 -10.833 51.999 -31.5c6.66699 -29.333 10 -49 10 -59c0 -7.33301 -0.666992 -11.666 -2 -12.999c-0.666992 -2.66699 -2.66699 -8.66699 -6 -18
c-27.333 -74.667 -41 -189.334 -41 -344.001c0 -89.333 2.83301 -150 8.5 -182s15.834 -48 30.501 -48h6zM336.002 818.997c-12.667 -288.667 -19 -471.003 -19 -547.003c0 -64.667 9.66699 -108 29 -130s52.666 -33 99.999 -33c44.667 0 99.167 9.83301 163.5 29.5
s122.5 54.334 174.5 104.001s86.833 97.334 104.5 143.001s26.5 91.834 26.5 138.501c0 81.333 -36.333 151.833 -109 211.5s-149.667 89.5 -231 89.5h-36l-72 4c-28.667 0 -54.667 -8.66699 -78 -26c-10 16 -22.333 24 -37 24c-7.33301 0 -12.666 -2.66699 -15.999 -8z" />
    <glyph glyph-name="c" unicode="c" horiz-adv-x="870" 
d="M782 152c31.333 -19.333 47.0039 -45.3311 47.0039 -77.998c0 -42.667 -11.333 -64 -34 -64h-9c-6 0 -27.5 -3.66699 -64.5 -11s-77.5 -11 -121.5 -11h-25l-71 -4c-26 0 -50 2.66699 -72 8c-10.667 4.66699 -36.167 13.334 -76.5 26.001s-67.833 23.5 -82.5 32.5
s-33.167 23.667 -55.5 44s-41.833 42.166 -58.5 65.499s-30.834 48.333 -42.501 75s-20.334 54.667 -26.001 84s-8.5 59.666 -8.5 90.999c0 93.333 16.667 172.833 50 238.5s87.666 124.5 162.999 176.5c11.333 6 27.333 16.167 48 30.5s37 24 49 29s47.333 12.833 106 23.5
s118 16 178 16h37c12 2.66699 25.667 4 41 4c31.333 0 47 -13.667 47 -41c0 -4.66699 -1 -11.834 -3 -21.501s-3 -16.834 -3 -21.501l2 -76c-10.667 -2.66699 -18.334 -4 -23.001 -4c-16 0 -35.667 5.33301 -59 16c-26 23.333 -47.333 35 -64 35h-14
c-8 0 -26.333 2.66699 -55 8s-54.667 8 -78 8c-17.333 0 -39.333 -8 -66 -24c-8 4 -14.667 6 -20 6h-4c-2.66699 0 -7 -2.66699 -13 -8c-22.667 -20.667 -53.334 -37.667 -92.001 -51c-29.333 -11.333 -54 -36.333 -74 -75s-39.667 -67.667 -59 -87
c-5.33301 -42 -8 -81 -8 -117c0 -81.333 9 -139.833 27 -175.5s43.333 -68.167 76 -97.5s55 -51 67 -65h29c6.66699 -18.667 22.334 -28 47.001 -28c14 0 34.5 -3.16699 61.5 -9.5s47.5 -9.5 61.5 -9.5l30 2h23c34 0 59.833 3 77.5 9s39.167 11.333 64.5 16
s42 16.334 50 35.001z" />
    <glyph glyph-name="d" unicode="d" horiz-adv-x="1069" 
d="M926 -125l-90.0059 -124.996h-27c-12 8 -23 12 -33 12c-8.66699 18.667 -17.334 45.334 -26.001 80.001c8 20.667 12 40.667 12 60l2 112c0 43.333 -7 82.333 -21 117c-4 -2.66699 -10.333 -4.33398 -19 -5.00098s-15 -2.33398 -19 -5.00098
c-66 -48 -122 -78.5 -168 -91.5s-92.667 -19.5 -140 -19.5c-73.333 0 -137.5 17.667 -192.5 53s-90.833 80.666 -107.5 135.999s-25 99 -25 131c0 52.667 2.33301 89.167 7 109.5s17.334 51.333 38.001 93l49.5 99c12.333 24.333 37.666 53.166 75.999 86.499
s80.5 64.333 126.5 93c40.667 12 83.834 28.167 129.501 48.5s76.834 31.5 93.501 33.5l6 -14c29.333 17.333 56 26 80 26h2c16.667 0 25 13 25 39c0 85.333 -4 175.5 -12 270.5s-14 147.667 -18 158s-14 19.166 -30 26.499c-4 12.667 -6 27.667 -6 45c0 50.667 17 76 51 76
c32 21.333 55.333 32 70 32c10.667 0 23.5 -5.66699 38.5 -17s23.833 -17.166 26.5 -17.499s4 -4.5 4 -12.5c0 -3.33301 -2.83301 -14.666 -8.5 -33.999s-8.83398 -38 -9.50098 -56c-13.333 -9.33301 -20 -26.333 -20 -51l2 -51c0 -104 3.66699 -187 11 -249s11 -95 11 -99
c0 -2.66699 -0.666992 -7 -2 -13s-2 -10.667 -2 -14c0 -12.667 5.33301 -25.667 16 -39l15 6c2.66699 -9.33301 12.334 -16 29.001 -20c32 -6.66699 46.333 -20.167 43 -40.5s-5.66602 -36.833 -6.99902 -49.5h-8c-7.33301 0 -16.166 -2.16699 -26.499 -6.5
s-17.166 -6.5 -20.499 -6.5c-5.33301 0 -10.666 1.33301 -15.999 4c0 1.33301 -0.666992 2 -2 2c-7.33301 0 -11 -65.333 -11 -196c0 -80 6.33301 -170 19 -270c10.667 -14.667 19.334 -27.667 26.001 -39c-4 -24.667 -6 -47.334 -6 -68.001c0 -25.333 2.5 -59 7.5 -101
s7.5 -71 7.5 -87l-3 -25c0 -5.33301 3.16699 -9.33301 9.5 -12s9.5 -5.33398 9.5 -8.00098v-2l-4 -13zM677.994 801.004c-15.333 3.33301 -30.333 5.66699 -45 7l-43 5c-12 0 -26 -2 -42 -6l-22 -6h-45c-89.333 -28 -163.833 -82.833 -223.5 -164.5
s-89.5 -163.5 -89.5 -245.5c0 -85.333 25.167 -155.166 75.5 -209.499s116.5 -81.5 198.5 -81.5c68 0 128.5 10.167 181.5 30.5s84.167 44.5 93.5 72.5s14 86 14 174c0 93.333 -6.66699 225.666 -20 396.999c-19.333 6.66699 -30.333 10.667 -33 12v15z" />
    <glyph glyph-name="e" unicode="e" horiz-adv-x="936" 
d="M856 639c5.33301 -5.33301 7.99707 -13.002 7.99707 -23.002c0 -19.333 -5.33301 -33.666 -16 -42.999c1.33301 -0.666992 2 -2.66699 2 -6c0 -10.667 -14.333 -16 -43 -16h-14c-4 0 -8 -2.33301 -12 -7s-7 -7 -9 -7c-0.666992 0 -3.83398 2 -9.50098 6
s-14.167 6.66699 -25.5 8l-12 12c-14.667 -4 -29 -6 -43 -6c-10.667 0 -25.5 1.33301 -44.5 4s-32.833 4 -41.5 4c-7.33301 0 -22.833 -2 -46.5 -6s-44.5 -6 -62.5 -6l-98 4c-52.667 0 -100.334 -4.66699 -143.001 -14c-6 -3.33301 -14.833 -5.83301 -26.5 -7.5
s-18 -7 -19 -16s-7.83301 -16.167 -20.5 -21.5c-6.66699 -27.333 -10 -52 -10 -74c0 -17.333 5 -50.333 15 -99s23.333 -83.334 40 -104.001c4 -4.66699 32.667 -26 86 -64c34 -25.333 70.833 -44.5 110.5 -57.5s85.5 -19.5 137.5 -19.5c20.667 0 46.334 1.66699 77.001 5
l42 5h65c6.66699 0 19.167 6 37.5 18s36.833 19 55.5 21c8 -18.667 12 -35 12 -49c0 -31.333 -9.5 -58.666 -28.5 -81.999s-40.833 -35 -65.5 -35l-21 4l-63 -2h-54c-25.333 0 -87.666 10.667 -186.999 32s-172.666 49.333 -219.999 84s-82 79.5 -104 134.5
s-33 108.167 -33 159.5c0 69.333 13.333 139.833 40 211.5s57 127.334 91 167.001s85.667 80.834 155 123.501c6.66699 3.33301 16.834 10.166 30.501 20.499s26.834 15.5 39.501 15.5l33 -2c14 9.33301 39.167 17.166 75.5 23.499s65.833 9.5 88.5 9.5
c40.667 0 85.167 -15 133.5 -45s77.5 -92.667 87.5 -188c2 -16.667 4.83301 -30.167 8.5 -40.5s5.5 -16.166 5.5 -17.499c0 -4 -1.33301 -8.66699 -4 -14zM445.997 857.998c-4 -6 -23 -17.001 -57 -33.001c-16.667 -12 -32.667 -25.667 -48 -41s-30.333 -31.833 -45 -49.5
l-38.5 -47.5c-11 -14 -19.5 -24.5 -25.5 -31.5s-9 -13.167 -9 -18.5c0 -7.33301 4.66699 -12.666 14 -15.999l13 -5h74l348 13c44.667 0 67 19.667 67 59c0 41.333 -8.16699 77.5 -24.5 108.5s-59.166 55.5 -128.499 73.5c-8 0 -19.333 0.666992 -34 2s-25.334 2 -32.001 2
c-6 0 -30.667 -5.33301 -74 -16z" />
    <glyph glyph-name="f" unicode="f" horiz-adv-x="639" 
d="M903 1812c15.333 -2.66699 26.999 -11.5059 34.999 -26.5059s12 -27.833 12 -38.5c0 -18 -10.667 -30.333 -32 -37v-4c0 -21.333 -14.667 -34.333 -44 -39c-11.333 14 -28.333 21 -51 21c-5.33301 0 -10 -5 -14 -15c-16 2.66699 -27.667 4 -35 4
c-30.667 0 -47 -7.33301 -49 -22h-18c-44 0 -71.333 -8.33301 -82 -25c-4.66699 -3.33301 -19.334 -12 -44.001 -26s-44.667 -27.833 -60 -41.5s-34.833 -38.5 -58.5 -74.5s-46.167 -81.167 -67.5 -135.5s-34.833 -99.666 -40.5 -135.999s-14 -78.166 -25 -125.499
s-16.5 -75 -16.5 -83c0 -60 17.333 -90 52 -90c6.66699 0 12 0.666992 16 2c6 -8.66699 13.333 -13 22 -13c2.66699 0 6.5 0.833008 11.5 2.5s13 1.66699 24 0s21.833 -2.5 32.5 -2.5c16 0 42.833 4.16699 80.5 12.5s68.167 12.5 91.5 12.5c4 0 12.667 -1.16699 26 -3.5
s20.666 -6.33301 21.999 -12s3.66602 -18.167 6.99902 -37.5h-2c-7.33301 0 -19.666 -11 -36.999 -33c-2.66699 4 -7.33398 8.66699 -14.001 14c-4 -10.667 -13 -16 -27 -16c-9.33301 0 -31.166 1.66699 -65.499 5s-64.166 5 -89.499 5c-8 0 -18.833 -0.666992 -32.5 -2
s-23.5 -2 -29.5 -2c-4.66699 0 -14.667 1.33301 -30 4c-6 -2.66699 -11 -4 -15 -4c-3.33301 0 -8.66602 1.33301 -15.999 4c0 -5.33301 -2.66699 -8 -8 -8l-4 2c-11.333 0 -17 -74.333 -17 -223v-111c0 -66 4.5 -142.667 13.5 -230s14.833 -135.5 17.5 -144.5
s8.66699 -18.5 18 -28.5c-1.33301 -4 -2 -10.333 -2 -19c0 -11.333 3.5 -26.166 10.5 -44.499s10.5 -32.166 10.5 -41.499v-6c-20.667 -13.333 -42.667 -28.333 -66 -45c-12.667 -19.333 -28.334 -29 -47.001 -29h-4l-25.5 30c-11.667 14 -22.167 21 -31.5 21l-8 -2
c-8.66699 18.667 -13 31.667 -13 39c0 4 5.83301 12.5 17.5 25.5s17.5 33.833 17.5 62.5l-2 23l4 93c2.66699 69.333 4 139.333 4 210c0 70 -2.66699 143.833 -8 221.5s-8 124.834 -8 141.501l2 40c0 7.33301 -8.33301 11 -25 11c-2 0 -6.33301 -0.666992 -13 -2
s-11.667 -2 -15 -2c-6 0 -10.333 0.666992 -13 2c-5.33301 -2 -8 -6.33301 -8 -13c-4 8.66699 -8.66699 13 -14 13l-21 -2c-1.33301 0 -4.66602 2.66699 -9.99902 8v2c0 9.33301 7.33301 18.666 22 27.999s25 17 31 23h19c9.33301 7.33301 14 16.333 14 27h8
c10.667 0 19.334 4.5 26.001 13.5s13.5 37.5 20.5 85.5s11.5 88 13.5 120c20 106.667 49.167 196.834 87.5 270.501s72.833 128.834 103.5 165.501s69.667 71.167 117 103.5s79.666 48.5 96.999 48.5h11c21.333 19.333 47 30 77 32l27 19
c84.667 8.66699 130.334 18 137.001 28z" />
    <glyph glyph-name="g" unicode="g" horiz-adv-x="1040" 
d="M877 981c-15.333 -72 -22.9961 -190 -22.9961 -354c0 -53.333 3 -137 9 -251s9 -214.667 9 -302c0 -166.667 -16.333 -299.834 -49 -399.501s-59.334 -149.5 -80.001 -149.5l-6 2c-17.333 -49.333 -60.666 -82.5 -129.999 -99.5s-120 -25.5 -152 -25.5c-14 0 -34 2 -60 6
s-45 6 -57 6c-14 0 -23.667 -0.666992 -29 -2c-9.33301 -9.33301 -19.333 -14 -30 -14c-8 0 -14.333 3.33301 -19 10c-6 -8 -16.333 -12 -31 -12l-18 2c-2 0 -6.5 -1 -13.5 -3s-11.5 -3 -13.5 -3c-6.66699 0 -14.834 4.16699 -24.501 12.5s-14.5 22.5 -14.5 42.5
c0 11.333 1.16699 25.333 3.5 42s3.5 28 3.5 34v22c0 8 4.66699 17.667 14 29h8c14 0 36 -9 66 -27c71.333 -42 144.333 -63 219 -63c58 0 103.667 11.667 137 35c41.333 2 63.333 15.667 66 41c11.333 4.66699 31.166 38.5 59.499 101.5s42.5 159.5 42.5 289.5v29
c-10 17.333 -27.667 26 -53 26c-13.333 0 -29.666 -2 -48.999 -6s-37.333 -6 -54 -6c-28.667 0 -70.834 3.5 -126.501 10.5s-99.334 14.833 -131.001 23.5s-70.334 26.667 -116.001 54s-78.167 55 -97.5 83s-35 60.667 -47 98s-18 76 -18 116
c0 76.667 20.833 148.5 62.5 215.5s101.834 124.833 180.501 173.5c6.66699 2 12.667 7.33301 18 16c13.333 22.667 65 44 155 64l118 31h2c8.66699 0 49 13.667 121 41l14 -17c4.66699 10.667 7 33.334 7 68.001v45h18c61.333 0 97.666 -11.667 108.999 -35zM684.004 143
c2 -8 9.00195 -11.999 21.002 -11.999c38 0 57 43.667 57 131l-17 459l5 33c0 46 -31.667 69 -95 69c-47.333 0 -103.833 -8.66699 -169.5 -26s-124.834 -50.833 -177.501 -100.5s-88.167 -97.834 -106.5 -144.501s-27.5 -92.667 -27.5 -138c0 -60 19.667 -113.333 59 -160
s87.666 -83.334 144.999 -110.001s140.333 -40 249 -40c7.33301 0 15 1.33301 23 4s19.333 14.334 34 35.001z" />
    <glyph glyph-name="h" unicode="h" horiz-adv-x="1114" 
d="M205 1692c7.33301 4 17.1689 6.83008 29.502 8.49707s24.166 3.5 35.499 5.5l35 8c28.667 0 43 -21 43 -63c0 -7.33301 -1.33301 -24.666 -4 -51.999c-8 -36 -12 -80.333 -12 -133l4 -149l-4 -225c0 -136.667 4.16699 -218 12.5 -244s22.5 -39 42.5 -39
c7.33301 0 25.5 8 54.5 24l71 38c18.333 9.33301 38.833 18.166 61.5 26.499s44.334 13.5 65.001 15.5l56 6c18 2 33.333 3 46 3h17c53.333 -12 94.166 -33.667 122.499 -65s46.666 -70.666 54.999 -117.999s12.5 -127.666 12.5 -240.999
c0 -84 -10.833 -172.167 -32.5 -264.5s-32.5 -141.5 -32.5 -147.5v-10c0 -8.66699 2.5 -20.5 7.5 -35.5s7.83301 -25.833 8.5 -32.5c-18 -32.667 -40.667 -49 -68 -49h-18c-5.33301 0 -11.833 -1 -19.5 -3s-12.834 -3 -15.501 -3c-3.33301 0 -13.666 4.83301 -30.999 14.5
s-26 19.834 -26 30.501c0 3.33301 3.66699 12.333 11 27c28.667 57.333 54.5 136 77.5 236s34.5 194.667 34.5 284v69c0 68.667 -17.667 123.834 -53 165.501s-81.333 62.5 -138 62.5c-27.333 0 -67 -8.33301 -119 -25s-79.667 -32.334 -83 -47.001
c-10 0 -21.333 -3.5 -34 -10.5s-21.167 -11.333 -25.5 -13s-7.5 -6.83398 -9.5 -15.501s-3.66699 -14.667 -5 -18c-8 2.66699 -13.667 4 -17 4c-4 0 -9.33301 -3.33301 -16 -10c0 -7.33301 -1.5 -15.833 -4.5 -25.5s-6.33301 -53.834 -10 -132.501s-5.5 -138 -5.5 -178
c0 -40.667 2 -82.667 6 -126l6 -50v-2c0 -6.66699 3 -20 9 -40s9 -32.667 9 -38c0 -4 -1.66699 -10 -5 -18s-5 -15 -5 -21v-2h2c10.667 0 16 -9 16 -27c0 -1.33301 -2.66699 -4.66602 -8 -9.99902c-15.333 -2 -30 -7.66699 -44 -17s-22.333 -14.666 -25 -15.999
c-14.667 2 -25.667 9 -33 21c-32 1.33301 -54.667 5 -68 11s-20 16.667 -20 32c0 8.66699 1 14.5 3 17.5s3 5.16699 3 6.5s-1 4.33301 -3 9s-3 9.33398 -3 14.001c0 2 2.66699 8 8 18c36.667 70.667 55 154 55 250l-6 197c0 30.667 0.666992 53 2 67
c-26 10.667 -39 29 -39 55c0 29.333 15.667 63.666 47 102.999c1.33301 71.333 2 172.333 2 303c0 333.333 -17.667 499.333 -53 498c-4 10 -6 20 -6 30c0 37.333 10.333 56 31 56z" />
    <glyph glyph-name="i" unicode="i" horiz-adv-x="526" 
d="M322 1280c10.667 -8 28 -17.667 52 -29s36 -25 36 -41c0 -14.667 -8.66699 -30.167 -26 -46.5s-34.666 -24.5 -51.999 -24.5c-19.333 0 -39.833 11 -61.5 33s-32.5 34.667 -32.5 38c0 12 9.16699 26.667 27.5 44s36.166 26 53.499 26h3zM367 6
c0 -4 -14.332 -11.834 -42.999 -23.501s-46.667 -17.5 -54 -17.5h-6c-6.66699 0 -15.167 -1.33301 -25.5 -4s-17.5 -4 -21.5 -4c-12.667 0 -24 4.5 -34 13.5s-15 16.167 -15 21.5c0 14 2.66699 35.833 8 65.5s13.666 51.5 24.999 65.5c5.33301 42 8 120.333 8 235l-8 363
l2 63c0 6.66699 -5.5 19 -16.5 37s-16.5 40 -16.5 66c0 15.333 4.16699 26.166 12.5 32.499s27.5 15.833 57.5 28.5l57 25c2.66699 1.33301 6.66699 2 12 2c16.667 0 25 -26 25 -78c0 -29.333 -5.16699 -105.5 -15.5 -228.5s-15.5 -222.833 -15.5 -299.5
c0 -43.333 1.16699 -84.166 3.5 -122.499s4.83301 -67.5 7.5 -87.5s8.66699 -38.333 18 -55c18.667 -34.667 28 -66 28 -94c2.66699 -1.33301 5 -2.66602 7 -3.99902z" />
    <glyph glyph-name="j" unicode="j" horiz-adv-x="526" 
d="M326 1280c11.333 -9.33301 28.832 -19.167 52.499 -29.5s35.5 -23.833 35.5 -40.5c0 -15.333 -8.66699 -31.333 -26 -48s-35.333 -25 -54 -25s-39 11.333 -61 34s-33 35.667 -33 39c0 12 9.33301 26.667 28 44s37.334 26 56.001 26h2zM349.999 -549.001
c-4.66699 -8 -13.5 -17.165 -26.5 -27.498s-20.5 -15.5 -22.5 -15.5c-4 0 -7 1 -9 3s-4.33301 3 -7 3c-3.33301 0 -8.5 -2 -15.5 -6s-13.5 -6 -19.5 -6c-10.667 0 -24.667 2.33301 -42 7s-26 8.33398 -26 11.001c0 2 1.83301 7.16699 5.5 15.5s5.5 16.166 5.5 23.499v15
l10 125c20 256 30 475 30 657c0 62.667 -2 128.334 -6 197.001l-11 177c-3.33301 49.333 -5.66602 86.666 -6.99902 111.999s-4 50.166 -8 74.499s-6 43.5 -6 57.5c0 19.333 3.66699 35.5 11 48.5s24.666 24.833 51.999 35.5l41 15l25 2c40.667 0 61 -11.667 61 -35
c0 -2 -2 -7.33301 -6 -16s-6 -18.334 -6 -29.001h-4c-25.333 0 -43.333 -68 -54 -204s-16 -351.333 -16 -646c0 -180.667 6.66699 -320 20 -418l15 -102z" />
    <glyph glyph-name="k" unicode="k" horiz-adv-x="1040" 
d="M354 1503c0 -6.66699 -0.669922 -13.334 -2.00293 -20.001c-8.66699 -4 -13.667 -9 -15 -15s-5.33301 -22 -12 -48s-12 -79.167 -16 -159.5s-6 -138.833 -6 -175.5v-180l-2 -436c0 -64.667 0.833008 -137.667 2.5 -219s5.33398 -129.333 11.001 -144
s10.834 -24.667 15.501 -30c-2 -45.333 -13.667 -68 -35 -68l-21 2c-3.33301 0 -10.166 -1.66699 -20.499 -5s-20.5 -5 -30.5 -5c-13.333 0 -24.833 5.83301 -34.5 17.5s-14.5 26.834 -14.5 45.501c0 5.33301 2 11 6 17c15.333 0 23 124.333 23 373l-6 583l10 314l-7 51
c-4.66699 36 -7 66 -7 90c0 14 2 28.333 6 43c48.667 24.667 82 37 100 37c8.66699 0 16 -3.33301 22 -10s15 -21.667 27 -45c4 0 6 -1.66699 6 -5v-8zM859.997 801c-4 1.33301 -9.99902 1.99707 -17.999 1.99707c-10 0 -17.833 -1.16699 -23.5 -3.5
s-31.5 -25.833 -77.5 -70.5l-136 -130c-44.667 -42.667 -77.5 -75.667 -98.5 -99s-31.5 -39 -31.5 -47c0 -10 33 -35.667 99 -77l161 -107c52 -34 95 -59.167 129 -75.5s66.667 -25.833 98 -28.5c18 -2 37.667 -15.667 59 -41c12.667 -14 19 -28 19 -42
c0 -15.333 -7.33301 -27.833 -22 -37.5s-24.334 -16.834 -29.001 -21.501c-10.667 -26 -27.667 -39 -51 -39c-6 0 -14.333 1.33301 -25 4v2c0 7.33301 -11.333 21.333 -34 42s-60.167 49.334 -112.5 86.001s-131 87.667 -236 153s-160.5 98.333 -166.5 99l-28 3
c0 48.667 19.667 91 59 127c26 6 46 21 60 45c1.33301 -1.33301 4 -2 8 -2c5.33301 0 12.5 5.33301 21.5 16s28.833 31.334 59.5 62.001l76 78.5c20 21.667 38 43.5 54 65.5l39 55c10 14.667 20 34.334 30 59.001c10.667 0 25 8.83301 43 26.5s34.667 26.5 50 26.5h6
c4 -4 9.33301 -6 16 -6h8c15.333 -11.333 23 -27.666 23 -48.999c0 -30 -9.66699 -55.333 -29 -76z" />
    <glyph glyph-name="l" unicode="l" horiz-adv-x="526" 
d="M362 57c-6 -20.667 -11.168 -33.6699 -15.501 -39.0029s-14.833 -8.66602 -31.5 -9.99902c-8 -8 -15.333 -12 -22 -12c-5.33301 0 -11 4 -17 12c-8.66699 -8.66699 -20 -16 -34 -22c-52 14.667 -78 33.667 -78 57v2c10.667 0 16 9.66699 16 29v18l-2 33
c0 4.66699 4 20.334 12 47.001c10 70.667 15 166.334 15 287.001v205l-2 77l2 66l-12 231l8 160l-8 207v39c-8.66699 22.667 -13 45 -13 67l4 43c0 4.66699 -2.66699 11 -8 19c0 36 5.83301 64.5 17.5 85.5s26 37.167 43 48.5s33.833 17 50.5 17c28.667 0 53.667 -28 75 -84
c-15.333 -19.333 -27.666 -38.5 -36.999 -57.5s-14 -46.833 -14 -83.5l4 -115l-4 -286l2 -391l-4 -445l2 -18c0 -10.667 -2.66699 -17.667 -8 -21c10 -8.66699 16.5 -29.167 19.5 -61.5s9.66699 -56.5 20 -72.5s16.833 -26.667 19.5 -32z" />
    <glyph glyph-name="m" unicode="m" horiz-adv-x="1772" 
d="M1184 887c20.667 1.33301 47.6729 5.6709 81.0059 13.0039l44 11c103.333 0 179 -26.833 227 -80.5s72 -137.834 72 -252.501c0 -60.667 -5.5 -125.334 -16.5 -194.001s-31.167 -144.334 -60.5 -227.001s-44 -134.334 -44 -155.001c0 -2.66699 0.666992 -6 2 -10
c-7.33301 -22.667 -14.333 -50 -21 -82l-59 -6l-23 2l-20 -2c-11.333 0 -25.666 4.66699 -42.999 14c1.33301 51.333 10.333 83.333 27 96c-4.66699 6.66699 -7 11.667 -7 15v6c8.66699 8 17.667 12 27 12c88.667 170.667 133 321 133 451
c0 61.333 -7.83301 117.333 -23.5 168s-29.5 85.834 -41.5 105.501s-32.667 34.5 -62 44.5s-62.666 15 -99.999 15c-29.333 0 -72.666 -13.333 -129.999 -40l-136 -64c-34.667 -15.333 -52 -35 -52 -59c0 -3.33301 1.66699 -9 5 -17c-10.667 -2 -19 -6 -25 -12
c-16.667 -144 -25 -263.333 -25 -358l5 -224c0 -18.667 -4.33301 -33 -13 -43c-41.333 -8 -68 -21 -80 -39c-16 10 -26.667 15 -32 15c-18 7.33301 -27 32.666 -27 75.999v14c18 47.333 32.333 98.166 43 152.499s16 127.166 16 218.499
c0 32.667 -2.33301 68.334 -7 107.001l-7 46v17c0 18 -2 35.833 -6 53.5s-11 35.167 -21 52.5s-23.333 34.333 -40 51s-32.334 29 -47.001 37s-35.334 12 -62.001 12c-16 0 -30 -1.33301 -42 -4c-13.333 -2.66699 -25.333 -7.33398 -36 -14.001
c-13.333 -8.66699 -34.333 -18 -63 -28c-31.333 -11.333 -56.666 -22 -75.999 -32c-22 -12 -40.333 -25 -55 -39c-14.667 -14.667 -26.334 -32 -35.001 -52s-15 -44 -19 -72c-4 -27.333 -6 -61 -6 -101l12 -282c0 -61.333 7 -105 21 -131c-10 -30.667 -24.5 -52 -43.5 -64
s-33.833 -18 -44.5 -18h-4c-8.66699 0 -16.334 4 -23.001 12l-12 -8c-6 8 -10 17.667 -12 29c6.66699 9.33301 10 25 10 47c0 8.66699 -1 23.667 -3 45s-3 37.666 -3 48.999v12c0 2 2.33301 39.167 7 111.5s7 171.833 7 298.5c0 16 -13 31 -39 45c-4 10 -6 17.333 -6 22
s2 13 6 25l-12 6c7.33301 10.667 16.666 21.834 27.999 33.501s18.333 19.334 21 23.001s4 10.834 4 21.501c0 12 -5.5 28.5 -16.5 49.5s-15.5 35 -13.5 42s3 11.833 3 14.5c0 4 4.66699 13.5 14 28.5s17.666 29.5 24.999 43.5h19c4 4 9.33301 10.5 16 19.5
s13.667 13.5 21 13.5c15.333 0 30 -7.66699 44 -23s21 -33 21 -53c0 -9.33301 -0.666992 -17 -2 -23c-10.667 -17.333 -16 -33 -16 -47c0 -30 6 -45 18 -45c1.33301 0 11.666 5.33301 30.999 16s44.166 21.834 74.499 33.501s57.666 23.167 81.999 34.5s37.833 17 40.5 17
l32 -4c5.33301 0 9.66602 0.666992 12.999 2c16 12 45.333 18 88 18c29.333 0 61 -8.83301 95 -26.5s58 -43.5 72 -77.5c6 -14.667 14.5 -25.5 25.5 -32.5s20.5 -10.5 28.5 -10.5c2.66699 0 4 1.33301 4 4c0 1.33301 -0.666992 2.66602 -2 3.99902
c5.33301 2 18.333 10.333 39 25s43 24 67 28c9.33301 21.333 50.333 39 123 53z" />
    <glyph glyph-name="n" unicode="n" horiz-adv-x="1163" 
d="M616 868c43.333 7.33301 79.665 10.9971 108.998 10.9971c181.333 0 272 -113.333 272 -340c0 -126 -20.667 -271.667 -62 -437c-18.667 -71.333 -28 -119 -28 -143c0 -5.33301 1.33301 -10.666 4 -15.999c-8 -41.333 -32.333 -62 -73 -62
c-24 0 -45.833 6.66699 -65.5 20s-29.5 27.333 -29.5 42c0 22 14 49.333 42 82s53.667 96.334 77 191.001s35 190 35 286c0 196.667 -80.667 295 -242 295c-63.333 0 -122.833 -13 -178.5 -39s-87.5 -54.667 -95.5 -86c-6 -6.66699 -15 -13.334 -27 -20.001
c-10.667 -5.33301 -16.834 -10.166 -18.501 -14.499s-5.16699 -54.833 -10.5 -151.5s-8 -170 -8 -220v-47c0 -24.667 4.16699 -47.334 12.5 -68.001s12.5 -32.667 12.5 -36l-2 -35c0 -22 -3.83301 -39.5 -11.5 -52.5s-17.5 -19.5 -29.5 -19.5h-4l-6 -14
c-8 2.66699 -13.667 4 -17 4c-9.33301 0 -21.333 -5.33301 -36 -16h-5c-7.33301 0 -18.666 8.66699 -33.999 26c-22 0 -33 8.33301 -33 25c0 14.667 4.66699 27 14 37c8.66699 0 18.667 43.833 30 131.5s17 198.834 17 333.501c0 174.667 -14.333 274.334 -43 299.001l-2 18
c0 25.333 14.667 42.333 44 51c12 3.33301 22.833 12.333 32.5 27s19.834 22 30.501 22h2c13.333 2 24.833 5.33301 34.5 10s15.167 7 16.5 7c9.33301 0 14 -13 14 -39c0 -20 -4 -42.833 -12 -68.5s-12 -41.834 -12 -48.501c0 -10 3.5 -18.667 10.5 -26s15.833 -11 26.5 -11
h6c18.667 18 28.667 27 30 27h3c64 0 112.333 13 145 39c6 0.666992 13.333 1.83398 22 3.50098s14.334 2.5 17.001 2.5c16 10 24.667 16.667 26 20z" />
    <glyph glyph-name="o" unicode="o" horiz-adv-x="1198" 
d="M129 616c104 198 290.999 297 560.999 297c42 0 79.5 -2.33301 112.5 -7s63.5 -12.334 91.5 -23.001s54 -25 78 -43s47.167 -40.333 69.5 -67s44.5 -58.667 66.5 -96c12 -20 18 -63.333 18 -130c0 -152.667 -51.833 -282.667 -155.5 -390s-231.834 -161 -384.501 -161h-8
c-31.333 6.66699 -48.666 10 -51.999 10c-2.66699 0 -4.66699 -0.666992 -6 -2c-6 -9.33301 -26.333 -14 -61 -14c-47.333 0 -103.166 13.5 -167.499 40.5s-117 68.5 -158 124.5s-61.5 115 -61.5 177c0 24 1.16699 47.833 3.5 71.5s6 46.334 11 68.001
s11.167 42.167 18.5 61.5l24 57v26zM1010 453l-0.000976562 25.999c0 110.667 -34.833 199.834 -104.5 267.501s-161.834 101.5 -276.501 101.5c-25.333 0 -49 -2.83301 -71 -8.5s-34.667 -9.33398 -38 -11.001s-9.16602 -8.66699 -17.499 -21s-14.333 -19.666 -18 -21.999
s-8.83398 -3.5 -15.501 -3.5l-51 6c-7.33301 0 -12.333 -6 -15 -18c-50.667 -4 -98.334 -41.667 -143.001 -113s-67 -145.666 -67 -222.999c0 -16.667 3.33301 -51.834 10 -105.501s27.334 -98 62.001 -133s76.834 -65 126.501 -90s89.834 -37.5 120.501 -37.5
c8 0 16 1 24 3l9 3h41c89.333 0 150 13.667 182 41c3.33301 2.66699 5.33301 4 6 4c4 0 10.333 -2 19 -6c73.333 63.333 127.833 129.833 163.5 199.5s53.5 116.5 53.5 140.5z" />
    <glyph glyph-name="p" unicode="p" 
d="M307 868c122.667 44 203.333 69.6758 242 77.0088s61.667 11 69 11c20 0 62.167 -12 126.5 -36s100.166 -41.333 107.499 -52c2.66699 -4.66699 15.667 -22.334 39 -53.001c42 -42 63 -104.667 63 -188c0 -69.333 -19.667 -141.333 -59 -216
s-86.333 -128.334 -141 -161.001c-8 -10 -13 -19 -15 -27c-80.667 -66.667 -133 -105.667 -157 -117l-27 -12c-30 -30 -51 -45 -63 -45c-6 0 -10.333 0.666992 -13 2c-32.667 -22 -56.5 -37.667 -71.5 -47s-35.5 -16.166 -61.5 -20.499s-42.167 -8.33301 -48.5 -12
s-11.5 -16.334 -15.5 -38.001s-6 -54.167 -6 -97.5c0 -81.333 2.66699 -153.833 8 -217.5s9.5 -100.167 12.5 -109.5s7.16699 -17.833 12.5 -25.5s8 -12.834 8 -15.501c0 -5.33301 -3.16699 -10.166 -9.5 -14.499l-20.5 -13.5c-7.33301 -4.66699 -12.333 -7 -15 -7
c-1.33301 0 -2.66602 1.33301 -3.99902 4c-31.333 -14 -58 -21 -80 -21c-8 0 -17.5 3.66699 -28.5 11s-16.5 16.666 -16.5 27.999c0 15.333 4.5 35.166 13.5 59.499s13.5 42.166 13.5 53.499l-2 37l8 276c0 42.667 -1.83301 73.167 -5.5 91.5s-13.5 36.5 -29.5 54.5l9 47
l-3 8c0 6.66699 4.83301 15.834 14.5 27.501s14.5 29.167 14.5 52.5l-2 55v21c5.33301 16 8 37 8 63v127c0 12.667 1 31.667 3 57s3 44.666 3 57.999c0 67.333 -2 112.166 -6 134.499s-12 33.5 -24 33.5c-6 0 -16.333 -2.5 -31 -7.5s-26.334 -7.5 -35.001 -7.5l-8 2l-23 25
c9.33301 13.333 31.833 28.5 67.5 45.5s53.5 34.5 53.5 52.5c0 4 -1 11.333 -3 22s-3 19.667 -3 27l2 15c0 5.33301 -5.33301 14.666 -16 27.999l-4 39c0 25.333 5.33301 42.666 16 51.999s25.834 16.666 45.501 21.999s32.5 10 38.5 14h31c16 0 24 -6.66699 24 -20l-8 -32
c-5.33301 -23.333 -8 -40 -8 -50l2 -25l-4 -34c0 -5.33301 4 -9 12 -11zM312.999 125.009c33.333 -12.667 66.999 -19 100.999 -19c17.333 0 32.833 1.33301 46.5 4s37.334 14.167 71.001 34.5s74.167 47.166 121.5 80.499c17.333 12 33.833 25.333 49.5 40
s39.834 49.667 72.501 105c14.667 25.333 27.667 59.833 39 103.5s17 78.5 17 104.5c0 22 -6.33301 55.667 -19 101s-35.834 82.833 -69.501 112.5s-56.5 44.5 -68.5 44.5h-6c-17.333 0 -33 6 -47 18h-39l-68 2c-80 0 -138.167 -13.167 -174.5 -39.5
s-54.5 -74.5 -54.5 -144.5l2 -88l-6 -428c0 -9.33301 5 -15.666 15 -18.999s15.667 -7.33301 17 -12z" />
    <glyph glyph-name="q" unicode="q" horiz-adv-x="1075" 
d="M961 956v-8.00195c0 -7.33301 2 -16.166 6 -26.499s6 -17.166 6 -20.499c0 -5.33301 -8.66699 -14.666 -26 -27.999s-27.833 -22.333 -31.5 -27s-10.834 -53.834 -21.501 -147.501s-19 -215.167 -25 -364.5s-9 -320 -9 -512l-2 -154c0 -53.333 2.33301 -97.333 7 -132
s7 -58.334 7 -71.001c0 -18.667 -1.66699 -36.5 -5 -53.5s-8 -30.833 -14 -41.5l-18 -30c-6 -10 -11.167 -18.167 -15.5 -24.5s-7.66602 -10.166 -9.99902 -11.499s-5.16602 -2 -8.49902 -2c-6.66699 0 -21.667 7.33301 -45 22h-2c-5.33301 0 -15 5.5 -29 16.5
s-22.333 19.333 -25 25s-4 15.834 -4 30.501c0 9.33301 5 30 15 62c30 102 45 199.333 45 292l-6 250c0 4 0.666992 9.66699 2 17s2 12.666 2 15.999c0 8 -3.66699 12 -11 12h-2c-9.33301 0 -21.166 -6 -35.499 -18s-27 -20.5 -38 -25.5s-30.833 -7.5 -59.5 -7.5
s-70.834 3.5 -126.501 10.5s-99.334 14.833 -131.001 23.5s-70.334 26.667 -116.001 54s-78.167 55 -97.5 83s-35 60.667 -47 98s-18 76 -18 116c0 76.667 20.833 148.5 62.5 215.5s101.834 124.833 180.501 173.5c6.66699 2 12.667 7.33301 18 16
c13.333 22.667 65 44 155 64l118 31h2c8.66699 0 49 13.667 121 41l14 -17c30 14.667 45 25.667 45 33c0 12 -2 25.5 -6 40.5s-6 24.833 -6 29.5c0 12 11 27 33 45c12.667 1.33301 29.167 6.5 49.5 15.5s34.5 14.5 42.5 16.5
c0.666992 -6.66699 5.33398 -13.167 14.001 -19.5s13 -12.833 13 -19.5c0 -1.33301 -1.33301 -6.5 -4 -15.5s-4 -19.5 -4 -31.5c-10 -6 -16.333 -16.667 -19 -32c8 -7.33301 19.667 -11 35 -11c11.333 0 19.666 0.666992 24.999 2zM743 89.998
c24.667 336 37.001 533.334 37.001 592.001c0 51.333 -9.33301 87.666 -28 108.999s-49.667 32 -93 32c-52.667 0 -111.5 -9 -176.5 -27s-123.5 -51.5 -175.5 -100.5s-87.167 -96.667 -105.5 -143s-27.5 -92.5 -27.5 -138.5c0 -60 19.667 -113.333 59 -160
s87.666 -83.334 144.999 -110.001s140.333 -40 249 -40c7.33301 0 15 1.33301 23 4s19.333 14.334 34 35.001c6 -26 21.667 -39 47 -39h6z" />
    <glyph glyph-name="r" unicode="r" horiz-adv-x="702" 
d="M702 774c0 -6.66699 -4.66699 -17.8291 -14 -33.4961s-15.666 -30.334 -18.999 -44.001s-12 -27.5 -26 -41.5h-25c-34.667 20.667 -60.334 31 -77.001 31c-12 0 -31.667 -7 -59 -21s-53.666 -38.833 -78.999 -74.5s-41.666 -63.834 -48.999 -84.501
c-3.33301 -22.667 -14 -46.667 -32 -72v-33c-12.667 -32.667 -18 -56.5 -16 -71.5s3 -26.5 3 -34.5c0 -8.66699 -0.666992 -15.667 -2 -21c-8 -8 -12 -16 -12 -24c0 -16.667 3.5 -46 10.5 -88s18.5 -74 34.5 -96v-9c0 -30 -12.333 -45 -37 -45l-20 -20
c-16.667 -1.33301 -34.667 -2 -54 -2c-24.667 0 -46.334 3.33301 -65.001 10v4c0 18 5.5 44.333 16.5 79s16.5 61 16.5 79l6 235c0 182.667 -10 343.667 -30 483c-2 14.667 -3 23 -3 25c0 25.333 12.167 44.666 36.5 57.999s45.5 20 63.5 20c16 0 31 -4 45 -12
c1.33301 -2.66699 3.83301 -7.33398 7.5 -14.001s5.5 -11 5.5 -13v-12c0 -10 -5.83301 -32.333 -17.5 -67s-17.5 -78.667 -17.5 -132l2 -123v-18c0 -10 9 -17 27 -21c28 62 61.5 110.833 100.5 146.5s87.167 61.5 144.5 77.5s93.666 24 108.999 24c17.333 -12 26 -23 26 -33
v-12z" />
    <glyph glyph-name="s" unicode="s" horiz-adv-x="700" 
d="M543 512c52 -46.667 77.999 -102.668 77.999 -168.001c0 -84.667 -26.167 -161.5 -78.5 -230.5s-119.833 -110.167 -202.5 -123.5c-18 0 -43.333 -1.33301 -76 -4c-24.667 -10 -50.667 -15 -78 -15c-36 0 -64.333 7.33301 -85 22s-31 43.667 -31 87
c0 12.667 0.666992 22.334 2 29.001h8c13.333 0 26 -3.5 38 -10.5s19.667 -10.5 23 -10.5l6 2c22.667 -22 61 -33 115 -33c51.333 0 98 9.16699 140 27.5s73.167 48.833 93.5 91.5s30.5 81 30.5 115c0 49.333 -18.833 90.333 -56.5 123s-122.5 69.334 -254.5 110.001
c-20 3.33301 -33 7.66602 -39 12.999l-46 40c-24.667 20.667 -40.667 41.334 -48 62.001l-10 31c0 105.333 30.5 180.166 91.5 224.499s166.167 66.5 315.5 66.5l56 -3c3.33301 0 10 1.66699 20 5c10.667 -10.667 16 -25.667 16 -45c0 -22 -3.66699 -42.833 -11 -62.5
s-15 -31.167 -23 -34.5c-6 12 -13 21 -21 27h-2c-2 0 -5 -1.16699 -9 -3.5s-7 -3.83301 -9 -4.5c-31.333 35.333 -70.333 53 -117 53c-90 0 -149.333 -17.167 -178 -51.5s-43 -72.5 -43 -114.5c0 -60.667 48.333 -102.334 145 -125.001
c70.667 -17.333 128.334 -35.166 173.001 -53.499s67 -30.5 67 -36.5z" />
    <glyph glyph-name="t" unicode="t" horiz-adv-x="719" 
d="M586 881c0.666992 -4 4.66504 -7.50293 11.998 -10.5029s11.333 -4.5 12 -4.5h11c22 0 41 -5 57 -15s24 -21.333 24 -34c0 -13.333 -9.33301 -26.333 -28 -39l-12 13c-9.33301 -16.667 -25.333 -27 -48 -31l-6 12l-12 -4c-29.333 13.333 -59.333 20 -90 20l-94 -4
c-13.333 0 -33.333 1.33301 -60 4c-17.333 -129.333 -26 -231 -26 -305c0 -27.333 1.5 -59.166 4.5 -95.499s8.83301 -66 17.5 -89s17.334 -44.167 26.001 -63.5s23.334 -38.5 44.001 -57.5s39.834 -32.5 57.501 -40.5s33 -19.167 46 -33.5s46.833 -21.5 101.5 -21.5h20
c12.667 -10 19 -18.333 19 -25c0 -7.33301 -4.83301 -18.666 -14.5 -33.999s-17.334 -28.333 -23.001 -39s-15.167 -22.334 -28.5 -35.001h-4c-3.33301 0 -6 2 -8 6c-23.333 0 -44 2.66699 -62 8c0 -1.33301 -0.666992 -2 -2 -2s-4.5 1.83301 -9.5 5.5
s-9.83301 6.5 -14.5 8.5c-4.66699 9.33301 -14.334 17.666 -29.001 24.999c-30 10.667 -57.833 26.334 -83.5 47.001s-52.167 50 -79.5 88s-44.5 73 -51.5 105s-12.667 70.5 -17 115.5s-6.5 93.167 -6.5 144.5c0 86.667 6.33301 182 19 286l-21 7l-6 -13h-14l-4 13
c-154.667 6 -232 21 -232 45c0 8.66699 4.83301 16.5 14.5 23.5s37.834 10.5 84.501 10.5h39l42 10c15.333 3.33301 30.333 9.33301 45 18s27.5 19.334 38.5 32.001s21.167 57 30.5 133c6 46.667 9 96.334 9 149.001v41c0 12.667 4.66699 30.667 14 54
s20.833 41.666 34.5 54.999s23.5 20 29.5 20c13.333 0 27.333 -2.5 42 -7.5s23 -8.5 25 -10.5s4.33301 -7.16699 7 -15.5s6 -14.833 10 -19.5v-4c0 -2.66699 -2.5 -4.66699 -7.5 -6s-8.16699 -2.66602 -9.5 -3.99902s-2.5 -2.66602 -3.5 -3.99902
s-5.83301 -19.333 -14.5 -54s-16 -69.334 -22 -104.001s-10.667 -68.667 -14 -102s-5 -66.333 -5 -99c0 -46.667 2 -73 6 -79s9.66699 -9 17 -9c3.33301 0 11.833 2.16699 25.5 6.5s26.167 6.5 37.5 6.5c6 0 11 -0.666992 15 -2l12 -25c4 -1.33301 9.33301 -2 16 -2
c7.33301 0 21.5 4.5 42.5 13.5s39.167 14.833 54.5 17.5z" />
    <glyph glyph-name="u" unicode="u" horiz-adv-x="1149" 
d="M848 915c11.333 8.66699 27.6699 15.3311 49.0029 19.998l61 13h7c13.333 0 20 -17 20 -51l-33 -108c-10.667 -36 -18.334 -70.333 -23.001 -103s-7 -64 -7 -94c0 -30.667 2.33301 -63.167 7 -97.5s16.667 -63.833 36 -88.5c1.33301 -3.33301 2 -7.66602 2 -12.999
c0 -6.66699 -5.5 -18.167 -16.5 -34.5s-16.5 -38.166 -16.5 -65.499c0 -14.667 2.83301 -38.5 8.5 -71.5s8.66699 -53.333 9 -61s5.33301 -15 15 -22s14.5 -12.167 14.5 -15.5c0 -5.33301 -5.33301 -10 -16 -14c-2.66699 -32.667 -4 -52.667 -4 -60
c0 -24.667 3.33301 -38.334 10 -41.001c-46 -18.667 -80.333 -28 -103 -28c-27.333 0 -41 11.333 -41 34c0 6.66699 2.33301 16.334 7 29.001c-2 4 -3 9.33301 -3 16c0 12.667 1.83301 22.667 5.5 30s5.5 14.666 5.5 21.999c0 13.333 -2 32 -6 56s-16.333 36 -37 36
c-15.333 0 -44 -19 -86 -57c-63.333 -56 -119.333 -96.333 -168 -121c-20.667 -7.33301 -34.334 -14.333 -41.001 -21c-94.667 -14.667 -144 -22 -148 -22c-16.667 0 -38.167 9.5 -64.5 28.5s-47.666 37.833 -63.999 56.5s-30.666 47.5 -42.999 86.5
s-18.5 82.833 -18.5 131.5c0 21.333 8.33301 95 25 221s29.667 216.167 39 270.5s14 82.833 14 85.5c0 5.33301 -2.33301 13.666 -7 24.999l-8 16v4c0 4.66699 3.33301 8 10 10s19.5 7.66699 38.5 17s33.833 14 44.5 14c4.66699 0 14.167 -2.33301 28.5 -7s26.5 -7 36.5 -7
h6c12.667 -10 21 -20.333 25 -31l-21 -24c-38 -34.667 -62.333 -86 -73 -154l-33 -215c-12.667 -74.667 -19 -128 -19 -160c0 -93.333 18.167 -161.666 54.5 -204.999s72.166 -65 107.499 -65l17 2l30 -2c10 0 29.667 7.5 59 22.5s72.5 42 129.5 81s91.667 67.667 104 86
s23.166 41.666 32.499 69.999s16.333 60.833 21 97.5s7 77.334 7 122.001c0 112 -2.5 187.5 -7.5 226.5s-13.5 62.5 -25.5 70.5c-8.66699 6.66699 -13 24.334 -13 53.001c10.667 4 18.167 7.5 22.5 10.5s8.5 4.5 12.5 4.5c7.33301 0 15.666 -3 24.999 -9z" />
    <glyph glyph-name="v" unicode="v" horiz-adv-x="934" 
d="M946 924l1.99609 -23.0029c0 -14 -2.66699 -25.5 -8 -34.5s-18.333 -18.5 -39 -28.5c-58 -83.333 -119.167 -193.333 -183.5 -330s-112.833 -264 -145.5 -382c-8 -30 -19.333 -57 -34 -81s-22 -39.667 -22 -47c0 -5.33301 1.33301 -9.33301 4 -12
c-17.333 -8 -26 -19 -26 -33c-13.333 5.33301 -21.666 8 -24.999 8c-10 0 -25.667 -2.66699 -47 -8c-0.666992 8 -6 17 -16 27s-15.333 18.333 -16 25s-6.16699 19.5 -16.5 38.5s-18.166 34.5 -23.499 46.5l12 6c-159.333 410 -254.666 629.333 -285.999 658
c-23.333 27.333 -35 48.333 -35 63c0 18.667 9.66699 41.167 29 67.5s37.666 39.5 54.999 39.5c5.33301 0 12 -3 20 -9s18.833 -12.833 32.5 -20.5s24.167 -14.5 31.5 -20.5l2 3c5.33301 0 10 -34.333 14 -103c3.33301 -43.333 24 -112.666 62 -207.999
s62.167 -148 72.5 -158s16.166 -17.667 17.499 -23c15.333 -63.333 36.833 -112.666 64.5 -147.999s44.5 -53 50.5 -53c12.667 0 20 13 22 39h2c6.66699 0 14.834 9.83301 24.501 29.5s23.834 52.834 42.501 99.501l50 129c36 90.667 59.667 143.5 71 158.5
s17.333 24.667 18 29s2.33398 10.833 5.00098 19.5s4 15 4 19c13.333 20.667 24.333 56 33 106l18 18v3l6 45l-2 14c0 45.333 20 68 60 68c36.667 0 70 -12.333 100 -37z" />
    <glyph glyph-name="w" unicode="w" horiz-adv-x="1358" 
d="M1292 938l13 -12.001c16 -5.33301 24 -17.666 24 -36.999c0 -26 -5 -50.167 -15 -72.5s-31 -77.333 -63 -165s-60.333 -178.167 -85 -271.5s-40.834 -163.333 -48.501 -210s-17.5 -85.834 -29.5 -117.501s-33.333 -60.167 -64 -85.5h-23c-2.66699 0 -6 -2.66699 -10 -8
l-6 -2c-16.667 0 -30.334 17 -41.001 51c-0.666992 34.667 -33.334 122.5 -98.001 263.5l-144 318.5c-16 58.667 -36.333 88 -61 88c-4.66699 0 -10.667 -1.33301 -18 -4c-39.333 -96.667 -80.333 -206.334 -123 -329.001l-99 -279c4.66699 -2 7 -5 7 -9
c0 -1.33301 -2.16699 -3.83301 -6.5 -7.5s-6.5 -7.83398 -6.5 -12.501c0 -6 2 -14.333 6 -25c-3.33301 1.33301 -6.83301 3.5 -10.5 6.5s-6.16699 4.5 -7.5 4.5c-34.667 -32 -68 -48 -100 -48c-11.333 0 -19 6.83301 -23 20.5s-8 41.167 -12 82.5
c-22 203.333 -56 366.666 -102 489.999c-3.33301 8 -7.16602 24.333 -11.499 49s-8.5 45 -12.5 61s-10 33.167 -18 51.5s-17.833 36.333 -29.5 54s-17.5 33.5 -17.5 47.5c0 48 52 74 156 78c8 -22.667 12 -43.667 12 -63c0 -8 -0.666992 -20.5 -2 -37.5s-2 -30.5 -2 -40.5
c0 -48 15.333 -129.667 46 -245l87 -333c80.667 180 141.834 323.167 183.501 429.5s62.5 166.833 62.5 181.5l-2 26c0 14.667 6.66699 32.667 20 54s30.666 32 51.999 32c14.667 0 25.5 -4.66699 32.5 -14s16.5 -29 28.5 -59c2.66699 -7.33301 4.5 -19.333 5.5 -36
s5.5 -35.5 13.5 -56.5s20.5 -48.667 37.5 -83s34.667 -75.166 53 -122.499s34.833 -87.666 49.5 -120.999s35.334 -74.166 62.001 -122.499s45.334 -76.666 56.001 -84.999s22 -16.166 34 -23.499c49.333 132.667 86.333 249.167 111 349.5s37 175.166 37 224.499
c0 31.333 -7.66699 57.333 -23 78c16.667 9.33301 26.167 23.166 28.5 41.499s6.5 27.5 12.5 27.5h9c7.33301 0 19 4.33301 35 13s29.333 13.334 40 14.001z" />
    <glyph glyph-name="x" unicode="x" horiz-adv-x="930" 
d="M856 860l-6.00293 2c-6 0 -25.833 -11.833 -59.5 -35.5s-71 -61.667 -112 -114l-86.5 -108.5c-36.667 -30.667 -55 -55.334 -55 -74.001c0 -10.667 33 -57.167 99 -139.5s147.333 -157.833 244 -226.5c25.333 -17.333 38 -29.666 38 -36.999
c0 -3.33301 -15.5 -20.833 -46.5 -52.5s-58.833 -47.5 -83.5 -47.5c-12 0 -22.667 2.5 -32 7.5s-17.166 12.833 -23.499 23.5s-11.833 24.334 -16.5 41.001c-0.666992 2 -20 26.333 -58 73l-53 66c-100.667 125.333 -157.667 188 -171 188s-44.666 -33.833 -93.999 -101.5
s-95 -153.834 -137 -258.501c-31.333 -49.333 -69 -74 -113 -74c-10.667 0 -26 4.16699 -46 12.5s-30 17.833 -30 28.5c0 22.667 17.333 36.334 52 41.001c4 0 38 43.167 102 129.5s142.333 181.5 235 285.5c-125.333 209.333 -216 314 -272 314h-6
c-6.66699 11.333 -10 20.666 -10 27.999c0 16.667 12.667 38.667 38 66s49.333 41 72 41c18.667 0 36.667 -13.667 54 -41c43.333 -100 114.333 -204.333 213 -313c85.333 78 144 165.333 176 262c18.667 43.333 36.334 65 53.001 65l27 -4c18.667 0 35.5 3.5 50.5 10.5
s24.5 10.5 28.5 10.5c20.667 0 31 -15 31 -45c0 -10 -0.666992 -17.667 -2 -23z" />
    <glyph glyph-name="y" unicode="y" horiz-adv-x="1030" 
d="M881 899c8 6.66699 17.3369 10.0049 28.0039 10.0049c10 0 28.333 -3.33301 55 -10s40 -16.334 40 -29.001c0 -18 -11.667 -35 -35 -51c-8.66699 0 -43.667 -55.667 -105 -167l-165 -299c-48.667 -87.333 -76.334 -163 -83.001 -227c-6 -50.667 -21 -84.334 -45 -101.001
l-6 -25c-10.667 -2 -19.334 -8.66699 -26.001 -20c-96.667 -222.667 -155.5 -360.334 -176.5 -413.001s-32.333 -93.334 -34 -122.001s-16.167 -43 -43.5 -43h-11c-22.667 8 -52.667 12 -90 12l-6 -2c-10.667 0 -16 5.66699 -16 17c0 3.33301 2 6 6 8
c0 5.33301 24.667 40.666 74 105.999c-6 2 -9 5.66699 -9 11c0 8.66699 15.667 36.334 47 83.001c78 118 142.333 232.333 193 343c-4 6 -6 12.667 -6 20c-4 2.66699 -10 4 -18 4h-5c-14 0 -23.5 17.333 -28.5 52s-9.16699 55 -12.5 61
c-30 51.333 -60.833 114.5 -92.5 189.5s-64.5 146.333 -98.5 214s-58.167 119.167 -72.5 154.5s-32.333 65.833 -54 91.5s-32.5 47.167 -32.5 64.5v11c-2.66699 -1.33301 -6.66699 -2 -12 -2c-9.33301 0 -14 2 -14 6s10.667 19.5 32 46.5s45.333 48.167 72 63.5
c20 -8 35.333 -14.667 46 -20s23 -37.666 37 -96.999l22 -79v-33c25.333 -48.667 58.333 -117.334 99 -206.001l31 -67l30 -62.5c9.33301 -19 19.166 -37 29.499 -54s20.833 -32.833 31.5 -47.5c16.667 -22.667 25.667 -35.334 27 -38.001
c4.66699 -10 10.167 -19.167 16.5 -27.5s13.166 -16 20.499 -23s15.333 -13.5 24 -19.5l78 177c66 149.333 108.833 240.5 128.5 273.5s34.5 63.833 44.5 92.5s18.833 60.167 26.5 94.5s14 56.5 19 66.5s13.833 15 26.5 15z" />
    <glyph glyph-name="z" unicode="z" horiz-adv-x="881" 
d="M850 68c10.667 -6.66699 16.0039 -19 16.0039 -37c0 -14 -4.66699 -25.667 -14 -35c1.33301 -5.33301 2 -13 2 -23c0 -22.667 -9.66699 -34 -29 -34c-18 0 -45.333 9.33301 -82 28c-220.667 34 -386.334 51 -497.001 51c-8.66699 0 -13 -4.66699 -13 -14
c-6.66699 0 -14 2 -22 6l-4 -14c-22.667 12 -40.334 18 -53.001 18l-28 -3c-10.667 -0.666992 -20 -4.66699 -28 -12s-14.667 -11 -20 -11c-4 0 -11.167 5.5 -21.5 16.5s-15.5 26.5 -15.5 46.5c0 17.333 4 30.333 12 39l60 66c155.333 171.333 317.666 380 486.999 626v6
c0 8.66699 1.66699 18.167 5 28.5s5 17.5 5 21.5c0 5.33301 -7.33301 8 -22 8h-41l-199 10c-86 0 -140.667 -12.333 -164 -37c-1.33301 -1.33301 -2.66602 -2 -3.99902 -2c-2 0 -4.83301 1.66699 -8.5 5s-6.83398 5 -9.50098 5l-6 -2c-30.667 -17.333 -48.667 -26 -54 -26
c-4.66699 0 -8.83398 8 -12.501 24s-5.5 30.333 -5.5 43c0 56.667 21 93.667 63 111c5.33301 -10 17.666 -16 36.999 -18s33.666 -5 42.999 -9c32.667 -13.333 79.334 -20 140.001 -20h71l156 -6c56 0 125.667 8.66699 209 26c10.667 -12.667 16 -24.334 16 -35.001l-2 -10
c-12 1.33301 -25.333 -9.66699 -40 -33l-34 -53c-8 -12 -16.667 -23.167 -26 -33.5s-26.666 -33.833 -51.999 -70.5l-67 -96c-61.333 -86.667 -90.666 -136.667 -87.999 -150c-12 0 -21 -4.66699 -27 -14c-59.333 -104.667 -115.333 -177 -168 -217
c-2.66699 -14 -5.33398 -24.333 -8.00098 -31c-34 -14 -51 -34 -51 -60c0 -12 2.66699 -23.333 8 -34h15l6 -15l32 2c7.33301 0 13 -1.66699 17 -5s6.66699 -5 8 -5c4.66699 0 8 2.66699 10 8c10.667 -3.33301 19.667 -8.66602 27 -15.999h51
c90 -15.333 182.333 -23 277 -23l73 2h43c13.333 0 22.333 2.33301 27 7z" />
    <glyph glyph-name="braceleft" unicode="{" horiz-adv-x="901" 
d="M381 897l16 48.999l-16 119c1.33301 18 2 42 2 72l-2 77c0 30.667 7 71.667 21 123s26.833 85.333 38.5 102s27 27.5 46 32.5s48.5 7.5 88.5 7.5c97.333 0 146 -7 146 -21c0 -4.66699 -4.33301 -11 -13 -19s-20.667 -14 -36 -18l-6 -22l-70 8h-10c-24 0 -52 -7 -84 -21
c8 -50 12 -78.667 12 -86l-8 -174v-67c0 -98 1.33301 -175 4 -231s4 -85.667 4 -89c0 -17.333 -7.83301 -38.166 -23.5 -62.499s-37.167 -46.5 -64.5 -66.5l86 -86c-6.66699 -119.333 -10 -187.666 -10 -204.999l4 -90c0 -10 -4.16699 -33.833 -12.5 -71.5
s-12.5 -71.834 -12.5 -102.501v-8l2 -72c-4 -16 -6 -29.667 -6 -41c0 -24 8.33301 -36 25 -36c24 0 56.5 9.83301 97.5 29.5s63.833 29.5 68.5 29.5c6 0 11.833 -5.33301 17.5 -16s8.5 -19.667 8.5 -27c0 -17.333 -19.5 -35.666 -58.5 -54.999s-84.833 -29 -137.5 -29l-45 2
l-25 -4c-15.333 21.333 -29 61.666 -41 120.999s-18 96 -18 110c0 11.333 1.66699 35.5 5 72.5s5 70.167 5 99.5l-2 109c0 9.33301 1 22.5 3 39.5s3 29.167 3 36.5c0 44 -13.333 82.333 -40 115s-61 49 -103 49l-41 -2c-18 0 -27 8 -27 24c0 12 19 25.333 57 40l160 58
l12 111z" />
    <glyph glyph-name="bar" unicode="|" horiz-adv-x="410" 
d="M264 1683c8 -12 11.999 -23.998 11.999 -35.998l-2 -15v-33c0 -11.333 -1.33301 -24 -4 -38l-4 -15c0 -11.333 3.33301 -28.666 10 -51.999l11 -34c0 -28 -2.83301 -60.333 -8.5 -97s-8.5 -61 -8.5 -73v-6c2.66699 -13.333 4 -23.666 4 -30.999l-4 -57l3 -19
c2 -15.333 3 -29.333 3 -42v-23c2 -10.667 3 -30.334 3 -59.001c0 -34 -2.5 -80.167 -7.5 -138.5s-7.5 -100.5 -7.5 -126.5c0 -74 -4 -162 -12 -264s-12 -178.333 -12 -229c0 -80.667 8 -135.334 24 -164.001c-10.667 -4 -16 -13.667 -16 -29c0 -6 0.666992 -17 2 -33
s2 -28.667 2 -38c0 -47.333 -11.5 -78 -34.5 -92s-43.5 -21 -61.5 -21c-20 0 -31 9 -33 27c5.33301 10.667 8 23 8 37c0 12 -1 20.667 -3 26s-3 13 -3 23c0 4.66699 3.66699 17.334 11 38.001s11 43.334 11 68.001v187c0 16 1 30.333 3 43c4 7.33301 7 17.666 9 30.999l5 40
l-10 49l18 185l-12 22c4 76 12 154 24 234l-10 22c5.33301 12.667 8 27 8 43v27l2 82c0 1.33301 -2.16699 6.5 -6.5 15.5s-8.16602 17.5 -11.499 25.5c6.66699 27.333 10 59.333 10 96l-7 54c-2 18 -3 39 -3 63v39c-15.333 40.667 -23 70 -23 88c0 6 2.66699 28.167 8 66.5
s12.333 67.166 21 86.499s19 31.166 31 35.499s32.333 8.16602 61 11.499z" />
    <glyph glyph-name="braceright" unicode="}" horiz-adv-x="901" 
d="M434 1499c30 -7.33301 54.166 -30.8281 72.499 -70.4951s25.166 -81.167 20.499 -124.5c-2 -14.667 -3 -26 -3 -34c0 -6 1.33301 -17.333 4 -34s4 -30.667 4 -42l-14 -365c0 -19.333 -0.666992 -32 -2 -38l-4 -13c0 -10 11 -21.667 33 -35s43.667 -20 65 -20
c8.66699 0 18.5 1 29.5 3s18.5 3 22.5 3c9.33301 0 16.666 -5.66699 21.999 -17s8 -23.333 8 -36c0 -7.33301 -13.333 -16.5 -40 -27.5s-51.167 -23.333 -73.5 -37s-35.666 -25.5 -39.999 -35.5s-8.16602 -25.5 -11.499 -46.5s-6 -46.667 -8 -77s-3 -64.5 -3 -102.5l2 -51
c0 -24 -2 -54 -6 -90l-6 -49l24 -103c10 -22.667 15 -49.334 15 -80.001c0 -42.667 -17.5 -82.334 -52.5 -119.001s-60.5 -55 -76.5 -55c-5.33301 0 -11.333 3 -18 9c-19.333 17.333 -53 26 -101 26c-4.66699 0 -20.167 -3.66699 -46.5 -11s-51.166 -11 -74.499 -11
s-35 13.667 -35 41c0 16.667 2 28 6 34s14.333 9 31 9l84 2l90 -4c53.333 0 80 44.333 80 133v10l-29 33l-6 78c0 5.33301 1.83301 14.833 5.5 28.5s5.5 24.5 5.5 32.5c0 9.33301 -1.5 22 -4.5 38s-4.5 28 -4.5 36c0 12 2.33301 32.333 7 61l-21 45v23
c0 141.333 43 228 129 260c-34 1.33301 -61.667 11.166 -83 29.499s-32 36.5 -32 54.5c0 7.33301 2.16699 16.166 6.5 26.499s6.5 17.833 6.5 22.5l-2 53l4 178l-2 90l6 140c0 55.333 -17 100.333 -51 135c-31.333 -0.666992 -63 -4.66699 -95 -12l-36 16
c-1.33301 -1.33301 -4.33301 -2 -9 -2c-6 0 -12.167 3.16699 -18.5 9.5s-9.5 12.166 -9.5 17.499c0 9.33301 8 14 24 14c5.33301 0 10.333 -2 15 -6l16 24h20l74 4h23c10 0 31 9.66699 63 29z" />
    <glyph glyph-name="asciitilde" unicode="~" horiz-adv-x="1706" 
d="M1530 627c-134 -96 -263 -143.999 -387 -143.999c-38 0 -75.333 4.33301 -112 13s-96 27.667 -178 57s-143 48 -183 56s-75.667 12 -107 12c-106.667 0 -235 -53.333 -385 -160v133c140.667 96.667 269.667 145 387 145c50.667 0 99.667 -6.33301 147 -19
s116.833 -35.834 208.5 -69.501s166.5 -50.5 224.5 -50.5c108 0 236.333 52.667 385 158v-131z" />
    <glyph glyph-name="nonbreakingspace" unicode="&#xa0;" horiz-adv-x="522" 
 />
    <glyph glyph-name="exclamdown" unicode="&#xa1;" horiz-adv-x="631" 
d="M420 1405c0 -60.667 -23.999 -96.334 -71.999 -107.001c0 -1.33301 -0.666992 -2 -2 -2c-18.667 0 -47.334 16.667 -86.001 50v8c0 11.333 13.667 45.333 41 102l6 -2c6 0 13 3.83301 21 11.5s14.667 12.834 20 15.501c48 -20.667 72 -42.667 72 -66v-10zM352.001 1057
c8.66699 -12 13 -27.001 13 -45.001c0 -4 -2 -13.667 -6 -29c-16.667 -79.333 -25 -160.666 -25 -243.999l16 -269c5.33301 -92.667 11.5 -169.5 18.5 -230.5s10.5 -101.167 10.5 -120.5c0 -58 -6 -97 -18 -117s-46.333 -37 -103 -51l-33 14c18 158 30.5 350.5 37.5 577.5
s15.833 387.5 26.5 481.5h4c6.66699 0 13.667 5.5 21 16.5s12.666 16.5 15.999 16.5h2c1.33301 0 3.33301 -0.666992 6 -2s4.66699 -2 6 -2c2.66699 0 5.33398 1.33301 8.00098 4z" />
    <glyph glyph-name="cent" unicode="&#xa2;" horiz-adv-x="950" 
d="M920 930c-20.667 -8.66699 -30.9922 -18.3301 -30.9922 -28.9971v-22c-20 -12 -31.667 -23.167 -35 -33.5s-11 -20.5 -23 -30.5c0 -2.66699 -0.666992 -4 -2 -4c-0.666992 0 -4.83398 4.66699 -12.501 14s-17.834 17.666 -30.501 24.999c0 6.66699 -4 14 -12 22l-14 -8
c-18 24.667 -40.667 37 -68 37h-12l-14 14c-13.333 2 -30.666 3 -51.999 3c-30.667 0 -50.334 -5.33301 -59.001 -16s-18.334 -67 -29.001 -169s-17.334 -250.667 -20.001 -446c6.66699 -12.667 17 -22.334 31 -29.001c13.333 0 24.666 -4.66699 33.999 -14h52l6 14h22
l8 -14h7c7.33301 0 16.666 2.33301 27.999 7l15 7l71 18h6c14 0 21 -6.66699 21 -20l-9 -46c-2 -14 -15 -31.667 -39 -53s-40.667 -36.666 -50 -45.999h-9c-25.333 0 -83.333 10 -174 30c-2.66699 2.66699 -6.66699 4 -12 4s-10 -1.33301 -14 -4l-2 -18l2 -76v-35l16 -14
c-10.667 -86 -20.167 -139.5 -28.5 -160.5s-25.5 -35.167 -51.5 -42.5v-14h-14c0 30 -12.333 45 -37 45c10.667 12.667 16 23 16 31c0 8.66699 -5.33301 14.667 -16 18c26 55.333 39 101.666 39 138.999l-2 33c0 7.33301 4.66699 12.666 14 15.999
c1.33301 9.33301 2 23 2 41c0 30 -4.5 50.667 -13.5 62s-25.833 21 -50.5 29c-52.667 16 -106 54.333 -160 115s-81 110.334 -81 149.001v2c-8 28.667 -12 57.334 -12 86.001c0 72 23.5 137 70.5 195l97.5 122c5.33301 -1.33301 10.666 -3.33301 15.999 -6
c8.66699 11.333 19 23.666 31 36.999c11.333 2 26.666 8.5 45.999 19.5s37.5 18.333 54.5 22s30 11.834 39 24.501s13.5 34.334 13.5 65.001c0 14.667 -2 36 -6 64s-6 48.333 -6 61c0 10.667 2 20.334 6 29.001s9.66699 23.667 17 45h20c25.333 18.667 43.666 28 54.999 28
c10.667 0 17.834 -6.83301 21.501 -20.5s5.5 -23.834 5.5 -30.501c0 -20.667 -6.83301 -49.334 -20.5 -86.001s-20.5 -63.334 -20.5 -80.001c0 -31.333 9 -47 27 -47c20.667 0 41.667 9.66699 63 29c0 -9.33301 2.66699 -14 8 -14h144l6 14
c34 -6.66699 59.5 -16.834 76.5 -30.501s25.5 -23.5 25.5 -29.5v-4c0 -6 1.5 -11 4.5 -15s4.5 -6.33301 4.5 -7v-2zM471.008 864.004l-22 8l-107 -78c-32.667 -23.333 -58.5 -54.833 -77.5 -94.5s-28.5 -80.167 -28.5 -121.5c0 -108 66.667 -202.333 200 -283
c15.333 58 27 247.667 35 569z" />
    <glyph glyph-name="sterling" unicode="&#xa3;" horiz-adv-x="1171" 
d="M1151 1303c-2.66699 -16 -3.99902 -26.333 -3.99902 -31c0 -16.667 -10.667 -34.5 -32 -53.5s-40 -28.5 -56 -28.5c-18 0 -42 9.66699 -72 29s-59.167 34 -87.5 44s-66.333 18.333 -114 25s-78.167 10 -91.5 10c-21.333 0 -44.333 -2 -69 -6s-39.667 -6 -45 -6h-21
c-18 0 -44.833 -8.66699 -80.5 -26s-67.667 -50.666 -96 -99.999s-42.5 -114.333 -42.5 -195c0 -101.333 8.33301 -173.166 25 -215.499s46.667 -63.5 90 -63.5l77 2l72 -2c89.333 0 153.5 2.83301 192.5 8.5s65.667 12.5 80 20.5s22.5 12 24.5 12
c3.33301 0 7.83301 -1.33301 13.5 -4s10.167 -4 13.5 -4c4.66699 0 8.66699 3.33301 12 10s6 10 8 10h2c4 -6.66699 13.167 -15.334 27.5 -26.001s21.5 -19 21.5 -25v-10c0 -28.667 -11.333 -43 -34 -43c-4.66699 0 -12.334 1.33301 -23.001 4
c-3.33301 -9.33301 -10.666 -19.666 -21.999 -30.999c-8.66699 4.66699 -16.334 9.66699 -23.001 15l-18 -5c-12.667 12.667 -31.167 20.334 -55.5 23.001s-61.833 4 -112.5 4c-82.667 0 -186.667 -4 -312 -12c9.33301 -32 19.833 -54.333 31.5 -67s30.5 -19 56.5 -19
c10.667 0 26.167 1 46.5 3s35.833 3 46.5 3l22 2c16.667 0 40.334 -2.66699 71.001 -8l44 -8c20 0 49.333 5.33301 88 16s66.667 16 84 16c42 0 63 -13.667 63 -41c0 -12 -3.5 -22.5 -10.5 -31.5s-15.833 -13.5 -26.5 -13.5l-22 2c-14 0 -21.667 -7.33301 -23 -22
c-106.667 24.667 -239 37 -397 37v-10c0 -32.667 16 -70.834 48 -114.501s48 -78.167 48 -103.5l-1 -34c-0.666992 -10.667 -7.16699 -21.5 -19.5 -32.5s-18.5 -19.5 -18.5 -25.5v-6c-9.33301 0 -16 2.66699 -20 8c-9.33301 -6.66699 -14 -12.667 -14 -18v-4
c-4 1.33301 -9.66699 2 -17 2l-37 -2c-5.33301 0 -12 2 -20 6c-9.33301 22 -17 37 -23 45c0 10.667 -2 22 -6 34l-6 15v31c-8.66699 60 -20.334 109.167 -35.001 147.5s-25.167 58.5 -31.5 60.5s-21.166 3 -44.499 3c-49.333 0 -80.666 -15.667 -93.999 -47v22
c-6.66699 13.333 -16.667 18.833 -30 16.5s-22.333 -3.5 -27 -3.5l-12 2c-7.33301 6.66699 -11 14 -11 22v6c13.333 15.333 29.333 23 48 23c5.33301 6 9.33301 15.333 12 28c0 -6 2.66699 -10.667 8 -14c13.333 5.33301 23.666 8 30.999 8c8.66699 0 20.167 -2 34.5 -6
s23.833 -6 28.5 -6s11 1.33301 19 4c6.66699 14 10 23.667 10 29c0 9.33301 -4.66699 14 -14 14l-54 2c-9.33301 0 -18 -0.666992 -26 -2c-0.666992 6.66699 -4.33398 13 -11.001 19s-10.667 10 -12 12c-4.66699 -6.66699 -11.334 -10 -20.001 -10
c-7.33301 6.66699 -11 13.334 -11 20.001c0 3.33301 1.16699 8.66602 3.5 15.999s3.5 13.666 3.5 18.999l-2 10h20c9.33301 4.66699 21.333 8.83398 36 12.501s24.667 7.66699 30 12s8 12.5 8 24.5l-6 168c0 95.333 14 174.833 42 238.5s64 110.5 108 140.5s75 45 93 45h11
c5.33301 0 16 7.16699 32 21.5s35.333 21.5 58 21.5l57 -4c8 8 15.667 15 23 21l6 -13l45 4c2.66699 0 6.33398 -1.66699 11.001 -5s9.66699 -5 15 -5c10.667 0 25 4 43 12c45.333 -8.66699 114.833 -19.334 208.5 -32.001s147.167 -28.334 160.5 -47.001zM1130 82
c0 -53.333 -7.99707 -89.667 -23.9971 -109c-190.667 33.333 -394 50 -610 50c-110 0 -223.333 -4.33301 -340 -13c1.33301 -1.33301 2 -4 2 -8c0 -6 -2.66699 -10.667 -8 -14c-2.66699 20 -14.334 30 -35.001 30c-13.333 0 -26.333 -2.66699 -39 -8c-5.33301 4 -8 11 -8 21
v10c66 57.333 121.667 84.333 167 81l216 -18l26 2c10.667 0 23.667 -3.33301 39 -10c1.33301 4.66699 4.66602 9.66699 9.99902 15c6.66699 -8.66699 21 -13 43 -13c10 0 39.167 2.83301 87.5 8.5s96.5 7.16699 144.5 4.5l104 -7c8 4 13 9 15 15
c61.333 5.33301 94.666 8 99.999 8c12.667 0 20.667 -0.666992 24 -2c5.33301 2.66699 13 4 23 4c27.333 0 48.333 -8.33301 63 -25v-22z" />
    <glyph glyph-name="currency" unicode="&#xa4;" horiz-adv-x="1241" 
d="M1157 424l-72 -73.999l-204 207c-74.667 -58.667 -161.334 -88 -260.001 -88c-96.667 0 -182 29.333 -256 88l-207 -207l-72 74l207 205c-58.667 77.333 -88 162.666 -88 255.999c0 92.667 29.333 178 88 256l-207 205l72 73l207 -207c78 60.667 163.333 91 256 91
c94.667 0 181.334 -30.333 260.001 -91l204 207l72 -73l-205 -205c57.333 -76 86 -161.333 86 -256s-28.667 -180 -86 -256zM623 571.001c86 0 159.667 31.167 221 93.5s92 136.5 92 222.5s-30.667 159.667 -92 221s-135 92 -221 92c-86.667 0 -160.667 -30.667 -222 -92
s-92 -135 -92 -221c0 -86.667 30.667 -161 92 -223s135.333 -93 222 -93z" />
    <glyph glyph-name="yen" unicode="&#xa5;" horiz-adv-x="1382" 
d="M1378 1350c2.66699 -8 4.00977 -14.333 4.00977 -19c0 -12 -10.333 -27.667 -31 -47s-32.667 -29.666 -36 -30.999c-0.666992 -1.33301 -3.66699 -2.66602 -9 -3.99902c-6.66699 -2.66699 -15.334 -7 -26.001 -13c-10 -6 -31.333 -32.667 -64 -80
c-25.333 -37.333 -46 -72 -62 -104c-9.33301 -18 -30 -44.333 -62 -79l-124 -188c-31.333 -45.333 -67.333 -93.666 -108 -144.999c-32.667 -41.333 -51.667 -65.666 -57 -72.999c-12.667 -17.333 -19 -29.666 -19 -36.999c0 -6 6.16699 -11.167 18.5 -15.5
s19.833 -6.5 22.5 -6.5l51 5c64 4 114.167 15.333 150.5 34s61.5 28 75.5 28l12 -2c22 -1.33301 36 -5.33301 42 -12s9 -18.334 9 -35.001c0 -16 -9.83301 -31.5 -29.5 -46.5s-32.167 -22.5 -37.5 -22.5c-4.66699 0 -10.167 1.66699 -16.5 5s-11.166 5 -14.499 5h-4
c-8 0 -30 2.33301 -66 7s-72 7 -108 7c-73.333 0 -114.666 -3 -123.999 -9s-17.833 -16.667 -25.5 -32s-15.167 -26 -22.5 -32c10 -7.33301 19.333 -11 28 -11c14.667 0 36.667 3.66699 66 11l4 -15c24 -2.66699 39.667 -4 47 -4c24 0 45.833 2.33301 65.5 7
s30.834 7 33.501 7s7.66699 -0.666992 15 -2s13 -2 17 -2c5.33301 0 10 1.33301 14 4s12.667 5.5 26 8.5s20.666 4.5 21.999 4.5h22c8.66699 2.66699 20.334 4 35.001 4c15.333 0 26.666 -3.5 33.999 -10.5s11 -12.5 11 -16.5v-20c0 -32.667 -13 -49 -39 -49l-18 4
c-4 1.33301 -10.333 2 -19 2c-18 0 -33.667 -7 -47 -21c-16.667 17.333 -45.334 26.333 -86.001 27l-100 2c-36.667 1.33301 -64.334 -1.16699 -83.001 -7.5s-33.334 -23 -44.001 -50s-16 -58.5 -16 -94.5c0 -21.333 2.33301 -52.833 7 -94.5s7 -72.167 7 -91.5
c0 -42.667 -15.667 -68 -47 -76c-14 -4 -21 -13.333 -21 -28c-4 2.66699 -9.33301 4 -16 4c-4.66699 0 -10.5 -1 -17.5 -3s-12.167 -3 -15.5 -3l-8 2c-13.333 15.333 -21 42.333 -23 81l-2 7c0 4.66699 3 16 9 34c22.667 72 34 148.667 34 230
c0 8.66699 -1.33301 33.334 -4 74.001c-38 9.33301 -70 14 -96 14c-16.667 0 -44.834 -2.33301 -84.501 -7s-70.834 -7 -93.501 -7c-40 0 -84.667 -6.16699 -134 -18.5s-81.333 -18.5 -96 -18.5c-10 0 -23.333 3.66699 -40 11s-25 16.666 -25 27.999
c0 8.66699 13.667 20 41 34s71 21 131 21h233c33.333 0 80.666 4.66699 141.999 14c-5.33301 11.333 -8 21.666 -8 30.999l4 20c0 5.33301 -4.66699 10.166 -14 14.499s-15 6.5 -17 6.5c-176 0 -298.333 -13.667 -367 -41l-10 4c-35.333 10.667 -53 18.334 -53 23.001
c0 9.33301 15 21.166 45 35.499s75.333 22.166 136 23.499l226 8h2v2c0 16.667 -29.333 86 -88 208s-139.667 270.667 -243 446c-30.667 22 -53 42.333 -67 61s-21 31.667 -21 39c0 10 7.16699 21.5 21.5 34.5s28.166 26.167 41.499 39.5c35.333 0 53 4.66699 53 14l-2 6
c0 5.33301 2.66699 8 8 8c9.33301 0 17.5 -5.83301 24.5 -17.5s26 -53.834 57 -126.501s76.167 -160.667 135.5 -264s109.5 -197 150.5 -281s68.833 -126 83.5 -126c4.66699 0 8 2 10 6c31.333 8.66699 67.666 41.334 108.999 98.001s106.666 157 195.999 301l63 102
c44.667 71.333 67.667 108.666 69 111.999c11.333 31.333 27.666 67.666 48.999 108.999s34.166 64.333 38.499 69s9 7.83398 14 9.50098s11.167 2.5 18.5 2.5c28.667 0 71 -6.66699 127 -20z" />
    <glyph glyph-name="brokenbar" unicode="&#xa6;" 
d="M575 674h-126v758h126v-758zM575 -350h-126v758h126v-758z" />
    <glyph glyph-name="section" unicode="&#xa7;" horiz-adv-x="1229" 
d="M602 1061c5.33301 -5.33301 7.99805 -11.002 7.99805 -17.002c0 -6.66699 -6.16699 -16 -18.5 -28s-18.5 -24.333 -18.5 -37c0 -15.333 20.167 -44.333 60.5 -87s107.833 -88 202.5 -136c10.667 0 24.5 -1.5 41.5 -4.5s56.833 -36.167 119.5 -99.5
c35.333 -36 59 -69.667 71 -101c21.333 -55.333 32 -97 32 -125c0 -88 -16 -165.167 -48 -231.5s-100 -127.166 -204 -182.499c-44.667 -23.333 -72 -43 -82 -59c-49.333 -73.333 -101.5 -126 -156.5 -158s-120.833 -62 -197.5 -90c-4 1.33301 -11.667 2 -23 2
c-9.33301 0 -16.666 -0.666992 -21.999 -2c-28.667 -20.667 -84.667 -31 -168 -31c-26 0 -44.5 10.333 -55.5 31s-16.5 51.334 -16.5 92.001c0 4.66699 4.66699 16.334 14 35.001c2.66699 1.33301 7 2 13 2c16 0 32.333 -10.333 49 -31c34.667 -9.33301 60.667 -14 78 -14
c50 0 101.5 7 154.5 21s96.833 31.667 131.5 53s63 47.833 85 79.5s37.667 59.5 47 83.5s14 53 14 87c0 60 -19.833 117.667 -59.5 173s-94.5 100.666 -164.5 135.999c-131.333 66.667 -217 124.667 -257 174s-60 106 -60 170c0 74 23.833 141 71.5 201
s111.834 103 192.501 129l22 20c4 4.66699 7.66699 8.66699 11 12c6 6 12.333 12 19 18l24 38c8.66699 14 18.667 27.333 30 40c10.667 12 22.334 23.333 35.001 34c12.667 11.333 26.667 21.333 42 30c14.667 9.33301 30.667 18 48 26c30.667 14 48.667 21 54 21h31
c2 1.33301 9.33301 9 22 23c37.333 6.66699 70.666 17.667 99.999 33l15 -17c18.667 4 37.667 6 57 6h21c18.667 0 39.667 -2.5 63 -7.5s35 -23.5 35 -55.5c0 -24 -5.16699 -45.333 -15.5 -64s-20.833 -28 -31.5 -28c-8 4.66699 -21.667 16.334 -41 35.001
s-41.333 28 -66 28c-92.667 0 -167.667 -17.833 -225 -53.5s-86 -73.167 -86 -112.5c0 -2.66699 1 -8.33398 3 -17.001s3 -16.667 3 -24v-6zM435.998 1006l-31 -8c-10.667 -2.66699 -23.5 -12 -38.5 -28s-27.667 -31.833 -38 -47.5s-19 -31.667 -26 -48
s-12.333 -32.166 -16 -47.499s-5.5 -29.666 -5.5 -42.999c0 -46.667 25.167 -94.667 75.5 -144s116.5 -86.666 198.5 -111.999c4 0 11.833 -5.16699 23.5 -15.5s22.167 -18.833 31.5 -25.5c76 -52.667 129.167 -102.834 159.5 -150.501s45.5 -101.834 45.5 -162.501v-16
c-2.66699 -10.667 -4 -17 -4 -19c0 -16 8.33301 -24 25 -24c30.667 0 65.167 25 103.5 75s57.5 102 57.5 156c0 60.667 -18.667 119.5 -56 176.5s-78 88.833 -122 95.5v3c0 13.333 -15 27.666 -45 42.999c-127.333 61.333 -211 116.333 -251 165s-61.333 102 -64 160z" />
    <glyph glyph-name="dieresis" unicode="&#xa8;" 
d="M760 1303c4.66699 -6.66699 14.002 -18 28.002 -34s21 -29.333 21 -40c0 -16 -7.83301 -32.333 -23.5 -49s-31.834 -25 -48.501 -25c-29.333 0 -57.833 15.167 -85.5 45.5s-41.5 53.5 -41.5 69.5c0 17.333 13 37 39 59v19h21l4 14c11.333 -2 20.666 -6.66699 27.999 -14
c3.33301 -10 7.83301 -19 13.5 -27s20.5 -14 44.5 -18zM309.002 1329c0 -9.33301 6.33301 -18 19 -26c48.667 -15.333 73 -45 73 -89c0 -11.333 -7.5 -24.166 -22.5 -38.499s-22.5 -26.5 -22.5 -36.5h-8c-9.33301 0 -16 -2 -20 -6c-75.333 54.667 -113 90 -113 106
c0 6 3.33301 18.667 10 38s19.334 34.166 38.001 44.499s30.667 15.5 36 15.5c3.33301 0 6.66602 -2.66699 9.99902 -8z" />
    <glyph glyph-name="copyright" unicode="&#xa9;" horiz-adv-x="555" 
d="M293 1464c61.333 0 114.168 -22.168 158.501 -66.501s66.5 -97.166 66.5 -158.499c0 -62 -22.333 -115 -67 -159s-98.667 -66 -162 -66c-58.667 0 -110.167 22.5 -154.5 67.5s-66.5 98.833 -66.5 161.5c0 58 22.167 109.333 66.5 154s97.166 67 158.499 67zM293.002 1049
c52 0 96.999 18.5 134.999 55.5s57 81.833 57 134.5s-18.667 97.667 -56 135s-82.666 56 -135.999 56c-52.667 0 -97.667 -19 -135 -57s-56 -82.667 -56 -134s18.833 -95.833 56.5 -133.5s82.5 -56.5 134.5 -56.5zM399.001 1200c0 -29.333 -9.83105 -53 -29.498 -71
s-45.834 -27 -78.501 -27c-34 0 -61.333 12.333 -82 37s-31 58.667 -31 102c0 40 11 72.167 33 96.5s50.667 36.5 86 36.5c62.667 0 96 -28.667 100 -86h-55c-2.66699 30 -18.334 45 -47.001 45c-38 0 -57 -30.667 -57 -92c0 -60 19 -90 57 -90c30 0 46.333 16.333 49 49h55
z" />
    <glyph glyph-name="ordfeminine" unicode="&#xaa;" horiz-adv-x="614" 
d="M143 1407c25.333 13.333 74.667 19.999 148 19.999c37.333 0 76.833 -12.333 118.5 -37s65.5 -94.667 71.5 -210c3.33301 -5.33301 9.33301 -9.5 18 -12.5s13 -7.16699 13 -12.5c0 -3.33301 -3.5 -8 -10.5 -14s-11.833 -16 -14.5 -30s-4 -48.333 -4 -103l2 -84
c0 -2.66699 -1.33301 -5.66699 -4 -9v-20c0 -15.333 2 -34.666 6 -57.999l7 -32l-2 -27l2 -28c-29.333 -27.333 -52 -41 -68 -41c-2.66699 0 -7.16699 1.33301 -13.5 4s-12.166 4 -17.499 4h-4c-4 12 -6 21.333 -6 28c0 27.333 9 51.333 27 72c2.66699 16 4 27.667 4 35
c0 23.333 -4.5 34 -13.5 32s-17.5 -3 -25.5 -3l-8 -13c-48.667 -14 -80.834 -24 -96.501 -30s-36.834 -9 -63.501 -9c-64.667 0 -103.667 13 -117 39c-17.333 13.333 -27 26.333 -29 39l-2 23l2 16c0 42.667 30 85.167 90 127.5s112 68 156 77s71.833 17.5 83.5 25.5
s17.5 25.667 17.5 53c0 28.667 -7.16699 53.667 -21.5 75s-37.833 38.333 -70.5 51l-48 19c-29.333 0 -65.333 -2 -108 -6c-17.333 -16.667 -36 -25 -56 -25c-13.333 0 -20 5 -20 15c0 4.66699 4.33301 14 13 28s21.334 21 38.001 21h6zM362.001 949.999
c23.333 31.333 35.001 58 35.001 80c0 49.333 -18.333 74 -55 74c-44.667 0 -79.334 -10.333 -104.001 -31h-15c-54.667 -30 -82 -61.333 -82 -94c0 -24 11 -44.667 33 -62s46.667 -26 74 -26c20.667 0 43 5.33301 67 16s39.667 21 47 31v12z" />
    <glyph glyph-name="guillemotleft" unicode="&#xab;" horiz-adv-x="1229" 
d="M1010 150c-2.66699 -38 -15.002 -72.333 -37.002 -103l-15 10c-7.33301 -2 -16.166 -6.16699 -26.499 -12.5s-17.833 -9.5 -22.5 -9.5c-10 0 -17.5 6.83301 -22.5 20.5s-8.83301 22 -11.5 25s-11.334 10.833 -26.001 23.5
c-105.333 92.667 -208.666 199.334 -309.999 320.001l-2 20l2 23c77.333 54 151.833 119 223.5 195s117.834 123 138.501 141s37.167 31.333 49.5 40s27.166 13 44.499 13c7.33301 0 12.333 -6 15 -18c-14.667 -44.667 -59.5 -94 -134.5 -148s-128.333 -97.333 -160 -130
s-47.5 -53.334 -47.5 -62.001h2c4 -35.333 17.833 -67 41.5 -95s56 -60 97 -96s71.333 -64 91 -84s33.834 -30 42.501 -30c3.33301 0 8 1.33301 14 4s10.333 4 13 4h4c12 -36 21.333 -54 28 -54c3.33301 0 6.33301 1 9 3zM474.998 838
c9.33301 -10 20.332 -14.9961 32.999 -14.9961c24.667 0 37 -13 37 -39c0 -10 -9.5 -26 -28.5 -48s-42.5 -41.333 -70.5 -58l-8 12h-10c-10.667 0 -40 -15.5 -88 -46.5s-104 -77.5 -168 -139.5l-2 -21l2 -22v-6c0 -16 4.33301 -28.167 13 -36.5s22.167 -17.333 40.5 -27
s36.833 -23.834 55.5 -42.501c41.333 -40.667 72.5 -68.834 93.5 -84.501s46.833 -30.834 77.5 -45.501s48 -28.334 52 -41.001l2 -16c0 -18.667 -6.5 -35 -19.5 -49s-27.167 -21 -42.5 -21s-42.666 13.667 -81.999 41s-100.5 75.666 -183.5 144.999s-129 109.5 -138 120.5
s-13.5 23.5 -13.5 37.5c0 15.333 6.66699 31.333 20 48s21 25.334 23 26.001c126 46 261 155.333 405 328z" />
    <glyph glyph-name="logicalnot" unicode="&#xac;" horiz-adv-x="1706" 
d="M1452 356h-115v385h-1083v117h1198v-502z" />
    <glyph glyph-name="sfthyphen" unicode="&#xad;" horiz-adv-x="975" 
d="M850 522c14.667 -16.667 22.002 -32.998 22.002 -48.998c0 -15.333 -6.33301 -27.5 -19 -36.5s-19 -18.5 -19 -28.5c-8.66699 0 -19.834 -4.83301 -33.501 -14.5s-21.834 -14.5 -24.501 -14.5c-4 0 -10.667 1.33301 -20 4c-45.333 12 -103.333 18 -174 18
c-28 0 -66.5 -2 -115.5 -6s-84.5 -6 -106.5 -6l-94 2c-23.333 0 -41 -0.666992 -53 -2c-44 -19.333 -70 -29 -78 -29c-5.33301 0 -12.166 4.66699 -20.499 14s-12.5 17.666 -12.5 24.999l2 7c8 7.33301 20.5 21.166 37.5 41.499s30 33.333 39 39s23.833 7.5 44.5 5.5
s36.334 -3 47.001 -3h15l8 15c18 -8 35 -12 51 -12c5.33301 0 13.166 0.666992 23.499 2s18.166 2 23.499 2l51 -2l74 2c14.667 0 48 -1.33301 100 -4l7 14c32.667 -9.33301 55.667 -14 69 -14c57.333 0 86 6 86 18l-2 6h2c6 0 21.667 4.66699 47 14v-14
c0 -5.33301 5 -8 15 -8z" />
    <glyph glyph-name="registered" unicode="&#xae;" horiz-adv-x="555" 
d="M293 1464c61.333 0 114.168 -22.168 158.501 -66.501s66.5 -97.166 66.5 -158.499c0 -62 -22.333 -115 -67 -159s-98.667 -66 -162 -66c-58.667 0 -110.167 22.5 -154.5 67.5s-66.5 98.833 -66.5 161.5c0 58 22.167 109.333 66.5 154s97.166 67 158.499 67zM293.002 1049
c52 0 96.999 18.5 134.999 55.5s57 81.833 57 134.5s-18.667 97.667 -56 135s-82.666 56 -135.999 56c-52.667 0 -97.667 -19 -135 -57s-56 -82.667 -56 -134s18.833 -95.833 56.5 -133.5s82.5 -56.5 134.5 -56.5zM395.001 1118h-57l-47 99h-35v-99h-53v242h88
c68 0 102 -23.333 102 -70c0 -33.333 -17 -55 -51 -65zM256.001 1253h35c32.667 0 49 11 49 33c0 24.667 -17 37 -51 37h-33v-70z" />
    <glyph glyph-name="overscore" unicode="&#xaf;" 
d="M1024 1757h-1024v103h1024v-103z" />
    <glyph glyph-name="degree" unicode="&#xb0;" horiz-adv-x="520" 
d="M250 1292c31.333 2.66699 54.333 4 69 4c92 0 138 -28.667 138 -86c0 -44.667 -25.833 -94.667 -77.5 -150s-110.5 -83 -176.5 -83c-42.667 0 -77 13.667 -103 41s-39 48.333 -39 63v6c0 40 21.667 77 65 111c22.667 18 34 32.333 34 43c0 4 -1.33301 8.66699 -4 14
c10 2 23.167 10.667 39.5 26s31.833 23.333 46.5 24zM270 1061c25.333 0 46 9.66699 62 29s24 44.333 24 75c0 49.333 -22.333 74 -67 74c-11.333 0 -35 -9.16699 -71 -27.5s-54 -39.833 -54 -64.5c0 -13.333 10 -31 30 -53s45.333 -33 76 -33z" />
    <glyph glyph-name="plusminus" unicode="&#xb1;" horiz-adv-x="1706" 
d="M1452 719h-539v-344h-118v344h-541v117h541v344h118v-344h539v-117zM1452 41h-1198v117h1198v-117z" />
    <glyph glyph-name="twosuperior" unicode="&#xb2;" horiz-adv-x="758" 
d="M690 633c0 -8.66699 -3.99707 -22.3359 -11.9971 -41.0029s-12 -31 -12 -37v-6c0 -1.33301 -0.666992 -2 -2 -2c-2 0 -6.5 1.83301 -13.5 5.5s-14.167 5.83398 -21.5 6.50098c-2 2 -4.33301 4 -7 6s-4 3.33301 -4 4c-3.33301 -4 -7.33301 -6 -12 -6l-41 11
c-14.667 4 -57 6 -127 6c-80 0 -155 -5.33301 -225 -16s-114.333 -19.667 -133 -27c-4 -1.33301 -8.66699 -2 -14 -2c-14.667 0 -26.334 6.33301 -35.001 19s-13 21.334 -13 26.001c0 11.333 18.667 28 56 50l24 15c4 6 16.167 10 36.5 12s36.166 4.33301 47.499 7
c-1.33301 9.33301 -2 20 -2 32v6h4c3.33301 0 5.16602 -3 5.49902 -9s2.83301 -10.333 7.5 -13c102.667 64 189.334 137.5 260.001 220.5s106 158.167 106 225.5v2l2 41c0 37.333 -17.833 72.333 -53.5 105s-72.167 49.667 -109.5 51s-67.666 2 -90.999 2
c-7.33301 0 -15.5 -2.33301 -24.5 -7s-15.833 -7 -20.5 -7h-6c-44.667 -21.333 -67 -38.333 -67 -51c-7.33301 -4.66699 -11.666 -8.33398 -12.999 -11.001c-2 1.33301 -7.33301 2 -16 2s-14.334 -3 -17.001 -9s-5.33398 -9 -8.00098 -9
c-9.33301 0 -17.5 4.83301 -24.5 14.5s-10.5 21.834 -10.5 36.501c0 14 5 25.333 15 34s33.5 15.834 70.5 21.501s71.667 13.5 104 23.5s71.833 15 118.5 15c10.667 0 20.5 -1 29.5 -3s16.167 -3 21.5 -3h16c40 0 77.667 -17.333 113 -52s53 -78.667 53 -132
c0 -150 -138 -327.667 -414 -533c1.33301 -2.66699 2 -4.66699 2 -6c0 -2 -0.666992 -4.66699 -2 -8s-2 -6 -2 -8c0 -6.66699 4.33301 -10 13 -10l8 2l278 8l33 -2c17.333 0 29.166 2 35.499 6s10.833 6 13.5 6l13 -2c1.33301 0 4 2 8 6c16 5.33301 26.333 8 31 8
c2.66699 0 12 -2.66699 28 -8v-16z" />
    <glyph glyph-name="threesuperior" unicode="&#xb3;" horiz-adv-x="655" 
d="M616 1339c0 -10 -23.6709 -29.667 -71.0039 -59c-5.33301 -2 -9.5 -7.66699 -12.5 -17s-6.5 -16 -10.5 -20c-15.333 -7.33301 -31.666 -20.333 -48.999 -39c-58.667 -60 -109.167 -103.167 -151.5 -129.5s-63.5 -40.5 -63.5 -42.5s4 -4.66699 12 -8l11 -4l30 2
c42.667 0 98.5 -17.5 167.5 -52.5s103.5 -96.833 103.5 -185.5c0 -46 -27 -97 -81 -153s-132.333 -84 -235 -84l-73 4c-12 0 -21.5 -1.66699 -28.5 -5s-16.833 -5 -29.5 -5c-23.333 0 -50.666 4 -81.999 12c-9.33301 9.33301 -14 25 -14 47
c0 1.33301 1.33301 7.16602 4 17.499s7.33398 15.5 14.001 15.5c2 0 5.66699 -1.33301 11 -4h-2c0 -1.33301 2.66699 -2 8 -2l24 2c2 0 5.5 -1 10.5 -3s9.16699 -3 12.5 -3c16 0 26.333 -0.666992 31 -2c42.667 -20.667 89 -31 139 -31c54 0 93.333 5 118 15
s45.667 31.833 63 65.5s26 69.5 26 107.5c0 56.667 -20.833 100.167 -62.5 130.5s-101.5 45.5 -179.5 45.5c-20 0 -49.333 -5.33301 -88 -16c-7.33301 -7.33301 -19 -15 -35 -23c0 10 -2 15 -6 15l-4 -8c-15.333 7.33301 -23 17.333 -23 30c0 10.667 4.83301 22.667 14.5 36
s21.5 20.666 35.5 21.999c6.66699 16.667 25 28 55 34c79.333 42.667 142.166 85.834 188.499 129.501s69.5 76.5 69.5 98.5c0 24.667 -28 37 -84 37c-64.667 0 -126.167 -6.5 -184.5 -19.5s-89.166 -19.5 -92.499 -19.5c-20 0 -30 15.667 -30 47c0 28.667 14.333 43 43 43
c0.666992 -3.33301 19.834 -6.16602 57.501 -8.49902s72.167 -3.5 103.5 -3.5c66 0 127 2.66699 183 8c2.66699 13.333 8 20 16 20h4c4.66699 0 9 -4 13 -12c21.333 13.333 40.333 20 57 20s32 -3.16699 46 -9.5s21 -15.833 21 -28.5v-7z" />
    <glyph glyph-name="acute" unicode="&#xb4;" 
d="M723 1364c9.33301 9.33301 20.333 14 33 14c12 0 28 -7.83301 48 -23.5s30 -36.5 30 -62.5c0 -12.667 -1 -22.667 -3 -30c-48.667 -13.333 -71.667 -23 -69 -29h-6c-4 0 -9.16699 -1.33301 -15.5 -4s-10.833 -4 -13.5 -4c-4.66699 0 -8.66699 2.66699 -12 8
c-14 -2 -21 -6.66699 -21 -14l2 -7c-4 0 -12.333 2.83301 -25 8.5s-24 9.83398 -34 12.501l-213 -61c-76.667 -20.667 -123.667 -37.334 -141 -50.001c-8.66699 4 -13 9 -13 15v6c17.333 30 56.333 62.667 117 98h21c25.333 0 82.666 21.333 171.999 64
c66.667 39.333 114.334 59 143.001 59z" />
    <glyph glyph-name="mu1" unicode="&#xb5;" horiz-adv-x="1128" 
d="M1051 1069l-162.001 -754c-15.333 -66 -23 -111 -23 -135c0 -43.333 24 -65 72 -65c10.667 0 22.334 0.666992 35.001 2l-27 -125c-28.667 -6.66699 -59.334 -10 -92.001 -10c-90.667 0 -139 49 -145 147c-59.333 -98 -155.666 -147 -288.999 -147
c-116 0 -203.333 45.667 -262 137l-113 -545h-156l316 1495h157l-126 -596c-10 -42 -15 -87.667 -15 -137c0 -72 19 -127.833 57 -167.5s91.333 -59.5 160 -59.5c164 0 276 136.333 336 409l121 551h156z" />
    <glyph glyph-name="paragraph" unicode="&#xb6;" horiz-adv-x="1190" 
d="M911 1415l89.999 0.00195312c50.667 0 76 -13 76 -39c0 -14 -3.16699 -26 -9.5 -36s-14.166 -15 -23.499 -15c-2 0 -7.66699 3.5 -17 10.5s-19.333 10.5 -30 10.5c-6.66699 0 -17 -1.66699 -31 -5l-20 -4l-31 4v-73l-4 -162l2 -137c0 -17.333 -2 -44.333 -6 -81
s-6 -65 -6 -85l2 -103c0 -27.333 -3 -61.5 -9 -102.5s-9 -69.5 -9 -85.5c0 -278.667 7 -441.334 21 -488.001c10.667 -32 16 -71.333 16 -118v-15c4 -10 6 -20 6 -30c0 -36 -30 -54 -90 -54c-36 0 -54 15.333 -54 46c0 5.33301 3.16699 18.166 9.5 38.499s9.5 37.5 9.5 51.5
c0 10.667 -4.16699 80.834 -12.5 210.501s-12.5 264.167 -12.5 403.5c0 47.333 3.83301 112.5 11.5 195.5s12.167 150.833 13.5 203.5l4 152l-21 16l-4 197c-11.333 13.333 -25.666 20 -42.999 20c-24.667 0 -52.667 -11.333 -84 -34l11 -420l-17 -37l23 -82l-17 -57l15 -95
c-10 -62 -15 -115.667 -15 -161l4 -129v-82c0 -52.667 3.66699 -153 11 -301c10.667 -24 16 -42 16 -54c0 -18 -9.66699 -37.167 -29 -57.5s-39.666 -30.5 -60.999 -30.5c-15.333 0 -28 5.83301 -38 17.5s-15 26.5 -15 44.5c0 5.33301 1.33301 14.166 4 26.499
s4 30.833 4 55.5l-6 125c0 51.333 2 108 6 170l4 61l-41 29l4 20l29 21l-4 96c0 4 0.666992 10.5 2 19.5s2 16.167 2 21.5c0 13.333 -4 33 -12 59l-11 -2c-10 0 -22.167 4.5 -36.5 13.5s-25.166 13.5 -32.499 13.5h-9c-6.66699 0 -41.334 14.167 -104.001 42.5
s-111.834 70 -147.501 125s-53.5 119.167 -53.5 192.5c0 55.333 8.16699 107.5 24.5 156.5s40.666 93.5 72.999 133.5s75.5 76.5 129.5 109.5s99.333 49.5 136 49.5h45l20 -10c6 -3.33301 24 -6.33301 54 -9l32 29h74c18 0 36.333 -0.666992 55 -2
c10 27.333 33.333 41 70 41c28 0 47 -11.667 57 -35z" />
    <glyph glyph-name="periodcentered" unicode="&#xb7;" horiz-adv-x="371" 
d="M195 784c15.333 -0.666992 25.668 -10.501 31.001 -29.501s13.666 -36.667 24.999 -53s17 -31.166 17 -44.499c0 -54.667 -31.333 -88.667 -94 -102c-16 10.667 -28.333 18.334 -37 23.001c-2 4 -8.33301 14.667 -19 32s-16 40 -16 68c0 6.66699 1.33301 17 4 31
c9.33301 11.333 17 22.666 23 33.999z" />
    <glyph glyph-name="periodcentered" unicode="&#x2219;" horiz-adv-x="371" 
d="M195 784c15.333 -0.666992 25.668 -10.501 31.001 -29.501s13.666 -36.667 24.999 -53s17 -31.166 17 -44.499c0 -54.667 -31.333 -88.667 -94 -102c-16 10.667 -28.333 18.334 -37 23.001c-2 4 -8.33301 14.667 -19 32s-16 40 -16 68c0 6.66699 1.33301 17 4 31
c9.33301 11.333 17 22.666 23 33.999z" />
    <glyph glyph-name="cedilla" unicode="&#xb8;" 
d="M541 78c9.33301 -4.66699 14.334 -12.998 15.001 -24.998l1 -38c10.667 -58.667 16 -134.667 16 -228c0 -74.667 -5.83301 -119.667 -17.5 -135s-28.834 -23 -51.501 -23c-16 0 -29.167 4.83301 -39.5 14.5s-15.5 21.167 -15.5 34.5c0 4.66699 1.33301 13.667 4 27
s4 25 4 35l-2 33c0 18.667 5.66699 48.167 17 88.5s17 71.5 17 93.5l-2 41c0 7.33301 0.833008 16.666 2.5 27.999s2.5 19.666 2.5 24.999v8z" />
    <glyph glyph-name="onesuperior" unicode="&#xb9;" horiz-adv-x="508" 
d="M397 1407c2.66699 -5.33301 -2.33398 -11.832 -15.001 -19.499s-21.667 -18.667 -27 -33s-12.666 -49.666 -21.999 -105.999s-14 -124.5 -14 -204.5l5 -153l-2 -37l2 -55c0 -10.667 -1.16699 -24 -3.5 -40s-3.5 -26.667 -3.5 -32c0 -26 9 -67.667 27 -125
c-4.66699 -7.33301 -8.66699 -11.333 -12 -12c15.333 -10.667 21.833 -18.834 19.5 -24.501s-3.5 -9.83398 -3.5 -12.501v-4c-18 -2.66699 -33.667 -4 -47 -4l-51 2c-11.333 0 -19.666 -0.666992 -24.999 -2c0 2 -1.33301 5.5 -4 10.5s-4 8.83301 -4 11.5
c0 2 1.33301 8 4 18c20.667 71.333 31 149.333 31 234l-6 268l4 130c0 1.33301 -2.16699 7.66602 -6.5 18.999s-10.5 17 -18.5 17c-2 0 -8.5 -3.16699 -19.5 -9.5s-19.5 -13.166 -25.5 -20.499v-11c-6 0 -12 -2 -18 -6c-1.33301 -5.33301 -9.16602 -13.5 -23.499 -24.5
s-24.166 -27.167 -29.499 -48.5l-19 4c-5.33301 0 -13.5 -2.83301 -24.5 -8.5s-19.167 -8.5 -24.5 -8.5l-6 2c-2.66699 -1.33301 -5.33398 -4.66602 -8.00098 -9.99902c0 1.33301 -0.666992 2 -2 2c-10 19.333 -15 31 -15 35s6.16699 9 18.5 15s21.666 15.5 27.999 28.5
s9.5 21.833 9.5 26.5c0 1.33301 -1 2.66602 -3 3.99902c13.333 5.33301 23 8 29 8l17 -2c0 -1.33301 0.666992 -2 2 -2c0.666992 0 3.5 1.83301 8.5 5.5s17.667 10.667 38 21s33.5 18.5 39.5 24.5c62.667 70.667 96.667 106 102 106c4 0 6 -2.66699 6 -8
c19.333 23.333 48.666 37 87.999 41z" />
    <glyph glyph-name="ordmasculine" unicode="&#xba;" horiz-adv-x="758" 
d="M98 1204c30 57.333 74 101.336 132 132.003s126 46 204 46c25.333 0 48 -1.33301 68 -4s38.333 -7.16699 55 -13.5s32 -14.833 46 -25.5s27.5 -23.834 40.5 -39.501s25 -32.5 36 -50.5s16.5 -47.333 16.5 -88c0 -92.667 -31 -170.834 -93 -234.501
s-139.333 -95.5 -232 -95.5h-4c-7.33301 3.33301 -19 5 -35 5l-13 -7l-20 -2c-55.333 0 -108.5 20.167 -159.5 60.5s-76.5 88.5 -76.5 144.5c0 19.333 1.5 38.166 4.5 56.499s7.16699 35.5 12.5 51.5l18 48v16zM602 1106l0.00292969 12.0039
c0 69.333 -25.333 122.5 -76 159.5s-94.334 55.5 -131.001 55.5c-14.667 0 -32.334 -3.33301 -53.001 -10c-13.333 -18 -24.333 -27 -33 -27c-8 0 -17.333 0.666992 -28 2c-10 -12.667 -28.667 -23.334 -56 -32.001c-18 -12 -33.333 -36.667 -46 -74s-19 -72.333 -19 -105
c0 -55.333 15 -98.333 45 -129s54 -48.334 72 -53.001s29.333 -10 34 -16c4 -1.33301 10.333 -2 19 -2c80 0 123.667 6 131 18c3.33301 5.33301 6.66602 8 9.99902 8c2.66699 0 6.66699 -1.33301 12 -4c43.333 27.333 74 60.666 92 99.999s27 71.666 27 96.999z" />
    <glyph glyph-name="guillemotright" unicode="&#xbb;" horiz-adv-x="1229" 
d="M662 879c30 32.667 53.668 49 71.001 49c3.33301 0 6.66602 -0.666992 9.99902 -2c5.33301 -2.66699 16 -13.667 32 -33c23.333 -27.333 46.333 -59 69 -95c13.333 -21.333 31 -52.333 53 -93c19.333 -35.333 33.666 -60.333 42.999 -75c15.333 -26 30 -47 44 -63
c28 -32 42.333 -49 43 -51c7.33301 -15.333 11 -26.333 11 -33s-2 -12 -6 -16c-59.333 -43.333 -150.666 -141 -273.999 -293l-8 -53c-32 -38.667 -55 -64 -69 -76s-26.667 -18 -38 -18c-10.667 0 -21 4.66699 -31 14l-14 -14c-9.33301 18.667 -14 32.334 -14 41.001
c0 2.66699 2.5 5.33398 7.5 8.00098s21.5 19.667 49.5 51v23h21c20 27.333 30.333 42.166 31 44.499s17.667 18.5 51 48.5s50.333 54.667 51 74l14 7v20c10 4.66699 21.5 15.667 34.5 33s24.833 27.666 35.5 30.999c8 14 12 29 12 45s-19 60.167 -57 132.5
s-95.333 160.5 -172 264.5v29zM621.001 498c2.66699 -8.66699 3.99902 -16.3359 3.99902 -23.0029c0 -26.667 -34 -62.667 -102 -108c-47.333 -31.333 -85.666 -60 -114.999 -86s-65 -65.667 -107 -119s-70.5 -84.833 -85.5 -94.5s-29.5 -14.5 -43.5 -14.5
c-12.667 0 -23 3.33301 -31 10s-12 14.334 -12 23.001c0 23.333 14.333 47.333 43 72l8 28c2.66699 1.33301 7 2 13 2c8 0 15.333 -3.33301 22 -10c166.667 122 250 204.667 250 248c0 13.333 -6 28.833 -18 46.5s-51 56.5 -117 116.5s-105.833 98.333 -119.5 115
s-31.667 31.5 -54 44.5s-33.5 31.167 -33.5 54.5c0 24 6.83301 43 20.5 57s31.5 21 53.5 21c6 0 28.667 -20.667 68 -62l123.5 -124c43 -41.333 83.667 -78.666 122 -111.999s65.5 -57.666 81.5 -72.999c7.33301 0 17 -4 29 -12z" />
    <glyph glyph-name="onequarter" unicode="&#xbc;" horiz-adv-x="1925" 
d="M379 1405c2 -5.33301 -2.83398 -11.665 -14.501 -18.998s-20.334 -17.833 -26.001 -31.5s-12.667 -46.667 -21 -99s-12.5 -115.833 -12.5 -190.5l4 -141l-2 -35l2 -51c0 -10 -1 -22.5 -3 -37.5s-3 -25.167 -3 -30.5c0 -28.667 8.33301 -67.667 25 -117
c-3.33301 -6 -7 -10 -11 -12c12.667 -6 19 -12 19 -18l-2 -15v-4c-18.667 -2.66699 -34.334 -4 -47.001 -4l-47 2c-11.333 0 -19.666 -0.666992 -24.999 -2c-0.666992 2 -2.16699 5.16699 -4.5 9.5s-3.5 8.16602 -3.5 11.499c0 1.33301 1.33301 7 4 17
c19.333 66.667 29 139.334 29 218.001l-4 252c0 28 0.333008 50 1 66l3 53c0 0.666992 -2.16699 6.66699 -6.5 18s-10.5 17 -18.5 17c-1.33301 0 -7.16602 -2.83301 -17.499 -8.5s-18.833 -12.5 -25.5 -20.5v-8c-6 0 -12 -2 -18 -6c-1.33301 -6 -8.83301 -14.333 -22.5 -25
s-23.5 -25.667 -29.5 -45l-16 4c-4.66699 0 -12.167 -2.33301 -22.5 -7s-17.833 -7 -22.5 -7h-8c-4 -2.66699 -6 -5.66699 -6 -9c-1.33301 0 -2.83301 1.16699 -4.5 3.5s-4.16699 7 -7.5 14s-5 12.167 -5 15.5c0 4 0.666992 6.66699 2 8c20 10 32.333 19.167 37 27.5
s7.83398 15.166 9.50098 20.499s2.5 8.66602 2.5 9.99902v4c10 4 19 6 27 6l14 -2h4l44 24c18.667 10 30.667 17.667 36 23c59.333 65.333 92.333 98 99 98c4 0 6 -2 6 -6c17.333 19.333 45.333 32.333 84 39zM1182 1384c26.667 12.667 52.6689 19 78.002 19
c22 0 39.667 -10.667 53 -32s20 -42.666 20 -63.999c0 -15.333 -3.33301 -26.333 -10 -33s-18.167 -13.667 -34.5 -21s-28.833 -13.333 -37.5 -18v-21h-6c-6 0 -12 -3.33301 -18 -10s-11 -10 -15 -10c-1.33301 0 -4.66602 1.33301 -9.99902 4
c-398 -652.667 -598 -992 -600 -1018c-7.33301 -24.667 -26 -57 -56 -97s-50.333 -67.667 -61 -83c7.33301 -9.33301 11 -17 11 -23c0 -2 -10 -22.833 -30 -62.5s-30 -63.834 -30 -72.501l-18 31l-39 18c-5.33301 2 -8 5 -8 9l2 6c0 5.33301 -2.66699 8 -8 8h-23
c5.33301 36 15 63.167 29 81.5s34 37.666 60 57.999s49.5 45 70.5 74s43.167 65.833 66.5 110.5l71 137l63 86c45.333 76 87.666 151 126.999 225s64.666 114.333 75.999 121c32.667 52.667 111.334 212.334 236.001 479.001c15.333 8.66699 25.166 25.167 29.499 49.5
s8.16602 40.5 11.499 48.5zM1876 233.001c6.66699 -6.66699 10.0039 -14.666 10.0039 -23.999c0 -6.66699 -5.83301 -18.167 -17.5 -34.5s-20.834 -24.5 -27.501 -24.5c-5.33301 0 -9.33301 1.33301 -12 4c-4.66699 -7.33301 -10.334 -11 -17.001 -11l-10 2l-6 -2
c-4 0 -9.33301 2.16699 -16 6.5s-11.667 6.5 -15 6.5h-41c-5.33301 0.666992 -11.666 1.83398 -18.999 3.50098s-12.333 2.5 -15 2.5l-2 -2h-7c-10 0 -16.833 -3.5 -20.5 -10.5s-5.5 -22.167 -5.5 -45.5c0 -44.667 8 -70.334 24 -77.001v-4c0 -19.333 -16.333 -29 -49 -29
h-16c-4.66699 0 -15 1.33301 -31 4v2c0 2.66699 2.66699 18 8 46s9 61 11 99c-22 11.333 -44 17 -66 17c-8.66699 0 -22.334 -1 -41.001 -3s-32.334 -3 -41.001 -3h-8c-5.33301 1.33301 -13.666 2 -24.999 2l-37 -4h-14c-24.667 0 -42.334 -2.5 -53.001 -7.5
s-25 -6.5 -43 -4.5s-31 3 -39 3h-14c-1.33301 10 -2 19.667 -2 29c0 10 2 17 6 21c2 9.33301 7.33301 19.333 16 30l51 60l99 128c34.667 44 60.334 77.833 77.001 101.5s37.5 55 62.5 94s48 76.833 69 113.5s32 55.167 33 55.5s2.16699 0.5 3.5 0.5l23 -2
c4.66699 0 7.5 4.5 8.5 13.5s2.83301 14.833 5.5 17.5l-2 -6c0 -2 2.66699 -4.5 8 -7.5l13 -7.5c3.33301 4.66699 8.66602 7 15.999 7c16.667 -12.667 25 -22.334 25 -29.001c0 -1.33301 -1.33301 -3.33301 -4 -6c-35.333 -27.333 -113.5 -117.833 -234.5 -271.5
s-181.5 -242.167 -181.5 -265.5c0 -8 4.66699 -12 14 -12l14 2c4 0 9 -2 15 -6l14 12c4.66699 -0.666992 8.83398 -2.83398 12.501 -6.50098s6.5 -5.5 8.5 -5.5l49 4c15.333 1.33301 34.666 2 57.999 2c46 0 78.333 2 97 6c15.333 20 23 57.667 23 113
c0 22.667 -2 47.334 -6 74.001s-6 43.667 -6 51v32c3.33301 10 11.333 20.333 24 31c-5.33301 4 -8 9.66699 -8 17c22 -11.333 35.667 -17 41 -17h6c9.33301 6.66699 18.333 10 27 10l-33 -10c-4 -20.667 -6 -42.667 -6 -66c0 -24 2.66699 -54.5 8 -91.5s8 -62.167 8 -75.5
c0 -16 2 -38.667 6 -68c9.33301 -1.33301 23 -2 41 -2l64 2c26.667 0 41.667 4.66699 45 14c18.667 -4 31 -6 37 -6c3.33301 0 6.66602 2.66699 9.99902 8z" />
    <glyph glyph-name="onehalf" unicode="&#xbd;" horiz-adv-x="1913" 
d="M379 1405c2 -5.33301 -2.83398 -11.665 -14.501 -18.998s-20.334 -17.833 -26.001 -31.5s-12.667 -46.667 -21 -99s-12.5 -115.833 -12.5 -190.5l4 -141l-2 -35l2 -51c0 -10 -1 -22.5 -3 -37.5s-3 -25.167 -3 -30.5c0 -28.667 8.33301 -67.667 25 -117
c-3.33301 -6 -7 -10 -11 -12c12.667 -6 19 -12 19 -18l-2 -15v-4c-18.667 -2.66699 -34.334 -4 -47.001 -4l-47 2c-11.333 0 -19.666 -0.666992 -24.999 -2c-0.666992 2 -2.16699 5.16699 -4.5 9.5s-3.5 8.16602 -3.5 11.499c0 1.33301 1.33301 7 4 17
c19.333 66.667 29 139.334 29 218.001l-4 252c0 28 0.333008 50 1 66l3 53c0 0.666992 -2.16699 6.66699 -6.5 18s-10.5 17 -18.5 17c-1.33301 0 -7.16602 -2.83301 -17.499 -8.5s-18.833 -12.5 -25.5 -20.5v-8c-6 0 -12 -2 -18 -6c-1.33301 -6 -8.83301 -14.333 -22.5 -25
s-23.5 -25.667 -29.5 -45l-16 4c-4.66699 0 -12.167 -2.33301 -22.5 -7s-17.833 -7 -22.5 -7h-8c-4 -2.66699 -6 -5.66699 -6 -9c-1.33301 0 -2.83301 1.16699 -4.5 3.5s-4.16699 7 -7.5 14s-5 12.167 -5 15.5c0 4 0.666992 6.66699 2 8c20 10 32.333 19.167 37 27.5
s7.83398 15.166 9.50098 20.499s2.5 8.66602 2.5 9.99902v4c10 4 19 6 27 6l14 -2h4l44 24c18.667 10 30.667 17.667 36 23c59.333 65.333 92.333 98 99 98c4 0 6 -2 6 -6c17.333 19.333 45.333 32.333 84 39zM1182 1384c26.667 12.667 52.6689 19 78.002 19
c22 0 39.667 -10.667 53 -32s20 -42.666 20 -63.999c0 -15.333 -3.33301 -26.333 -10 -33s-18.167 -13.667 -34.5 -21s-28.833 -13.333 -37.5 -18v-21h-6c-6 0 -12 -3.33301 -18 -10s-11 -10 -15 -10c-1.33301 0 -4.66602 1.33301 -9.99902 4
c-398 -652.667 -598 -992 -600 -1018c-7.33301 -24.667 -26 -57 -56 -97s-50.333 -67.667 -61 -83c7.33301 -9.33301 11 -17 11 -23c0 -2 -10 -22.833 -30 -62.5s-30 -63.834 -30 -72.501l-18 31l-39 18c-5.33301 2 -8 5 -8 9l2 6c0 5.33301 -2.66699 8 -8 8h-23
c5.33301 36 15 63.167 29 81.5s34 37.666 60 57.999s49.5 45 70.5 74s43.167 65.833 66.5 110.5l71 137l63 86c45.333 76 87.666 151 126.999 225s64.666 114.333 75.999 121c32.667 52.667 111.334 212.334 236.001 479.001c15.333 8.66699 25.166 25.167 29.499 49.5
s8.16602 40.5 11.499 48.5zM1847 98.001c1.33301 -3.33301 2.00293 -8.66797 2.00293 -16.001c0 -8 -4 -20.667 -12 -38s-12 -28.666 -12 -33.999v-6c0 -1.33301 -0.666992 -2 -2 -2s-5 1.66699 -11 5s-11.5 5.5 -16.5 6.5s-8.66699 2.83301 -11 5.5s-3.83301 4 -4.5 4
c-2.66699 -4.66699 -6.33398 -7 -11.001 -7c-0.666992 0 -2.66699 0.666992 -6 2c-25.333 10 -77 15 -155 15c-36 0 -73.667 -1.5 -113 -4.5s-82 -7.83301 -128 -14.5s-72.667 -11.334 -80 -14.001l-21 -8h-15c-14 0 -24.667 5.83301 -32 17.5s-11 19.5 -11 23.5
c0 10 11.167 21.5 33.5 34.5l42.5 24.5c3.33301 6.66699 15.166 11 35.499 13s35.166 4 44.499 6c-1.33301 9.33301 -2 19.333 -2 30v6h4c3.33301 0 5 -2.33301 5 -7c0 -6 1.66699 -10.333 5 -13c70 36.667 145.833 97.334 227.5 182.001s122.5 162.667 122.5 234v2
c2 13.333 3 25.666 3 36.999c0 34.667 -17.333 67.667 -52 99s-71.334 47.333 -110.001 48h-80c-8 0 -16.333 -2 -25 -6s-14.667 -6 -18 -6h-4c-44 -18.667 -66.667 -35 -68 -49c-5.33301 -2.66699 -8.66602 -5.66699 -9.99902 -9c-2.66699 2 -8 3 -16 3
s-13.667 -5.66699 -17 -17h-6c-8.66699 0 -16.334 4.5 -23.001 13.5s-10 20.167 -10 33.5c0 12.667 4.33301 22.834 13 30.501s30.834 14 66.501 19s69 12.667 100 23s68.833 15.5 113.5 15.5c9.33301 0 18.5 -1 27.5 -3s16.167 -3 21.5 -3h15c38 0 74 -16.167 108 -48.5
s51 -73.5 51 -123.5c0 -140 -131.667 -306 -395 -498v-6l-2 -14c0 -10.667 5 -14 15 -10c5.33301 2.66699 61 5 167 7l103 3l30 -2c18 0 29 1.66699 33 5s9 5 15 5h12c2 0 4.66699 2 8 6c12 4 21.667 6 29 6s16 -2 26 -6z" />
    <glyph glyph-name="threequarters" unicode="&#xbe;" horiz-adv-x="2066" 
d="M1323 1384c26.667 12.667 52.668 19 78.001 19c22 0 39.833 -10.667 53.5 -32s20.5 -42.666 20.5 -63.999c0 -15.333 -3.33301 -26.333 -10 -33s-18.334 -13.667 -35.001 -21s-29 -13.333 -37 -18v-21h-7c-5.33301 0 -11.166 -3.33301 -17.499 -10
s-11.166 -10 -14.499 -10c-1.33301 0 -5 1.33301 -11 4c-398 -652.667 -598 -992 -600 -1018c-6.66699 -24.667 -25.167 -57 -55.5 -97s-50.5 -67.667 -60.5 -83c6.66699 -9.33301 10 -17 10 -23c0 -2 -10 -22.833 -30 -62.5s-29.667 -63.834 -29 -72.501l-19 31l-39 18
c-5.33301 2 -8 5 -8 9l2 6c0 5.33301 -2.66699 8 -8 8h-23c5.33301 36 15 63.167 29 81.5s34 37.666 60 57.999s49.5 45 70.5 74s43.5 65.833 67.5 110.5l70 137l64 86l126.5 225c39.667 74 65.167 114.333 76.5 121c32 52.667 110.333 212.334 235 479.001
c15.333 8.66699 25.166 25.167 29.499 49.5s8.16602 40.5 11.499 48.5zM588.001 1341c0 -10 -22.6709 -28.3379 -68.0039 -55.0049c-5.33301 -1.33301 -9.66602 -6.83301 -12.999 -16.5s-10.666 -18 -21.999 -25s-22.666 -16.167 -33.999 -27.5
c-55.333 -56 -103.333 -96.667 -144 -122s-61 -38.666 -61 -39.999s2.5 -3.16602 7.5 -5.49902s9.16699 -4.83301 12.5 -7.5c6 1.33301 17 2 33 2c44.667 0 98.5 -16.667 161.5 -50s94.5 -90.333 94.5 -171c0 -42 -25.333 -89.333 -76 -142s-125.667 -79 -225 -79l-72 4
c-10 0 -18.333 -1.66699 -25 -5s-16 -5 -28 -5c-20 0 -46 3.33301 -78 10c-9.33301 10 -14 25 -14 45c0 2 1.5 7.66699 4.5 17s7.5 14 13.5 14l8 -2v-2c2 -1.33301 4.33301 -2 7 -2l22 2c2.66699 0 6.5 -0.666992 11.5 -2s9.5 -2 13.5 -2c10.667 0 20 -1.33301 28 -4
c40 -18 83.667 -27 131 -27c54 0 92.833 5 116.5 15s43.334 30.333 59.001 61s23.5 63.334 23.5 98.001c0 109.333 -77 164 -231 164h-35l-32 -9c-11.333 -3.33301 -20.666 -7.83301 -27.999 -13.5s-14.666 -9.83398 -21.999 -12.501c0 8 -2 13 -6 15l-4 -11
c-14 10 -21 19.667 -21 29c0 10 4.66699 21.333 14 34s20.333 19.667 33 21c8.66699 16.667 26.667 27 54 31c75.333 40.667 134.666 81.167 177.999 121.5s65 70.833 65 91.5c0 23.333 -26.667 35 -80 35c-58.667 0 -116.334 -6.16699 -173.001 -18.5s-87 -18.5 -91 -18.5
c-7.33301 0 -13.833 4.33301 -19.5 13s-8.5 19.334 -8.5 32.001c0 26 14.333 39.667 43 41c0.666992 -3.33301 18.5 -6.16602 53.5 -8.49902s68.167 -3.5 99.5 -3.5c62 0 120 2.66699 174 8c3.33301 12 8.33301 18 15 18h6c2.66699 0 6 -3.33301 10 -10
c20.667 12 39 18 55 18c9.33301 0 22.333 -2.66699 39 -8s25 -14.666 25 -27.999v-7zM2017 232.995c7.33301 -6.66699 11.002 -14.667 11.002 -24c0 -6.66699 -6 -18.167 -18 -34.5s-21.333 -24.5 -28 -24.5c-5.33301 0 -9.33301 1.33301 -12 4
c-4.66699 -7.33301 -10 -11 -16 -11l-10 2l-7 -2c-4 0 -9.16699 2.16699 -15.5 6.5s-11.166 6.5 -14.499 6.5h-41c-5.33301 0.666992 -11.833 1.83398 -19.5 3.50098s-12.834 2.5 -15.501 2.5l-2 -2h-6c-10.667 0 -17.834 -3.5 -21.501 -10.5s-5.5 -22.167 -5.5 -45.5
c0 -44.667 8.33301 -70.334 25 -77.001v-4c0 -19.333 -16.333 -29 -49 -29h-17c-4 0 -14.333 1.33301 -31 4v2c0 2.66699 2.66699 18 8 46s9 61 11 99c-22 11.333 -44 17 -66 17c-8.66699 0 -22.167 -1 -40.5 -3s-32.166 -3 -41.499 -3h-8c-5.33301 1.33301 -13.333 2 -24 2
l-37 -4h-15c-24.667 0 -42.334 -2.5 -53.001 -7.5s-24.834 -6.5 -42.501 -4.5s-30.834 3 -39.501 3h-14c-1.33301 10 -2 19.667 -2 29c0 10 2 17 6 21c2.66699 9.33301 8 19.333 16 30l52 60l99 128c34 44 59.333 77.833 76 101.5s37.5 55 62.5 94s48.167 76.833 69.5 113.5
s32.333 55.167 33 55.5s2 0.5 4 0.5l22 -2c5.33301 0 8.33301 4.5 9 13.5s2.66699 14.833 6 17.5l-3 -6c0 -2 2.83301 -4.5 8.5 -7.5s9.83398 -5.5 12.501 -7.5c4 4.66699 9.33301 7 16 7c16.667 -12.667 25 -22.334 25 -29.001c0 -1.33301 -1.33301 -3.33301 -4 -6
c-35.333 -27.333 -113.5 -117.833 -234.5 -271.5s-181.5 -242.167 -181.5 -265.5c0 -8 4.66699 -12 14 -12l15 2c3.33301 0 8 -2 14 -6l14 12c4.66699 -0.666992 8.83398 -2.83398 12.501 -6.50098s6.5 -5.5 8.5 -5.5l50 4c14.667 1.33301 33.667 2 57 2c46 0 78.667 2 98 6
c14.667 20 22 57.667 22 113c0 22.667 -2 47.334 -6 74.001s-6 43.667 -6 51v32c3.33301 10 11.666 20.333 24.999 31c-6 4 -9 9.66699 -9 17c22 -11.333 35.667 -17 41 -17h6c9.33301 6.66699 18.333 10 27 10l6 -14c-18.667 -97.333 -28 -173.666 -28 -228.999
c0 -16 2 -38.667 6 -68c8.66699 -1.33301 22.334 -2 41.001 -2l63 2c26.667 0 41.667 4.66699 45 14c18.667 -4 31 -6 37 -6c3.33301 0 6.66602 2.66699 9.99902 8z" />
    <glyph glyph-name="questiondown" unicode="&#xbf;" horiz-adv-x="688" 
d="M502 1370c-2.66699 -4.66699 -9.33301 -10.667 -20 -18s-17 -14.333 -19 -21c-16.667 -27.333 -33 -41 -49 -41h-6c-52 35.333 -78 64 -78 86c0 17.333 9.66699 35.333 29 54s37 28 53 28c4 0 20 -8.83301 48 -26.5s42 -36.167 42 -55.5v-6zM463.001 1151
c27.333 -64 41.0029 -122.668 41.0029 -176.001c0 -42 -11.667 -89 -35 -141s-67.333 -121.333 -132 -208s-104.834 -151 -120.501 -193s-23.5 -81.333 -23.5 -118c0 -40 8.16699 -71.833 24.5 -95.5s63.166 -70.834 140.499 -141.501v-33
c-39.333 -39.333 -66.666 -59 -81.999 -59c-6.66699 0 -19.334 8.66699 -38.001 26l-75 68c-32 28.667 -53.5 60.667 -64.5 96s-16.5 62.666 -16.5 81.999c0 36.667 5.66699 73.834 17 111.501s59.333 114.334 144 230.001s134 189.334 148 221.001s21 59.167 21 82.5
c0 28 -4.33301 50.5 -13 67.5s-21.167 35.333 -37.5 55s-27.5 34.167 -33.5 43.5v8c0 6.66699 3.33301 15.667 10 27s10.667 21 12 29c22 1.33301 34.667 5 38 11s6.33301 9 9 9c5.33301 0 9 -4 11 -12c7.33301 13.333 16.666 20 27.999 20
c6.66699 0 15.667 -3.33301 27 -10z" />
    <glyph glyph-name="Agrave" unicode="&#xc0;" horiz-adv-x="1542" 
d="M909 1386c53.333 -184 221.334 -579.673 504.001 -1187.01c38 -56.667 57 -104.667 57 -144c0 -9.33301 -3.16699 -17.666 -9.5 -24.999s-29.666 -17 -69.999 -29s-66.833 -20.667 -79.5 -26c-10 12 -15 23.667 -15 35c0 10 1.33301 21.333 4 34l5 15
c0 22 -10.833 67.333 -32.5 136s-58.834 156 -111.501 262c-5.33301 2.66699 -10.833 10.167 -16.5 22.5s-19.834 18.5 -42.501 18.5c-12.667 0 -25 -6.33301 -37 -19c-2 5.33301 -16 10.333 -42 15l-30 8h-30c-68 0 -115.167 -3.83301 -141.5 -11.5
s-40.166 -11.5 -41.499 -11.5c-9.33301 0 -16.666 5 -21.999 15c-41.333 -11.333 -71.833 -15.666 -91.5 -12.999s-39.167 4 -58.5 4c-44 0 -84.833 -5.16699 -122.5 -15.5s-62 -15.666 -73 -15.999s-21.5 -8.83301 -31.5 -25.5l-14 10
c-68 -140.667 -118.667 -251.334 -152 -332.001c-4 -50 -14.5 -92.5 -31.5 -127.5s-32.5 -52.5 -46.5 -52.5h-2c-22.667 9.33301 -69 20.333 -139 33c-10.667 2 -16 8 -16 18c0 22 11.667 42.5 35 61.5s36.666 33.5 39.999 43.5c22 41.333 42 70 60 86
c24 28.667 54.167 75.834 90.5 141.501s66.166 109.834 89.499 132.501c0.666992 29.333 32.5 92.333 95.5 189s117.5 187.334 163.5 272.001s71.667 130.334 77 137.001c92.667 132.667 139 223 139 271v4c15.333 0 23 3.33301 23 10v10c0 24.667 16.333 51.334 49 80.001
l14 -6c17.333 22 31 33 41 33c12 0 18 -9 18 -27c0 -10.667 -2 -20.334 -6 -29.001zM958.001 564.994c18.667 5.33301 38.0039 8 58.0039 8c46 8.66699 69 21.667 69 39c0 1.33301 -38.667 100 -116 296s-128 294 -152 294c-16.667 0 -49.167 -46.333 -97.5 -139
s-102.5 -187.834 -162.5 -285.501s-90 -157.5 -90 -179.5c0 -15.333 10 -25.666 30 -30.999s31.667 -8 35 -8l19 2c11.333 0 26.666 -1.66699 45.999 -5s32.666 -5 39.999 -5c16 0 42.167 2.66699 78.5 8s59.166 8 68.499 8s20.666 -1.33301 33.999 -4s22 -4 26 -4
c9.33301 0 16 4.66699 20 14c16.667 -5.33301 31.667 -8 45 -8l31 2c7.33301 0 13.333 -0.666992 18 -2zM967.005 1726.99c79.333 -46.667 119.003 -81.999 119.003 -105.999c0 -6 -5 -10.333 -15 -13c-17.333 13.333 -65.333 30.666 -144 51.999l-210 59
c-8.66699 -2.66699 -19.334 -6.83398 -32.001 -12.501s-21 -8.5 -25 -8.5h-2l2 7c0 4.66699 -7 9.33398 -21 14.001c-3.33301 -5.33301 -7.33301 -8 -12 -8c-2.66699 0 -7.16699 1.33301 -13.5 4s-11.5 4 -15.5 4h-6c2.66699 6 -20.333 15.667 -69 29l-5 32
c0 21.333 9.16699 41 27.5 59s34.5 27 48.5 27c7.33301 0 19.666 -5.33301 36.999 -16c31.333 0 79 -19.667 143 -59c87.333 -42.667 144.666 -64 171.999 -64h21z" />
    <glyph glyph-name="Aacute" unicode="&#xc1;" horiz-adv-x="1542" 
d="M909 1386c53.333 -184 221.334 -579.673 504.001 -1187.01c38 -56.667 57 -104.667 57 -144c0 -9.33301 -3.16699 -17.666 -9.5 -24.999s-29.666 -17 -69.999 -29s-66.833 -20.667 -79.5 -26c-10 12 -15 23.667 -15 35c0 10 1.33301 21.333 4 34l5 15
c0 22 -10.833 67.333 -32.5 136s-58.834 156 -111.501 262c-5.33301 2.66699 -10.833 10.167 -16.5 22.5s-19.834 18.5 -42.501 18.5c-12.667 0 -25 -6.33301 -37 -19c-2 5.33301 -16 10.333 -42 15l-30 8h-30c-68 0 -115.167 -3.83301 -141.5 -11.5
s-40.166 -11.5 -41.499 -11.5c-9.33301 0 -16.666 5 -21.999 15c-41.333 -11.333 -71.833 -15.666 -91.5 -12.999s-39.167 4 -58.5 4c-44 0 -84.833 -5.16699 -122.5 -15.5s-62 -15.666 -73 -15.999s-21.5 -8.83301 -31.5 -25.5l-14 10
c-68 -140.667 -118.667 -251.334 -152 -332.001c-4 -50 -14.5 -92.5 -31.5 -127.5s-32.5 -52.5 -46.5 -52.5h-2c-22.667 9.33301 -69 20.333 -139 33c-10.667 2 -16 8 -16 18c0 22 11.667 42.5 35 61.5s36.666 33.5 39.999 43.5c22 41.333 42 70 60 86
c24 28.667 54.167 75.834 90.5 141.501s66.166 109.834 89.499 132.501c0.666992 29.333 32.5 92.333 95.5 189s117.5 187.334 163.5 272.001s71.667 130.334 77 137.001c92.667 132.667 139 223 139 271v4c15.333 0 23 3.33301 23 10v10c0 24.667 16.333 51.334 49 80.001
l14 -6c17.333 22 31 33 41 33c12 0 18 -9 18 -27c0 -10.667 -2 -20.334 -6 -29.001zM958.001 564.994c18.667 5.33301 38.0039 8 58.0039 8c46 8.66699 69 21.667 69 39c0 1.33301 -38.667 100 -116 296s-128 294 -152 294c-16.667 0 -49.167 -46.333 -97.5 -139
s-102.5 -187.834 -162.5 -285.501s-90 -157.5 -90 -179.5c0 -15.333 10 -25.666 30 -30.999s31.667 -8 35 -8l19 2c11.333 0 26.666 -1.66699 45.999 -5s32.666 -5 39.999 -5c16 0 42.167 2.66699 78.5 8s59.166 8 68.499 8s20.666 -1.33301 33.999 -4s22 -4 26 -4
c9.33301 0 16 4.66699 20 14c16.667 -5.33301 31.667 -8 45 -8l31 2c7.33301 0 13.333 -0.666992 18 -2zM1053 1847.99c9.33301 9.33301 20.333 14 33 14c12 0 28 -7.83301 48 -23.5s30 -36.5 30 -62.5c0 -12.667 -1 -22.667 -3 -30c-48.667 -13.333 -71.667 -23 -69 -29h-6
c-4 0 -9.16699 -1.33301 -15.5 -4s-10.833 -4 -13.5 -4c-4.66699 0 -8.66699 2.66699 -12 8c-14 -2 -21 -6.66699 -21 -14l2 -7c-4 0 -12.333 2.83301 -25 8.5s-24 9.83398 -34 12.501l-213 -61c-76.667 -20.667 -123.667 -37.334 -141 -50.001c-8.66699 4 -13 9 -13 15v6
c17.333 30 56.333 62.667 117 98h21c25.333 0 82.666 21.333 171.999 64c66.667 39.333 114.334 59 143.001 59z" />
    <glyph glyph-name="Acircumflex" unicode="&#xc2;" horiz-adv-x="1542" 
d="M909 1386c53.333 -184 221.334 -579.673 504.001 -1187.01c38 -56.667 57 -104.667 57 -144c0 -9.33301 -3.16699 -17.666 -9.5 -24.999s-29.666 -17 -69.999 -29s-66.833 -20.667 -79.5 -26c-10 12 -15 23.667 -15 35c0 10 1.33301 21.333 4 34l5 15
c0 22 -10.833 67.333 -32.5 136s-58.834 156 -111.501 262c-5.33301 2.66699 -10.833 10.167 -16.5 22.5s-19.834 18.5 -42.501 18.5c-12.667 0 -25 -6.33301 -37 -19c-2 5.33301 -16 10.333 -42 15l-30 8h-30c-68 0 -115.167 -3.83301 -141.5 -11.5
s-40.166 -11.5 -41.499 -11.5c-9.33301 0 -16.666 5 -21.999 15c-41.333 -11.333 -71.833 -15.666 -91.5 -12.999s-39.167 4 -58.5 4c-44 0 -84.833 -5.16699 -122.5 -15.5s-62 -15.666 -73 -15.999s-21.5 -8.83301 -31.5 -25.5l-14 10
c-68 -140.667 -118.667 -251.334 -152 -332.001c-4 -50 -14.5 -92.5 -31.5 -127.5s-32.5 -52.5 -46.5 -52.5h-2c-22.667 9.33301 -69 20.333 -139 33c-10.667 2 -16 8 -16 18c0 22 11.667 42.5 35 61.5s36.666 33.5 39.999 43.5c22 41.333 42 70 60 86
c24 28.667 54.167 75.834 90.5 141.501s66.166 109.834 89.499 132.501c0.666992 29.333 32.5 92.333 95.5 189s117.5 187.334 163.5 272.001s71.667 130.334 77 137.001c92.667 132.667 139 223 139 271v4c15.333 0 23 3.33301 23 10v10c0 24.667 16.333 51.334 49 80.001
l14 -6c17.333 22 31 33 41 33c12 0 18 -9 18 -27c0 -10.667 -2 -20.334 -6 -29.001zM958.001 564.994c18.667 5.33301 38.0039 8 58.0039 8c46 8.66699 69 21.667 69 39c0 1.33301 -38.667 100 -116 296s-128 294 -152 294c-16.667 0 -49.167 -46.333 -97.5 -139
s-102.5 -187.834 -162.5 -285.501s-90 -157.5 -90 -179.5c0 -15.333 10 -25.666 30 -30.999s31.667 -8 35 -8l19 2c11.333 0 26.666 -1.66699 45.999 -5s32.666 -5 39.999 -5c16 0 42.167 2.66699 78.5 8s59.166 8 68.499 8s20.666 -1.33301 33.999 -4s22 -4 26 -4
c9.33301 0 16 4.66699 20 14c16.667 -5.33301 31.667 -8 45 -8l31 2c7.33301 0 13.333 -0.666992 18 -2zM623.005 1787.99c6 -16.667 13.998 -25 23.998 -25c8 0 19.333 5.66699 34 17l54 39c21.333 16 35.833 27.833 43.5 35.5s14.5 21.5 20.5 41.5s11.667 33.167 17 39.5
s17 14.333 35 24s30.667 14.5 38 14.5c11.333 0 24.333 -11 39 -33c47.333 -73.333 117 -125.333 209 -156c26 -8.66699 39 -24.334 39 -47.001c0 -14 -22.667 -52 -68 -114v-33c-24.667 36.667 -53.334 69.334 -86.001 98.001v19
c-17.333 7.33301 -42.166 24.666 -74.499 51.999s-57.166 45.333 -74.499 54l-21 -20c-10 12 -21 18 -33 18c-13.333 0 -32.5 -8.5 -57.5 -25.5s-46.667 -30.833 -65 -41.5s-30.333 -24.167 -36 -40.5s-17.5 -34.166 -35.5 -53.499s-28.333 -29 -31 -29
c-2 0 -4.16699 1.33301 -6.5 4s-4.16602 4 -5.49902 4c-6.66699 0 -13 -9 -19 -27c-2 -1.33301 -6.66699 -2 -14 -2c-27.333 0 -41 24.667 -41 74c0 7.33301 1.33301 16.333 4 27c0 -8.66699 4.33301 -13 13 -13h6c18 26.667 35 43.667 51 51l-2 7c0 8 7.33301 21.667 22 41
h21z" />
    <glyph glyph-name="Atilde" unicode="&#xc3;" horiz-adv-x="1542" 
d="M909 1386c53.333 -184 221.334 -579.673 504.001 -1187.01c38 -56.667 57 -104.667 57 -144c0 -9.33301 -3.16699 -17.666 -9.5 -24.999s-29.666 -17 -69.999 -29s-66.833 -20.667 -79.5 -26c-10 12 -15 23.667 -15 35c0 10 1.33301 21.333 4 34l5 15
c0 22 -10.833 67.333 -32.5 136s-58.834 156 -111.501 262c-5.33301 2.66699 -10.833 10.167 -16.5 22.5s-19.834 18.5 -42.501 18.5c-12.667 0 -25 -6.33301 -37 -19c-2 5.33301 -16 10.333 -42 15l-30 8h-30c-68 0 -115.167 -3.83301 -141.5 -11.5
s-40.166 -11.5 -41.499 -11.5c-9.33301 0 -16.666 5 -21.999 15c-41.333 -11.333 -71.833 -15.666 -91.5 -12.999s-39.167 4 -58.5 4c-44 0 -84.833 -5.16699 -122.5 -15.5s-62 -15.666 -73 -15.999s-21.5 -8.83301 -31.5 -25.5l-14 10
c-68 -140.667 -118.667 -251.334 -152 -332.001c-4 -50 -14.5 -92.5 -31.5 -127.5s-32.5 -52.5 -46.5 -52.5h-2c-22.667 9.33301 -69 20.333 -139 33c-10.667 2 -16 8 -16 18c0 22 11.667 42.5 35 61.5s36.666 33.5 39.999 43.5c22 41.333 42 70 60 86
c24 28.667 54.167 75.834 90.5 141.501s66.166 109.834 89.499 132.501c0.666992 29.333 32.5 92.333 95.5 189s117.5 187.334 163.5 272.001s71.667 130.334 77 137.001c92.667 132.667 139 223 139 271v4c15.333 0 23 3.33301 23 10v10c0 24.667 16.333 51.334 49 80.001
l14 -6c17.333 22 31 33 41 33c12 0 18 -9 18 -27c0 -10.667 -2 -20.334 -6 -29.001zM958.001 564.994c18.667 5.33301 38.0039 8 58.0039 8c46 8.66699 69 21.667 69 39c0 1.33301 -38.667 100 -116 296s-128 294 -152 294c-16.667 0 -49.167 -46.333 -97.5 -139
s-102.5 -187.834 -162.5 -285.501s-90 -157.5 -90 -179.5c0 -15.333 10 -25.666 30 -30.999s31.667 -8 35 -8l19 2c11.333 0 26.666 -1.66699 45.999 -5s32.666 -5 39.999 -5c16 0 42.167 2.66699 78.5 8s59.166 8 68.499 8s20.666 -1.33301 33.999 -4s22 -4 26 -4
c9.33301 0 16 4.66699 20 14c16.667 -5.33301 31.667 -8 45 -8l31 2c7.33301 0 13.333 -0.666992 18 -2zM1149 1852.99c18 -4.66699 27 -20.335 27 -47.002l-2 -53v-19c-16.667 -6.66699 -25 -19.667 -25 -39l-6 2c-4.66699 0 -9.33398 -3.33301 -14.001 -10
s-9 -10.667 -13 -12c-0.666992 1.33301 -2.66699 2 -6 2l-20 -2c-26.667 -36.667 -61 -55 -103 -55c-16.667 0 -34 3.5 -52 10.5s-40.833 23 -68.5 48s-46.834 41.5 -57.501 49.5h-28c-34 23.333 -62 35 -84 35l-15 -2c-27.333 -4 -42.333 -8.66699 -45 -14
s-9.5 -11.666 -20.5 -18.999s-17.833 -14 -20.5 -20l4 -25c0 -0.666992 -0.5 -1.83398 -1.5 -3.50098s-1.83301 -3.16699 -2.5 -4.5c-7.33301 -23.333 -14.666 -37.666 -21.999 -42.999s-12.333 -10 -15 -14v-21c-35.333 10 -53 29 -53 57c0 11.333 2 23 6 35h19
c14.667 16.667 30 39.334 46 68.001s35 51.167 57 67.5s52.333 24.5 91 24.5c59.333 0 139.333 -35.333 240 -106c20.667 -16.667 37 -25 49 -25c46.667 0 72 41 76 123c20.667 0 40.334 4 59.001 12z" />
    <glyph glyph-name="Adieresis" unicode="&#xc4;" horiz-adv-x="1542" 
d="M909 1386c53.333 -184 221.334 -579.673 504.001 -1187.01c38 -56.667 57 -104.667 57 -144c0 -9.33301 -3.16699 -17.666 -9.5 -24.999s-29.666 -17 -69.999 -29s-66.833 -20.667 -79.5 -26c-10 12 -15 23.667 -15 35c0 10 1.33301 21.333 4 34l5 15
c0 22 -10.833 67.333 -32.5 136s-58.834 156 -111.501 262c-5.33301 2.66699 -10.833 10.167 -16.5 22.5s-19.834 18.5 -42.501 18.5c-12.667 0 -25 -6.33301 -37 -19c-2 5.33301 -16 10.333 -42 15l-30 8h-30c-68 0 -115.167 -3.83301 -141.5 -11.5
s-40.166 -11.5 -41.499 -11.5c-9.33301 0 -16.666 5 -21.999 15c-41.333 -11.333 -71.833 -15.666 -91.5 -12.999s-39.167 4 -58.5 4c-44 0 -84.833 -5.16699 -122.5 -15.5s-62 -15.666 -73 -15.999s-21.5 -8.83301 -31.5 -25.5l-14 10
c-68 -140.667 -118.667 -251.334 -152 -332.001c-4 -50 -14.5 -92.5 -31.5 -127.5s-32.5 -52.5 -46.5 -52.5h-2c-22.667 9.33301 -69 20.333 -139 33c-10.667 2 -16 8 -16 18c0 22 11.667 42.5 35 61.5s36.666 33.5 39.999 43.5c22 41.333 42 70 60 86
c24 28.667 54.167 75.834 90.5 141.501s66.166 109.834 89.499 132.501c0.666992 29.333 32.5 92.333 95.5 189s117.5 187.334 163.5 272.001s71.667 130.334 77 137.001c92.667 132.667 139 223 139 271v4c15.333 0 23 3.33301 23 10v10c0 24.667 16.333 51.334 49 80.001
l14 -6c17.333 22 31 33 41 33c12 0 18 -9 18 -27c0 -10.667 -2 -20.334 -6 -29.001zM958.001 564.994c18.667 5.33301 38.0039 8 58.0039 8c46 8.66699 69 21.667 69 39c0 1.33301 -38.667 100 -116 296s-128 294 -152 294c-16.667 0 -49.167 -46.333 -97.5 -139
s-102.5 -187.834 -162.5 -285.501s-90 -157.5 -90 -179.5c0 -15.333 10 -25.666 30 -30.999s31.667 -8 35 -8l19 2c11.333 0 26.666 -1.66699 45.999 -5s32.666 -5 39.999 -5c16 0 42.167 2.66699 78.5 8s59.166 8 68.499 8s20.666 -1.33301 33.999 -4s22 -4 26 -4
c9.33301 0 16 4.66699 20 14c16.667 -5.33301 31.667 -8 45 -8l31 2c7.33301 0 13.333 -0.666992 18 -2zM1090 1785.99c4.66699 -6.66699 14.002 -18 28.002 -34s21 -29.333 21 -40c0 -16 -7.83301 -32.333 -23.5 -49s-31.834 -25 -48.501 -25
c-29.333 0 -57.833 15.167 -85.5 45.5s-41.5 53.5 -41.5 69.5c0 17.333 13 37 39 59v19h21l4 14c11.333 -2 20.666 -6.66699 27.999 -14c3.33301 -10 7.83301 -19 13.5 -27s20.5 -14 44.5 -18zM639.007 1811.99c0 -9.33301 6.33301 -18 19 -26c48.667 -15.333 73 -45 73 -89
c0 -11.333 -7.5 -24.166 -22.5 -38.499s-22.5 -26.5 -22.5 -36.5h-8c-9.33301 0 -16 -2 -20 -6c-75.333 54.667 -113 90 -113 106c0 6 3.33301 18.667 10 38s19.334 34.166 38.001 44.499s30.667 15.5 36 15.5c3.33301 0 6.66602 -2.66699 9.99902 -8z" />
    <glyph glyph-name="Aring" unicode="&#xc5;" horiz-adv-x="1542" 
d="M909 1386c53.333 -184 221.334 -579.673 504.001 -1187.01c38 -56.667 57 -104.667 57 -144c0 -9.33301 -3.16699 -17.666 -9.5 -24.999s-29.666 -17 -69.999 -29s-66.833 -20.667 -79.5 -26c-10 12 -15 23.667 -15 35c0 10 1.33301 21.333 4 34l5 15
c0 22 -10.833 67.333 -32.5 136s-58.834 156 -111.501 262c-5.33301 2.66699 -10.833 10.167 -16.5 22.5s-19.834 18.5 -42.501 18.5c-12.667 0 -25 -6.33301 -37 -19c-2 5.33301 -16 10.333 -42 15l-30 8h-30c-68 0 -115.167 -3.83301 -141.5 -11.5
s-40.166 -11.5 -41.499 -11.5c-9.33301 0 -16.666 5 -21.999 15c-41.333 -11.333 -71.833 -15.666 -91.5 -12.999s-39.167 4 -58.5 4c-44 0 -84.833 -5.16699 -122.5 -15.5s-62 -15.666 -73 -15.999s-21.5 -8.83301 -31.5 -25.5l-14 10
c-68 -140.667 -118.667 -251.334 -152 -332.001c-4 -50 -14.5 -92.5 -31.5 -127.5s-32.5 -52.5 -46.5 -52.5h-2c-22.667 9.33301 -69 20.333 -139 33c-10.667 2 -16 8 -16 18c0 22 11.667 42.5 35 61.5s36.666 33.5 39.999 43.5c22 41.333 42 70 60 86
c24 28.667 54.167 75.834 90.5 141.501s66.166 109.834 89.499 132.501c0.666992 29.333 32.5 92.333 95.5 189s117.5 187.334 163.5 272.001s71.667 130.334 77 137.001c92.667 132.667 139 223 139 271v4c15.333 0 23 3.33301 23 10v10c0 24.667 16.333 51.334 49 80.001
l14 -6c17.333 22 31 33 41 33c12 0 18 -9 18 -27c0 -10.667 -2 -20.334 -6 -29.001zM958.001 564.994c18.667 5.33301 38.0039 8 58.0039 8c46 8.66699 69 21.667 69 39c0 1.33301 -38.667 100 -116 296s-128 294 -152 294c-16.667 0 -49.167 -46.333 -97.5 -139
s-102.5 -187.834 -162.5 -285.501s-90 -157.5 -90 -179.5c0 -15.333 10 -25.666 30 -30.999s31.667 -8 35 -8l19 2c11.333 0 26.666 -1.66699 45.999 -5s32.666 -5 39.999 -5c16 0 42.167 2.66699 78.5 8s59.166 8 68.499 8s20.666 -1.33301 33.999 -4s22 -4 26 -4
c9.33301 0 16 4.66699 20 14c16.667 -5.33301 31.667 -8 45 -8l31 2c7.33301 0 13.333 -0.666992 18 -2zM832.005 1915.99c26.667 4 51.002 6.00195 73.002 6.00195c90.667 0 136 -30.667 136 -92c0 -42 -26.167 -90.5 -78.5 -145.5s-112.833 -82.5 -181.5 -82.5
c-46.667 0 -81.334 15 -104.001 45s-34 49.333 -34 58v2c0 41.333 22 80.666 66 117.999c22 18.667 33 33 33 43c0 3.33301 -1.33301 7.66602 -4 12.999c10.667 2 24.167 10.667 40.5 26s32.166 23 47.499 23zM852.007 1684c25.333 0 46 9.66797 62 29.001
s24 44.666 24 75.999c0 29.333 -6.33301 48.833 -19 58.5s-28 14.5 -46 14.5c-11.333 0 -35 -8.66699 -71 -26s-54 -39.333 -54 -66c0 -12.667 9.66699 -30.167 29 -52.5s44.333 -33.5 75 -33.5z" />
    <glyph glyph-name="AE" unicode="&#xc6;" horiz-adv-x="2275" 
d="M1571 1368c5.33301 0 19.1631 -1.3291 41.4961 -3.99609s44.5 -4 66.5 -4l230 4l88 -4c14.667 0 40 2.33301 76 7s65.333 7 88 7c35.333 0 53 -9.33301 53 -28c0 -8 -2.66699 -22.333 -8 -43s-12.333 -35.167 -21 -43.5s-24.334 -12.5 -47.001 -12.5
c-5.33301 0 -25 1.33301 -59 4c-45.333 30 -143.666 45 -294.999 45c-34.667 0 -77.5 -0.833008 -128.5 -2.5s-79.5 -3.5 -85.5 -5.5s-12.667 -6.66699 -20 -14c-20 -88 -30 -157 -30 -207v-20c-6 -43.333 -9 -75 -9 -95c0 -21.333 3.66699 -44.333 11 -69
s13.666 -47.667 18.999 -69s19.333 -32 42 -32l21 2c5.33301 0 10 -0.666992 14 -2c12.667 -12 28.334 -18 47.001 -18c14 0 34.167 1.33301 60.5 4s45.833 4 58.5 4c4 0 10.167 -0.666992 18.5 -2s15.166 -2 20.499 -2c18.667 0 33.667 4.66699 45 14l54 -5
c11.333 6 49.333 11.333 114 16c1.33301 -4 2 -9.66699 2 -17c0 -5.33301 -1 -14 -3 -26s-3 -21 -3 -27c0 -4.66699 1.33301 -12.334 4 -23.001c-12 -30 -38 -45 -78 -45c-12.667 0 -32.167 4.83301 -58.5 14.5s-49.833 14.5 -70.5 14.5l-72 -2
c-13.333 0 -38.166 1.66699 -74.499 5s-66.166 5 -89.499 5h-28c-16 -7.33301 -28 -16.333 -36 -27s-15.667 -35.167 -23 -73.5s-11 -83.833 -11 -136.5c0 -35.333 3.16699 -90.333 9.5 -165s10.166 -126.5 11.499 -155.5s3.16602 -44.333 5.49902 -46
s6.83301 -3.66699 13.5 -6s11.667 -5.16602 15 -8.49902l58 -2c34 0 81.667 2.33301 143 7l84 7l28 -3c8.66699 -0.666992 20.334 -1 35.001 -1c56.667 0 140.667 11.667 252 35c20 10.667 33.667 16 41 16s11 -6 11 -18c0 -10 -3.66699 -23.667 -11 -41
c2.66699 -6.66699 4 -16.334 4 -29.001c0 -23.333 -3.33301 -39 -10 -47s-24.334 -12 -53 -12h-25c-51.333 0 -102.333 3.66699 -153 11s-95.667 11 -135 11l-256 -4h-35c-6 -11.333 -31.333 -25.666 -76 -42.999c-14.667 0 -38 -11 -70 -33c-17.333 0 -28.666 5 -33.999 15
v12c0 22 4 39 12 51c-37.333 180.667 -90 331 -158 451l-6 -15c-2.66699 20.667 -7.16699 35.167 -13.5 43.5s-19.5 12.5 -39.5 12.5c-11.333 0 -23 -6.33301 -35 -19c-1.33301 8.66699 -5.33301 16.334 -12 23.001c-24 2.66699 -42.667 4 -56 4
c-89.333 0 -155 -4.5 -197 -13.5s-63.667 -13.5 -65 -13.5c-9.33301 0 -16.666 5 -21.999 15c-41.333 -11.333 -72 -15.666 -92 -12.999s-40 4 -60 4c-39.333 0 -75.333 -4 -108 -12c-22.667 -9.33301 -45.334 -15 -68.001 -17s-39 -11.333 -49 -28h-2
c-4 0 -8 3.33301 -12 10c-12 -28.667 -42.167 -88.834 -90.5 -180.501s-75.166 -145.834 -80.499 -162.501s-8 -42.334 -8 -77.001v-24c-9.33301 -20.667 -19.333 -31 -30 -31c-43.333 0 -80.166 5.33301 -110.499 16s-45.5 20.334 -45.5 29.001
c0 21.333 37.667 74.666 113 159.999c25.333 28.667 56 76 92 142s65.333 110 88 132c9.33301 47.333 26.833 88.5 52.5 123.5s65.834 99.5 120.501 193.5l235 398c32 54 56.333 98.667 73 134s25 60.333 25 75v2l20 8c2 38 18.333 68 49 90l15 -4
c14 20.667 27.667 31 41 31c7.33301 0 13.333 -3.33301 18 -10v-13c0 -10 -2 -20 -6 -30c16 -56 36.167 -117.5 60.5 -184.5s52.5 -139.833 84.5 -218.5s69 -164.667 111 -258l118 -262c37.333 -80 57.5 -121.333 60.5 -124s5.5 -4 7.5 -4c15.333 0 23 59.333 23 178
c0 10 -1 27 -3 51s-3 43.333 -3 58c0 8.66699 1.33301 24.667 4 48s4 42.666 4 57.999v37l2 250c0 95.333 -3.83301 164.166 -11.5 206.499s-11.5 64.166 -11.5 65.499c0 8.66699 31.667 21 95 37l6 13l16 -9l12 4c21.333 0 41.333 -6 60 -18zM1036 565.004
c7.33301 5.33301 15 8.00195 23 8.00195c46 8.66699 69 21.667 69 39c0 7.33301 -42 111.666 -126 312.999s-135.333 302 -154 302c-1.33301 0 -5 -3 -11 -9s-12 -11.333 -18 -16l-8 21l-244 -424c-66.667 -114.667 -100 -181.667 -100 -201
c0 -14.667 8.83301 -24.834 26.5 -30.501s29.834 -8.5 36.501 -8.5l19 2c10.667 0 25.334 -1.66699 44.001 -5s32 -5 40 -5c15.333 0 41.666 2.66699 78.999 8s60.666 8 69.999 8s21 -1.33301 35 -4s23.667 -4 29 -4c6.66699 0 12.667 4.66699 18 14
c11.333 -6.66699 21 -10 29 -10l45 2h98z" />
    </font>
</defs>
</svg>
